<svg width="12" height="12" viewBox="0 0 12 12" fill="none" xmlns="http://www.w3.org/2000/svg">
<g id="check_circle">
<mask id="mask0_1_7018" style="mask-type:alpha" maskUnits="userSpaceOnUse" x="0" y="0" width="12" height="12">
<rect id="Bounding box" width="12" height="12" fill="#D9D9D9"/>
</mask>
<g mask="url(#mask0_1_7018)">
<path id="check_circle_2" d="M5.3 8.29939L8.825 4.77439L8.125 4.07439L5.3 6.89939L3.875 5.47439L3.175 6.17439L5.3 8.29939ZM6 10.9994C5.30833 10.9994 4.65833 10.8681 4.05 10.6056C3.44167 10.3431 2.9125 9.98689 2.4625 9.53689C2.0125 9.08689 1.65625 8.55772 1.39375 7.94939C1.13125 7.34106 1 6.69106 1 5.99939C1 5.30772 1.13125 4.65772 1.39375 4.04939C1.65625 3.44106 2.0125 2.91189 2.4625 2.46189C2.9125 2.01189 3.44167 1.65564 4.05 1.39314C4.65833 1.13064 5.30833 0.99939 6 0.99939C6.69167 0.99939 7.34167 1.13064 7.95 1.39314C8.55833 1.65564 9.0875 2.01189 9.5375 2.46189C9.9875 2.91189 10.3438 3.44106 10.6062 4.04939C10.8687 4.65772 11 5.30772 11 5.99939C11 6.69106 10.8687 7.34106 10.6062 7.94939C10.3438 8.55772 9.9875 9.08689 9.5375 9.53689C9.0875 9.98689 8.55833 10.3431 7.95 10.6056C7.34167 10.8681 6.69167 10.9994 6 10.9994Z" fill="#60C56D"/>
</g>
</g>
</svg>
