<svg width="16" height="17" viewBox="0 0 16 17" fill="none" xmlns="http://www.w3.org/2000/svg">
<g id="download">
<mask id="mask0_101_5300" style="mask-type:alpha" maskUnits="userSpaceOnUse" x="0" y="0" width="16" height="17">
<rect id="Bounding box" y="0.790039" width="16" height="16" fill="#157AFF"/>
</mask>
<g mask="url(#mask0_101_5300)">
<path id="download_2" d="M7.99984 11.457L4.6665 8.1237L5.59984 7.15703L7.33317 8.89037V3.45703H8.6665V8.89037L10.3998 7.15703L11.3332 8.1237L7.99984 11.457ZM3.99984 14.1237C3.63317 14.1237 3.31928 13.9931 3.05817 13.732C2.79706 13.4709 2.6665 13.157 2.6665 12.7904V10.7904H3.99984V12.7904H11.9998V10.7904H13.3332V12.7904C13.3332 13.157 13.2026 13.4709 12.9415 13.732C12.6804 13.9931 12.3665 14.1237 11.9998 14.1237H3.99984Z" fill="#157AFF"/>
</g>
</g>
</svg>
