<svg width="20" height="20" viewBox="0 0 20 20" fill="none" xmlns="http://www.w3.org/2000/svg">
<g id="border_color">
<mask id="mask0_101_7295" style="mask-type:alpha" maskUnits="userSpaceOnUse" x="0" y="0" width="20" height="20">
<rect id="Bounding box" width="20" height="20" fill="#ADB9C9"/>
</mask>
<g mask="url(#mask0_101_7295)">
<path id="border_color_2" d="M1.66699 20.0001V16.6667H18.3337V20.0001H1.66699ZM3.33366 15.0001V11.4584L12.667 2.14591C12.8198 1.99314 12.9969 1.87508 13.1982 1.79175C13.3996 1.70841 13.6114 1.66675 13.8337 1.66675C14.0559 1.66675 14.2712 1.70841 14.4795 1.79175C14.6878 1.87508 14.8753 2.00008 15.042 2.16675L16.1878 3.33341C16.3545 3.48619 16.476 3.66675 16.5524 3.87508C16.6288 4.08341 16.667 4.29869 16.667 4.52091C16.667 4.72925 16.6288 4.93411 16.5524 5.1355C16.476 5.33689 16.3545 5.52092 16.1878 5.68758L6.87533 15.0001H3.33366ZM13.8337 5.66675L15.0003 4.50008L13.8337 3.33341L12.667 4.50008L13.8337 5.66675Z" fill="#ADB9C9"/>
</g>
</g>
</svg>
