<svg width="12" height="12" viewBox="0 0 12 12" fill="none" xmlns="http://www.w3.org/2000/svg">
<g id="cancel">
<mask id="mask0_1_7031" style="mask-type:alpha" maskUnits="userSpaceOnUse" x="0" y="0" width="12" height="12">
<rect id="Bounding box" width="12" height="12" fill="#D9D9D9"/>
</mask>
<g mask="url(#mask0_1_7031)">
<path id="cancel_2" d="M4.2 8.50012L6 6.70012L7.8 8.50012L8.5 7.80012L6.7 6.00012L8.5 4.20012L7.8 3.50012L6 5.30012L4.2 3.50012L3.5 4.20012L5.3 6.00012L3.5 7.80012L4.2 8.50012ZM6 11.0001C5.30833 11.0001 4.65833 10.8689 4.05 10.6064C3.44167 10.3439 2.9125 9.98762 2.4625 9.53762C2.0125 9.08762 1.65625 8.55846 1.39375 7.95012C1.13125 7.34179 1 6.69179 1 6.00012C1 5.30846 1.13125 4.65846 1.39375 4.05012C1.65625 3.44179 2.0125 2.91262 2.4625 2.46262C2.9125 2.01262 3.44167 1.65637 4.05 1.39387C4.65833 1.13137 5.30833 1.00012 6 1.00012C6.69167 1.00012 7.34167 1.13137 7.95 1.39387C8.55833 1.65637 9.0875 2.01262 9.5375 2.46262C9.9875 2.91262 10.3438 3.44179 10.6062 4.05012C10.8687 4.65846 11 5.30846 11 6.00012C11 6.69179 10.8687 7.34179 10.6062 7.95012C10.3438 8.55846 9.9875 9.08762 9.5375 9.53762C9.0875 9.98762 8.55833 10.3439 7.95 10.6064C7.34167 10.8689 6.69167 11.0001 6 11.0001Z" fill="#F13A3A"/>
</g>
</g>
</svg>
