<svg width="24" height="24" viewBox="0 0 24 24" fill="none" xmlns="http://www.w3.org/2000/svg">
<g id="menu">
<mask id="mask0_101_9753" style="mask-type:alpha" maskUnits="userSpaceOnUse" x="0" y="0" width="24" height="24">
<rect id="Bounding box" width="24" height="24" fill="#D9D9D9"/>
</mask>
<g mask="url(#mask0_101_9753)">
<path id="menu_2" d="M4 18C3.44772 18 3 17.5523 3 17C3 16.4477 3.44772 16 4 16H15.0244C15.5766 16 16.0244 16.4477 16.0244 17C16.0244 17.5523 15.5766 18 15.0244 18H4ZM4 13C3.44772 13 3 12.5523 3 12C3 11.4477 3.44772 11 4 11H20C20.5523 11 21 11.4477 21 12C21 12.5523 20.5523 13 20 13H4ZM4 8C3.44772 8 3 7.55228 3 7C3 6.44772 3.44772 6 4 6H20C20.5523 6 21 6.44772 21 7C21 7.55228 20.5523 8 20 8H4Z" fill="#ADB9C9"/>
</g>
</g>
</svg>
