<svg width="17" height="17" viewBox="0 0 17 17" fill="none" xmlns="http://www.w3.org/2000/svg">
<g id="moving">
<mask id="mask0_1_2566" style="mask-type:alpha" maskUnits="userSpaceOnUse" x="0" y="0" width="17" height="17">
<rect id="Bounding box" x="0.75" y="0.5" width="16" height="16" fill="#60C56D"/>
</mask>
<g mask="url(#mask0_1_2566)">
<path id="moving_2" d="M3.01659 4.5L2.08325 5.43333L5.61659 8.96667C6.00547 9.35556 6.4777 9.55 7.03325 9.55C7.58881 9.55 8.06103 9.35556 8.44992 8.96667L9.21658 8.2C9.34992 8.06667 9.50825 8 9.69159 8C9.87492 8 10.0333 8.06667 10.1666 8.2L13.1333 11.1667H11.4166V12.5H15.4166V8.5H14.0833V10.2167L11.0999 7.25C10.711 6.86111 10.2388 6.66667 9.68325 6.66667C9.1277 6.66667 8.65547 6.86111 8.26659 7.25L7.48325 8.03333C7.36103 8.15556 7.20547 8.21667 7.01658 8.21667C6.8277 8.21667 6.67214 8.15556 6.54992 8.03333L3.01659 4.5Z" fill="#F13A3A"/>
</g>
</g>
</svg>
