<svg width="16" height="16" viewBox="0 0 16 16" fill="none" xmlns="http://www.w3.org/2000/svg">
<g id="moving">
<mask id="mask0_1_2488" style="mask-type:alpha" maskUnits="userSpaceOnUse" x="0" y="0" width="16" height="16">
<rect id="Bounding box" width="16" height="16" fill="#60C56D"/>
</mask>
<g mask="url(#mask0_1_2488)">
<path id="moving_2" d="M2.26659 12L1.33325 11.0667L4.86659 7.53333C5.25547 7.14444 5.7277 6.95 6.28325 6.95C6.83881 6.95 7.31103 7.14444 7.69992 7.53333L8.46658 8.3C8.59992 8.43333 8.75825 8.5 8.94159 8.5C9.12492 8.5 9.28325 8.43333 9.41658 8.3L12.3833 5.33333H10.6666V4H14.6666V8H13.3333V6.28333L10.3499 9.25C9.96103 9.63889 9.48881 9.83333 8.93325 9.83333C8.3777 9.83333 7.90547 9.63889 7.51659 9.25L6.73325 8.46667C6.61103 8.34444 6.45547 8.28333 6.26658 8.28333C6.0777 8.28333 5.92214 8.34444 5.79992 8.46667L2.26659 12Z" fill="#60C56D"/>
</g>
</g>
</svg>
