<svg width="24" height="24" viewBox="0 0 24 24" fill="none" xmlns="http://www.w3.org/2000/svg">
<g id="ic_car_rental">
<mask id="mask0_1_1179" style="mask-type:alpha" maskUnits="userSpaceOnUse" x="0" y="0" width="24" height="24">
<rect id="Bounding box" width="24" height="24" fill="#D9D9D9"/>
</mask>
<g mask="url(#mask0_1_1179)">
<path id="car_rental" d="M8 7C7.16667 7 6.45833 6.70833 5.875 6.125C5.29167 5.54167 5 4.83333 5 4C5 3.16667 5.29167 2.45833 5.875 1.875C6.45833 1.29167 7.16667 1 8 1C8.63333 1 9.20833 1.1875 9.725 1.5625C10.2417 1.9375 10.6167 2.41667 10.85 3H19V5H18V7H16V5H10.85C10.6167 5.58333 10.2417 6.0625 9.725 6.4375C9.20833 6.8125 8.63333 7 8 7ZM8 5C8.28333 5 8.52083 4.90417 8.7125 4.7125C8.90417 4.52083 9 4.28333 9 4C9 3.71667 8.90417 3.47917 8.7125 3.2875C8.52083 3.09583 8.28333 3 8 3C7.71667 3 7.47917 3.09583 7.2875 3.2875C7.09583 3.47917 7 3.71667 7 4C7 4.28333 7.09583 4.52083 7.2875 4.7125C7.47917 4.90417 7.71667 5 8 5ZM9 17.5C9.28333 17.5 9.52083 17.4042 9.7125 17.2125C9.90417 17.0208 10 16.7833 10 16.5C10 16.2167 9.90417 15.9792 9.7125 15.7875C9.52083 15.5958 9.28333 15.5 9 15.5C8.71667 15.5 8.47917 15.5958 8.2875 15.7875C8.09583 15.9792 8 16.2167 8 16.5C8 16.7833 8.09583 17.0208 8.2875 17.2125C8.47917 17.4042 8.71667 17.5 9 17.5ZM15 17.5C15.2833 17.5 15.5208 17.4042 15.7125 17.2125C15.9042 17.0208 16 16.7833 16 16.5C16 16.2167 15.9042 15.9792 15.7125 15.7875C15.5208 15.5958 15.2833 15.5 15 15.5C14.7167 15.5 14.4792 15.5958 14.2875 15.7875C14.0958 15.9792 14 16.2167 14 16.5C14 16.7833 14.0958 17.0208 14.2875 17.2125C14.4792 17.4042 14.7167 17.5 15 17.5ZM5 14.6L6.65 9.8C6.73333 9.56667 6.87083 9.375 7.0625 9.225C7.25417 9.075 7.46667 9 7.7 9H16.3C16.5333 9 16.7458 9.075 16.9375 9.225C17.1292 9.375 17.2667 9.56667 17.35 9.8L19 14.6V21.2C19 21.4333 18.925 21.625 18.775 21.775C18.625 21.925 18.4333 22 18.2 22H17.8C17.5667 22 17.375 21.925 17.225 21.775C17.075 21.625 17 21.4333 17 21.2V20H7V21.2C7 21.4333 6.925 21.625 6.775 21.775C6.625 21.925 6.43333 22 6.2 22H5.8C5.56667 22 5.375 21.925 5.225 21.775C5.075 21.625 5 21.4333 5 21.2V14.6ZM7.65 13H16.35L15.65 11H8.35L7.65 13ZM7 18H17V15H7V18Z" fill="white"/>
</g>
</g>
</svg>
