<svg width="37" height="37" viewBox="0 0 37 37" fill="none" xmlns="http://www.w3.org/2000/svg">
<g id="article">
<mask id="mask0_101_9371" style="mask-type:alpha" maskUnits="userSpaceOnUse" x="0" y="0" width="37" height="37">
<rect id="Bounding box" x="0.5" y="0.244141" width="36" height="36" fill="#ADB9C9"/>
</mask>
<g mask="url(#mask0_101_9371)">
<path id="article_2" d="M11 25.7441H21.5V22.7441H11V25.7441ZM11 19.7441H26V16.7441H11V19.7441ZM11 13.7441H26V10.7441H11V13.7441ZM8 31.7441C7.175 31.7441 6.46875 31.4504 5.88125 30.8629C5.29375 30.2754 5 29.5691 5 28.7441V7.74414C5 6.91914 5.29375 6.21289 5.88125 5.62539C6.46875 5.03789 7.175 4.74414 8 4.74414H29C29.825 4.74414 30.5312 5.03789 31.1188 5.62539C31.7063 6.21289 32 6.91914 32 7.74414V28.7441C32 29.5691 31.7063 30.2754 31.1188 30.8629C30.5312 31.4504 29.825 31.7441 29 31.7441H8ZM8 28.7441H29V7.74414H8V28.7441Z" fill="#ADB9C9"/>
</g>
</g>
</svg>
