<svg width="37" height="37" viewBox="0 0 37 37" fill="none" xmlns="http://www.w3.org/2000/svg">
<g id="image">
<mask id="mask0_101_9374" style="mask-type:alpha" maskUnits="userSpaceOnUse" x="0" y="0" width="37" height="37">
<rect id="Bounding box" x="0.426758" y="0.244141" width="36" height="36" fill="#D9D9D9"/>
</mask>
<g mask="url(#mask0_101_9374)">
<path id="image_2" d="M7.92676 31.7441C7.10176 31.7441 6.39551 31.4504 5.80801 30.8629C5.22051 30.2754 4.92676 29.5691 4.92676 28.7441V7.74414C4.92676 6.91914 5.22051 6.21289 5.80801 5.62539C6.39551 5.03789 7.10176 4.74414 7.92676 4.74414H28.9268C29.7518 4.74414 30.458 5.03789 31.0455 5.62539C31.633 6.21289 31.9268 6.91914 31.9268 7.74414V28.7441C31.9268 29.5691 31.633 30.2754 31.0455 30.8629C30.458 31.4504 29.7518 31.7441 28.9268 31.7441H7.92676ZM9.42676 25.7441H27.4268L21.8018 18.2441L17.3018 24.2441L13.9268 19.7441L9.42676 25.7441Z" fill="#ADB9C9"/>
</g>
</g>
</svg>
