<svg width="153" height="121" viewBox="0 0 153 121" fill="none" xmlns="http://www.w3.org/2000/svg">
<g id="Group 4479">
<path id="Vector" d="M117.127 95.9247C105.915 104.249 94.0001 111.882 80.8224 116.501C67.6445 121.122 53.0308 122.572 39.6677 118.501C28.0954 114.974 17.8617 107.345 10.9519 97.4139C4.04455 87.4825 0.456007 75.3315 0.585411 63.239C0.714532 51.1427 4.5172 39.1508 11.15 29.0379C17.7862 18.9233 27.2003 10.6999 37.9871 5.22629C44.2956 2.02701 51.2497 -0.27652 58.319 0.0268199C64.3023 0.285339 70.0417 2.38621 75.5675 4.69371C81.0921 7.00306 86.5718 9.55917 92.4273 10.8122C101.453 12.7435 110.813 11.4723 120.043 11.6199C124.655 11.6934 129.303 12.1324 133.716 13.4802C138.131 14.83 142.321 17.1354 145.435 20.5433C147.645 22.9596 149.266 25.8716 150.434 28.9304C152.83 35.2034 153.346 42.1234 152.317 48.7592C151.29 55.3923 148.754 61.7462 145.288 67.4934C138.356 78.9907 127.907 87.92 117.127 95.9247Z" fill="url(#paint0_linear_96_13732)"/>
<g id="Mask group">
<mask id="mask0_96_13732" style="mask-type:alpha" maskUnits="userSpaceOnUse" x="0" y="0" width="153" height="121">
<path id="Vector_2" d="M116.545 95.9247C105.333 104.249 93.4181 111.882 80.2403 116.501C67.0625 121.122 52.4488 122.572 39.0857 118.501C27.5134 114.974 17.2797 107.345 10.3699 97.4139C3.46252 87.4825 -0.126024 75.3315 0.00338007 63.239C0.132501 51.1427 3.93517 39.1508 10.568 29.0379C17.2042 18.9233 26.6183 10.6999 37.4051 5.22629C43.7136 2.02701 50.6677 -0.27652 57.737 0.0268199C63.7203 0.285339 69.4597 2.38621 74.9854 4.69371C80.5101 7.00306 85.9898 9.55917 91.8453 10.8122C100.871 12.7435 110.231 11.4723 119.461 11.6199C124.073 11.6934 128.721 12.1324 133.134 13.4802C137.549 14.83 141.739 17.1354 144.853 20.5433C147.063 22.9596 148.684 25.8716 149.852 28.9304C152.248 35.2034 152.764 42.1234 151.735 48.7592C150.708 55.3923 148.172 61.7462 144.706 67.4934C137.774 78.9907 127.324 87.92 116.545 95.9247Z" fill="url(#paint1_linear_96_13732)"/>
</mask>
<g mask="url(#mask0_96_13732)">
<path id="Vector_3" d="M57.8196 78.2123C57.4574 77.2388 57.2672 76.211 57.2582 75.1741C57.222 73.6936 56.9231 72.231 56.3707 70.8546C56.9412 68.1741 57.3397 65.4621 57.5752 62.7363C60.0654 62.193 62.5059 61.4278 64.8649 60.4497C67.1967 60.6082 76.6369 60.8482 81.1876 54.876C83.216 52.2136 83.9631 49.7823 83.4107 47.6451C82.9897 46.0921 81.9075 44.7972 80.4541 44.1089C80.3137 44.05 80.1688 44.0048 80.0194 43.9821C73.6986 42.9136 67.4326 41.0029 66.6178 39.8981C66.3189 39.4408 66.0563 38.9654 65.8254 38.4763C63.9283 34.7409 60.4237 27.8406 45.6592 28.47C45.3694 28.4111 45.0706 28.4202 44.7853 28.4971L44.5318 28.565L44.5001 28.5741C41.6158 29.3846 32.013 32.459 29.4316 37.9783C28.5442 39.8438 28.5442 42.0081 29.4271 43.878C30.061 45.3449 30.9755 46.6717 32.1256 47.7809C31.8721 47.9349 31.6593 48.1477 31.5053 48.4012C23.6813 61.5317 5.34879 65.3486 5.16217 65.3845C5.12595 65.3936 5.0852 65.4026 5.04898 65.4117C3.74498 65.7558 2.36853 66.0592 0.951288 66.3082H0.955815C0.00498396 66.4757 -0.660566 67.3405 -0.57456 68.3005C-0.493059 69.2604 0.31289 69.9984 1.27735 69.9984C1.38602 69.9984 1.49469 69.9893 1.60335 69.9712C3.10208 69.7086 4.56454 69.3871 5.95454 69.0204C7.38083 68.726 26.1752 64.6193 34.7063 50.3065H34.7018C34.8331 50.0846 34.9146 49.8401 34.9463 49.5866C35.9514 49.976 37.0155 50.1661 38.093 50.148C41.6202 50.139 44.8484 48.1422 46.4287 44.9864C47.8368 41.7083 47.4338 35.4463 47.0897 32.1504C58.3457 32.0236 60.8403 36.8774 62.5071 40.1601H62.5116C62.8285 40.8347 63.1998 41.4867 63.6209 42.1025C65.8123 45.0592 75.6235 46.9926 79.0834 47.5947C79.4502 47.8302 79.7128 48.1924 79.8215 48.6135C80.0433 49.5598 79.4819 50.9861 78.2322 52.6206C74.4017 57.6463 64.8433 56.7182 64.7483 56.7046C64.4223 56.6729 64.0917 56.7272 63.7884 56.8585C61.1305 57.9859 58.3596 58.8235 55.5207 59.3533C54.6785 59.4982 54.0447 60.1954 53.9813 61.0466C53.8137 63.2743 53.5873 65.271 53.2885 67.1365C52.1384 66.2671 50.8933 65.5291 49.5758 64.9315C49.5576 62.8487 49.8112 60.7705 50.3274 58.7511C50.59 58.1399 50.5039 57.4335 50.1055 56.9037C49.7025 56.3694 49.0505 56.0932 48.3894 56.1747C47.8461 56.2427 35.0457 57.9224 29.1331 67.2859C24.2929 74.9469 23.9352 77.7405 23.2198 83.3048C23.084 84.3507 22.9391 85.5098 22.7399 86.8365C21.3905 95.96 18.443 100.881 12.575 103.815C11.7193 104.241 10.7775 104.684 9.77681 105.16C8.8939 105.576 7.9657 106.016 7.00584 106.482L7.01037 106.473C6.10028 106.93 5.72445 108.035 6.17273 108.954C6.62098 109.873 7.72118 110.258 8.64488 109.819C9.58666 109.357 10.5013 108.927 11.3706 108.519C12.3985 108.035 13.3629 107.578 14.2413 107.139C23.0479 102.733 25.3434 94.6781 26.4259 87.3791C26.6251 86.0298 26.7791 84.8481 26.9149 83.7795C27.5986 78.4458 27.8838 76.2363 32.2803 69.2721C35.7622 63.7618 42.4496 61.3621 46.1757 60.4158V60.4113C45.9493 62.3084 45.8361 64.2192 45.8361 66.1298C45.8361 66.8815 46.2889 67.5561 46.9772 67.8459C53.1757 70.4449 53.3387 72.6498 53.547 75.4435C53.5832 76.906 53.873 78.3504 54.4163 79.7087C54.9868 81.0037 55.7158 82.2217 56.5806 83.34C57.4545 84.5172 57.5677 84.6666 57.1194 86.1337C56.078 89.534 52.157 89.516 49.051 88.9046C46.3524 88.3704 44.4824 88.719 43.3459 89.9732V89.9687C42.4992 90.9557 42.214 92.3005 42.5898 93.5411C42.626 93.6678 42.6804 93.7901 42.7437 93.9078C42.7754 93.9667 46.0626 100.052 46.7598 110.47C47.113 114.45 47.1266 118.457 46.7915 122.442C46.7372 122.931 46.8821 123.424 47.19 123.809C47.4979 124.194 47.9461 124.438 48.4351 124.493C48.503 124.502 48.5754 124.506 48.6434 124.506C49.5897 124.502 50.3866 123.791 50.4908 122.849C50.8484 118.647 50.8439 114.423 50.4726 110.221C50.1919 104.081 48.7385 98.05 46.1803 92.4584C46.8957 92.3271 47.6292 92.3588 48.3266 92.5535C54.6563 93.8077 59.2747 91.8109 60.678 87.2197C61.5338 85.146 61.0991 82.7598 59.5687 81.1208C58.8669 80.2243 58.2783 79.2508 57.821 78.2095L57.8196 78.2123ZM43.0097 43.5201C42 45.3086 40.1119 46.4133 38.0608 46.4269H38.0201C35.8106 46.4269 34.0176 45.0188 32.8222 42.3564H32.8176C32.3739 41.4735 32.3694 40.4367 32.7995 39.5537C34.1669 36.6288 39.4283 34.1747 43.4172 32.8119C43.7794 36.5156 43.9062 41.4327 43.0097 43.5201Z" fill="white"/>
</g>
</g>
<path id="Vector_4" d="M131.484 43.8307H121.944V34.2906C121.944 33.7971 121.75 33.3262 121.401 32.9776C121.052 32.6289 120.581 32.4297 120.088 32.4297H109.262C108.234 32.4297 107.401 33.2628 107.401 34.2906V43.8307H97.861C96.8331 43.8307 96.0045 44.6638 96 45.6917V56.5175V56.513C96.0045 57.5408 96.8331 58.374 97.861 58.374H107.401V67.914C107.401 68.9418 108.234 69.775 109.262 69.775H120.088C121.111 69.775 121.944 68.9419 121.944 67.914V58.374H131.484C132.512 58.374 133.345 57.5408 133.345 56.513V45.6917C133.345 44.6638 132.512 43.8307 131.484 43.8307Z" fill="white"/>
</g>
<defs>
<linearGradient id="paint0_linear_96_13732" x1="106.859" y1="-2.53077" x2="38.1418" y2="119.06" gradientUnits="userSpaceOnUse">
<stop stop-color="#F6C6FA"/>
<stop offset="1" stop-color="#7F73E3"/>
</linearGradient>
<linearGradient id="paint1_linear_96_13732" x1="106.277" y1="-2.53077" x2="37.5598" y2="119.06" gradientUnits="userSpaceOnUse">
<stop stop-color="#D2C7FF"/>
<stop offset="1" stop-color="#764BE2"/>
</linearGradient>
</defs>
</svg>
