<svg width="153" height="121" viewBox="0 0 153 121" fill="none" xmlns="http://www.w3.org/2000/svg">
<g id="Group 4480">
<path id="Vector" d="M116.545 95.9247C105.333 104.249 93.4181 111.882 80.2403 116.501C67.0625 121.122 52.4488 122.572 39.0857 118.501C27.5134 114.974 17.2797 107.345 10.3699 97.4139C3.46252 87.4825 -0.126024 75.3315 0.00338007 63.239C0.132501 51.1427 3.93517 39.1508 10.568 29.0379C17.2042 18.9233 26.6183 10.6999 37.4051 5.22629C43.7136 2.02701 50.6677 -0.27652 57.737 0.0268199C63.7203 0.285339 69.4597 2.38621 74.9854 4.69371C80.5101 7.00306 85.9898 9.55917 91.8453 10.8122C100.871 12.7435 110.231 11.4723 119.461 11.6199C124.073 11.6934 128.721 12.1324 133.134 13.4802C137.549 14.83 141.739 17.1354 144.853 20.5433C147.063 22.9596 148.684 25.8716 149.852 28.9304C152.248 35.2034 152.764 42.1234 151.735 48.7592C150.708 55.3923 148.172 61.7462 144.706 67.4934C137.774 78.9907 127.324 87.92 116.545 95.9247Z" fill="url(#paint0_linear_96_13749)"/>
<g id="Group">
<g id="Group_2">
<g id="Group_3">
<g id="Group_4">
<path id="Vector_2" d="M53.8897 36.8899C48.0366 42.736 48.037 52.2529 53.8895 58.1061C56.7221 60.9391 60.4959 62.5 64.5 62.5C68.5117 62.5 72.2778 60.9391 75.1103 58.1064M53.8897 36.8899L54.2431 37.2436M53.8897 36.8899C53.8897 36.8899 53.8896 36.89 53.8895 36.8901L54.2431 37.2436M53.8897 36.8899C59.7423 31.0368 69.2652 31.0365 75.1105 36.8901C80.9632 42.7361 80.9632 52.2605 75.1103 58.1064M54.2431 37.2436C48.5856 42.8943 48.5856 52.0944 54.2431 57.7526C56.9818 60.4917 60.6283 62 64.5 62C68.3792 62 72.0182 60.4917 74.7569 57.7526M54.2431 37.2436H74.7569C80.4144 42.8943 80.4144 52.102 74.7569 57.7526M75.1103 58.1064L74.7569 57.7526M75.1103 58.1064C75.1103 58.1063 75.1104 58.1062 75.1105 58.1061L74.7569 57.7526M73.3751 38.6175L73.3754 38.6177C78.2599 43.5028 78.2599 51.4709 73.3754 56.356C71.0009 58.7308 67.8568 60.0292 64.5 60.0292C61.1432 60.0292 57.9991 58.7308 55.6246 56.356C50.7404 51.4711 50.7399 43.5105 55.6246 38.6177C60.5244 33.7248 68.4912 33.7256 73.3751 38.6175Z" fill="white" stroke="white"/>
</g>
<g id="Group_5">
<path id="Vector_3" d="M46.6896 30.7007L46.6893 30.7011C37.1037 40.2728 37.1034 55.8505 46.6893 65.4125C51.477 70.1934 57.779 72.5937 64.0689 72.5937C70.3577 72.5937 76.6603 70.2142 81.4489 65.4123C91.0343 55.8503 91.034 40.2732 81.449 30.7015C76.8054 26.0543 70.6251 23.5 64.0689 23.5C57.5118 23.5 51.3323 26.075 46.6896 30.7007ZM48.7786 32.7899L48.7788 32.7897C52.8641 28.7103 58.289 26.4614 64.0689 26.4614C69.8492 26.4614 75.284 28.7105 79.3691 32.7897C87.7917 41.2002 87.7921 54.9131 79.3691 63.334C70.9358 71.7552 57.2021 71.7549 48.779 63.3342L48.7788 63.334C40.3459 54.9131 40.3461 41.2005 48.7786 32.7899Z" fill="white" stroke="white"/>
</g>
<g id="Group_6">
<path id="Vector_4" d="M77.4704 67.1102L77.4704 67.1102L77.4753 67.1152L86.1737 75.791C86.1737 75.7911 86.1738 75.7912 86.1739 75.7912C86.4505 76.0673 86.8291 76.2174 87.2084 76.2174C87.6043 76.2174 87.954 76.0556 88.234 75.79L88.2341 75.7901L88.2432 75.781C88.8096 75.2154 88.8096 74.268 88.2432 73.7024L79.5546 65.0264C78.9886 64.4612 78.0411 64.4612 77.4751 65.0264L77.4751 65.0263L77.4704 65.0311C76.9103 65.6056 76.9103 66.5358 77.4704 67.1102ZM89.8816 72.0684C90.1583 72.3447 90.5369 72.4948 90.9164 72.4948C91.2765 72.4948 91.662 72.3772 91.9712 72.0684C92.5376 71.5028 92.5376 70.5554 91.9712 69.9898L83.2726 61.3038C82.7066 60.7386 81.759 60.7386 81.193 61.3038C80.6166 61.8794 80.6166 62.8168 81.193 63.3924L89.8816 72.0684Z" fill="white" stroke="white"/>
</g>
<g id="Group_7">
<path id="Vector_5" d="M109.578 93.3816L109.579 93.3802C112.398 90.5441 112.4 85.9352 109.578 83.1173L97.8539 71.4105C97.8537 71.4102 97.8535 71.41 97.8532 71.4097C96.4867 70.0348 94.6557 69.2715 92.709 69.2715C90.7741 69.2715 88.9329 70.0336 87.5755 71.4091C86.1954 72.7672 85.4546 74.6072 85.4546 76.5362C85.4546 78.468 86.1973 80.2971 87.5755 81.6734L99.3006 93.3816C100.722 94.8007 102.575 95.4991 104.434 95.4991C106.303 95.4991 108.156 94.801 109.578 93.3816ZM89.655 73.4776L89.655 73.4776L89.657 73.4757C90.4636 72.6613 91.5477 72.2128 92.709 72.2128C93.8687 72.2128 94.9561 72.6603 95.7861 73.4606L107.507 85.1649C107.507 85.165 107.507 85.1652 107.508 85.1653C109.186 86.8504 109.188 89.5859 107.508 91.2829C105.808 92.9604 103.067 92.9586 101.379 91.2823C101.379 91.2822 101.379 91.2821 101.379 91.282L89.657 79.5767C89.6567 79.5764 89.6564 79.5761 89.6561 79.5758C88.8465 78.7579 88.3987 77.6835 88.3987 76.5262C88.3987 75.3669 88.8479 74.2837 89.655 73.4776Z" fill="white" stroke="white"/>
</g>
</g>
</g>
</g>
<path id="?" d="M55.0326 87.4581C54.1952 89.0282 52.9547 90.5848 51.1753 90.5848H46.0552C45.5344 90.5848 45.1122 90.1627 45.1122 89.6419C45.1122 88.0371 45.2914 86.7384 45.6498 85.7458C46.0081 84.7366 46.5376 83.8185 47.238 82.9913C47.9548 82.1641 49.5511 80.7083 52.0271 78.6237C53.3466 77.5319 54.0063 76.531 54.0063 75.6211C54.0063 74.7112 53.7376 74.008 53.2 73.5117C52.6787 72.9989 51.8805 72.7425 50.8054 72.7425C49.6489 72.7425 48.6878 73.1312 47.9222 73.9088C46.2478 75.6463 44.5191 77.7321 42.1249 77.4313L41.6236 77.3683C39.0456 77.0444 37.0752 74.6698 38.0738 72.2711C38.7135 70.7345 39.618 69.3945 40.7873 68.2508C43.0027 66.0836 46.391 65 50.952 65C54.5032 65 57.3701 65.7527 59.5529 67.2582C62.5176 69.2931 64 72.0063 64 75.3977C64 76.8039 63.6172 78.1605 62.8516 79.4675C62.086 80.7744 60.5222 82.3709 58.1602 84.2569C56.5149 85.5804 55.4724 86.6474 55.0326 87.4581ZM44.7946 97.5456C44.7946 95.0855 46.7889 93.0912 49.249 93.0912H50.285C52.7451 93.0912 54.7394 95.0855 54.7394 97.5456C54.7394 100.006 52.7451 102 50.285 102H49.249C46.7889 102 44.7946 100.006 44.7946 97.5456Z" fill="white"/>
</g>
<defs>
<linearGradient id="paint0_linear_96_13749" x1="106.277" y1="-2.53077" x2="37.5598" y2="119.06" gradientUnits="userSpaceOnUse">
<stop stop-color="#D2C7FF"/>
<stop offset="1" stop-color="#EF3A5D"/>
</linearGradient>
</defs>
</svg>
