<svg width="28" height="28" viewBox="0 0 28 28" fill="none" xmlns="http://www.w3.org/2000/svg">
<g id="Close">
<path id="Vector" d="M21.3498 6.66139C20.8948 6.20639 20.1598 6.20639 19.7048 6.66139L13.9998 12.3547L8.29484 6.64972C7.83984 6.19472 7.10484 6.19472 6.64984 6.64972C6.19484 7.10472 6.19484 7.83972 6.64984 8.29472L12.3548 13.9997L6.64984 19.7047C6.19484 20.1597 6.19484 20.8947 6.64984 21.3497C7.10484 21.8047 7.83984 21.8047 8.29484 21.3497L13.9998 15.6447L19.7048 21.3497C20.1598 21.8047 20.8948 21.8047 21.3498 21.3497C21.8048 20.8947 21.8048 20.1597 21.3498 19.7047L15.6448 13.9997L21.3498 8.29472C21.7932 7.85139 21.7932 7.10472 21.3498 6.66139Z" fill="#6C6C6C"/>
</g>
</svg>
