<svg width="80" height="80" viewBox="0 0 80 80" fill="none" xmlns="http://www.w3.org/2000/svg">
<g id="Frame 4657">
<rect width="80" height="80" rx="40" fill="#FFE7EB"/>
<g id="Group 4859">
<path id="Vector" d="M26.7524 51.7341C25.6959 51.8312 24.8666 52.7112 24.8666 53.7898V58.4921C24.8666 59.1141 25.3739 59.6213 25.9959 59.6213H38.4178C39.0398 59.6213 39.5471 59.1141 39.5471 58.4921V53.7898C39.5471 52.7796 38.8126 51.9326 37.8532 51.7562V50.5034C37.8532 48.4544 36.9886 46.4715 35.4932 45.0776L26.0401 36.2794C25.3564 35.6707 24.4808 35.3531 23.5676 35.4038C23.2346 35.4214 22.9125 35.4876 22.6016 35.5957V29.9824C22.6016 28.2709 21.2076 26.877 19.4961 26.877C17.7846 26.877 16.3906 28.2709 16.3906 29.9824V40.5891C16.3906 42.2654 17.1405 43.8291 18.4506 44.8812L26.7457 51.5269V51.7343L26.7524 51.7341ZM37.2885 57.3629H27.125V53.9751H37.2885V57.3629ZM19.8684 43.1126C19.0942 42.4973 18.6553 41.5709 18.6553 40.5828V29.9784C18.6553 29.5108 19.0347 29.1315 19.5023 29.1315C19.9699 29.1315 20.3492 29.5108 20.3492 29.9784V38.1656C20.3492 38.2097 20.3558 38.256 20.3602 38.3001C20.3272 38.5317 20.3161 38.7633 20.3272 38.9993C20.3713 39.9147 20.7727 40.755 21.4564 41.3659L26.6506 46.0462C27.1138 46.4631 27.8306 46.4256 28.2474 45.9624C28.6643 45.4993 28.6268 44.7825 28.1636 44.3656L22.9695 39.6853C22.7379 39.4757 22.6033 39.189 22.5857 38.878C22.568 38.567 22.6761 38.2693 22.8856 38.0377C23.0952 37.8061 23.3819 37.6715 23.6929 37.6539C24.0039 37.6429 24.3016 37.7443 24.5222 37.9428L33.9578 46.728C35.0033 47.6985 35.601 49.077 35.601 50.4996V51.7126H29.0106V50.9781C29.0106 50.6341 28.8518 50.312 28.5871 50.0981L19.8684 43.1126Z" fill="#EF3A5D"/>
<path id="Vector_2" d="M61.2847 26.8733C59.5732 26.8733 58.1793 28.2673 58.1793 29.9788V35.592C57.8749 35.484 57.5528 35.4178 57.2132 35.4002C56.3045 35.3494 55.4223 35.6648 54.7297 36.2868L45.2941 45.0719C43.7921 46.4725 42.9341 48.4487 42.9341 50.4977V51.7505C41.9747 51.9314 41.2402 52.7717 41.2402 53.7841V58.4865C41.2402 59.1085 41.7475 59.6157 42.3695 59.6157H54.7914C55.4134 59.6157 55.9207 59.1084 55.9207 58.4865V53.7841C55.9207 52.7056 55.0914 51.8255 54.035 51.7285V51.5146L62.33 44.8688C63.6401 43.819 64.39 42.2552 64.39 40.5767V29.9785C64.39 28.2692 62.9963 26.8733 61.2847 26.8733ZM53.6622 57.3635H43.4988V53.9757H53.6622V57.3635ZM62.1317 40.59C62.1317 41.5781 61.6906 42.4978 60.9186 43.1198L52.2001 50.0981C51.9354 50.312 51.7766 50.6341 51.7766 50.9781V51.717H45.193V50.504C45.193 49.0748 45.7907 47.7029 46.8362 46.7324L56.2605 37.963C56.4921 37.7535 56.7854 37.6477 57.1009 37.6631C57.4118 37.6807 57.6986 37.8153 57.9081 38.0469C58.1176 38.2785 58.2235 38.5784 58.2081 38.8872C58.1904 39.1982 58.0559 39.4849 57.8243 39.6945L52.6301 44.3748C52.1669 44.7916 52.1272 45.504 52.5463 45.9716C52.9632 46.4348 53.6756 46.4745 54.1431 46.0554L59.3373 41.3751C60.021 40.7664 60.4159 39.9238 60.4666 39.0085C60.4776 38.7703 60.4666 38.5343 60.4335 38.3093C60.4401 38.2652 60.4445 38.2189 60.4445 38.1748V29.9876C60.4445 29.52 60.8239 29.1406 61.2915 29.1406C61.7591 29.1406 62.1384 29.52 62.1384 29.9876V40.5897L62.1317 40.59Z" fill="#EF3A5D"/>
<path id="Vector_3" d="M40.4846 21.8819C39.0289 20.724 35.8087 18.719 32.478 20.3512C30.1291 21.4981 28.6954 23.9707 28.83 26.6458C28.9932 29.9895 30.9805 35.0577 39.5293 40.2585C39.7101 40.3666 39.913 40.4217 40.116 40.4217C40.3189 40.4217 40.5218 40.3644 40.7027 40.2585C50.7317 34.1599 52.0462 28.7056 52.1478 26.6458C52.2779 23.9704 50.8443 21.4957 48.4998 20.3512C45.1605 18.7257 41.9402 20.7262 40.4846 21.8819ZM49.8846 26.5401C49.8228 27.8392 48.9252 32.44 40.1113 37.9672C32.9055 33.428 31.2116 29.2594 31.084 26.5401C31.0001 24.7955 31.9596 23.1236 33.466 22.3848C34.0086 22.1201 34.5556 22.012 35.0982 22.012C37.4979 22.012 39.6549 24.1515 39.677 24.1801C39.8865 24.394 40.1799 24.5198 40.4799 24.5198C40.7798 24.5198 41.0732 24.4007 41.2827 24.1867C41.3158 24.1536 44.5404 20.9511 47.4937 22.3913C49.0111 23.1258 49.9706 24.7911 49.8846 26.5401Z" fill="#EF3A5D"/>
</g>
</g>
</svg>
