<svg width="101" height="100" viewBox="0 0 101 100" fill="none" xmlns="http://www.w3.org/2000/svg">
<g id="Frame 4657">
<rect x="0.5" width="100" height="100" rx="50" fill="#ECE8FF"/>
<g id="Group 4852">
<path id="Vector" d="M52.9499 56.1996C52.7975 56.2002 52.647 56.166 52.5099 56.0996C52.3915 56.042 52.2857 55.9616 52.1985 55.863C52.1113 55.7644 52.0444 55.6496 52.0016 55.5251C51.9589 55.4006 51.9412 55.2689 51.9494 55.1375C51.9577 55.0062 51.9918 54.8777 52.0499 54.7596C53.4412 52.0529 54.4701 49.1749 55.1099 46.1996C55.1482 45.9629 55.2702 45.748 55.4538 45.5938C55.6373 45.4396 55.8702 45.3565 56.1099 45.3596C57.2999 45.3596 60.6299 45.0996 62.0099 43.3596C62.2099 42.6196 62.2399 41.6696 62.0099 41.4896C60.4207 40.8185 58.7599 40.332 57.0599 40.0396C56.8906 40 56.7331 39.9212 56.5999 39.8096C55.9446 39.1883 55.1996 38.6691 54.3899 38.2696C53.5499 38.1096 49.2299 37.5196 47.7299 40.8496C46.0899 44.4496 44.8099 45.6096 41.7999 48.0996C41.7039 48.2056 41.5862 48.2898 41.4549 48.3465C41.3236 48.4031 41.1817 48.431 41.0387 48.4282C40.8957 48.4253 40.755 48.3918 40.626 48.33C40.4971 48.2681 40.3829 48.1793 40.2912 48.0695C40.1995 47.9598 40.1324 47.8316 40.0945 47.6937C40.0565 47.5558 40.0486 47.4114 40.0712 47.2702C40.0938 47.129 40.1465 46.9942 40.2256 46.8751C40.3047 46.756 40.4085 46.6552 40.5299 46.5796C43.4699 44.1296 44.4699 43.2096 45.9099 40.0396C48.0299 35.3496 53.6599 36.1096 54.7599 36.3096C55.8739 36.7092 56.8947 37.3319 57.7599 38.1396C59.6217 38.4689 61.4333 39.037 63.1499 39.8296C64.8899 40.9996 64.0399 43.8296 63.9399 44.1296C63.9053 44.2254 63.8583 44.3162 63.7999 44.3996C62.0999 46.7896 58.5899 47.2496 56.9699 47.3396C56.2563 50.2111 55.2267 52.9948 53.8999 55.6396C53.8138 55.8158 53.6779 55.9628 53.509 56.0624C53.3401 56.1619 53.1457 56.2096 52.9499 56.1996Z" fill="#764BE2"/>
<path id="Vector_2" d="M52.4193 48.0009C51.7423 47.883 51.1293 47.5286 50.6893 47.0009C50.2793 46.6509 49.6893 46.1109 49.3093 46.1009C48.312 46.168 47.3257 45.8593 46.5447 45.2355C45.7637 44.6118 45.2444 43.7183 45.0893 42.7309C45.0322 42.4657 45.0829 42.1887 45.2301 41.9608C45.3773 41.7329 45.609 41.5729 45.8743 41.5159C46.1395 41.4589 46.4165 41.5095 46.6443 41.6567C46.8722 41.804 47.0322 42.0357 47.0893 42.3009C47.3793 43.5809 48.0093 44.0609 49.4093 44.1009C50.4274 44.2487 51.3634 44.7432 52.0593 45.5009C52.446 43.9521 52.2391 42.3147 51.4793 40.9109C51.4093 40.7709 51.3493 40.6609 51.3193 40.5809C51.2198 40.3342 51.2224 40.0582 51.3265 39.8134C51.4306 39.5687 51.6276 39.3753 51.8743 39.2759C52.1209 39.1764 52.397 39.179 52.6417 39.2831C52.8864 39.3872 53.0798 39.5842 53.1793 39.8309L53.2593 40.0009C53.8111 41.044 54.1429 42.1893 54.234 43.3659C54.3252 44.5425 54.1738 45.7252 53.7893 46.8409C53.7339 47.0914 53.6117 47.3223 53.4356 47.5089C53.2595 47.6956 53.0362 47.831 52.7893 47.9009C52.6723 47.9545 52.5473 47.9883 52.4193 48.0009Z" fill="#764BE2"/>
<path id="Vector_3" d="M67.97 81.0007H33.09C31.74 81.0007 30.4454 80.4644 29.4908 79.5099C28.5363 78.5553 28 77.2607 28 75.9107V31.5607C28 30.2108 28.5363 28.9161 29.4908 27.9615C30.4454 27.007 31.74 26.4707 33.09 26.4707H40.63C40.8952 26.4707 41.1496 26.5761 41.3371 26.7636C41.5246 26.9511 41.63 27.2055 41.63 27.4707C41.63 27.7359 41.5246 27.9903 41.3371 28.1778C41.1496 28.3653 40.8952 28.4707 40.63 28.4707H33.09C32.2705 28.4707 31.4845 28.7963 30.905 29.3757C30.3256 29.9552 30 30.7412 30 31.5607V75.9107C30 76.7302 30.3256 77.5162 30.905 78.0957C31.4845 78.6751 32.2705 79.0007 33.09 79.0007H67.97C68.7895 79.0007 69.5755 78.6751 70.155 78.0957C70.7344 77.5162 71.06 76.7302 71.06 75.9107V31.5607C71.06 30.7412 70.7344 29.9552 70.155 29.3757C69.5755 28.7963 68.7895 28.4707 67.97 28.4707H60.43C60.1648 28.4707 59.9104 28.3653 59.7229 28.1778C59.5354 27.9903 59.43 27.7359 59.43 27.4707C59.43 27.2055 59.5354 26.9511 59.7229 26.7636C59.9104 26.5761 60.1648 26.4707 60.43 26.4707H67.97C69.32 26.4707 70.6146 27.007 71.5692 27.9615C72.5237 28.9161 73.06 30.2108 73.06 31.5607V75.9107C73.06 77.2607 72.5237 78.5553 71.5692 79.5099C70.6146 80.4644 69.32 81.0007 67.97 81.0007Z" fill="#764BE2"/>
<path id="Vector_4" d="M60.4399 32.1305H40.6299C40.3647 32.1305 40.1103 32.0251 39.9228 31.8376C39.7352 31.65 39.6299 31.3957 39.6299 31.1305V26.4605C39.6325 25.4932 40.0179 24.5664 40.7019 23.8824C41.3858 23.1985 42.3127 22.8131 43.2799 22.8105H45.8299C46.0589 21.7324 46.6512 20.7657 47.5076 20.0721C48.3641 19.3785 49.4328 19 50.5349 19C51.637 19 52.7057 19.3785 53.5621 20.0721C54.4186 20.7657 55.0109 21.7324 55.2399 22.8105H57.7899C58.7571 22.8131 59.684 23.1985 60.3679 23.8824C61.0518 24.5664 61.4372 25.4932 61.4399 26.4605V31.1305C61.4399 31.3957 61.3345 31.65 61.147 31.8376C60.9595 32.0251 60.7051 32.1305 60.4399 32.1305ZM41.6299 30.1305H59.4399V26.4605C59.4399 26.0229 59.266 25.6032 58.9566 25.2937C58.6472 24.9843 58.2275 24.8105 57.7899 24.8105H54.3399C54.0747 24.8105 53.8203 24.7051 53.6328 24.5176C53.4452 24.33 53.3399 24.0757 53.3399 23.8105C53.3399 23.0652 53.0438 22.3505 52.5169 21.8235C51.9899 21.2965 51.2751 21.0005 50.5299 21.0005C49.7846 21.0005 49.0699 21.2965 48.5429 21.8235C48.0159 22.3505 47.7199 23.0652 47.7199 23.8105C47.7199 24.0757 47.6145 24.33 47.427 24.5176C47.2395 24.7051 46.9851 24.8105 46.7199 24.8105H43.2799C42.8423 24.8105 42.4226 24.9843 42.1132 25.2937C41.8037 25.6032 41.6299 26.0229 41.6299 26.4605V30.1305Z" fill="#764BE2"/>
<path id="Vector_5" d="M39.7197 71.9409C39.4545 71.9409 39.2002 71.8356 39.0126 71.648C38.8251 71.4605 38.7197 71.2062 38.7197 70.9409V62.2109C38.7197 61.9457 38.8251 61.6914 39.0126 61.5038C39.2002 61.3163 39.4545 61.2109 39.7197 61.2109C39.9849 61.2109 40.2393 61.3163 40.4268 61.5038C40.6144 61.6914 40.7197 61.9457 40.7197 62.2109V70.9409C40.7197 71.2062 40.6144 71.4605 40.4268 71.648C40.2393 71.8356 39.9849 71.9409 39.7197 71.9409Z" fill="#764BE2"/>
<path id="Vector_6" d="M44.0896 67.5801H35.3496C35.0844 67.5801 34.83 67.4747 34.6425 67.2872C34.455 67.0996 34.3496 66.8453 34.3496 66.5801C34.3496 66.3149 34.455 66.0605 34.6425 65.873C34.83 65.6854 35.0844 65.5801 35.3496 65.5801H44.0896C44.3548 65.5801 44.6092 65.6854 44.7967 65.873C44.9843 66.0605 45.0896 66.3149 45.0896 66.5801C45.0896 66.8453 44.9843 67.0996 44.7967 67.2872C44.6092 67.4747 44.3548 67.5801 44.0896 67.5801Z" fill="#764BE2"/>
<path id="Vector_7" d="M65.71 62.2891H56.71C56.4447 62.2891 56.1904 62.1837 56.0029 61.9962C55.8153 61.8086 55.71 61.5543 55.71 61.2891C55.71 61.0238 55.8153 60.7695 56.0029 60.582C56.1904 60.3944 56.4447 60.2891 56.71 60.2891H65.71C65.9752 60.2891 66.2295 60.3944 66.4171 60.582C66.6046 60.7695 66.71 61.0238 66.71 61.2891C66.71 61.5543 66.6046 61.8086 66.4171 61.9962C66.2295 62.1837 65.9752 62.2891 65.71 62.2891Z" fill="#764BE2"/>
<path id="Vector_8" d="M52.7994 62.2891H48.8594C48.5942 62.2891 48.3398 62.1837 48.1523 61.9962C47.9647 61.8086 47.8594 61.5543 47.8594 61.2891C47.8594 61.0238 47.9647 60.7695 48.1523 60.582C48.3398 60.3944 48.5942 60.2891 48.8594 60.2891H52.7994C53.0646 60.2891 53.3189 60.3944 53.5065 60.582C53.694 60.7695 53.7994 61.0238 53.7994 61.2891C53.7994 61.5543 53.694 61.8086 53.5065 61.9962C53.3189 62.1837 53.0646 62.2891 52.7994 62.2891Z" fill="#764BE2"/>
<path id="Vector_9" d="M65.7094 67.5801H48.8594C48.5942 67.5801 48.3398 67.4747 48.1523 67.2872C47.9647 67.0996 47.8594 66.8453 47.8594 66.5801C47.8594 66.3149 47.9647 66.0605 48.1523 65.873C48.3398 65.6854 48.5942 65.5801 48.8594 65.5801H65.7094C65.9746 65.5801 66.2289 65.6854 66.4165 65.873C66.604 66.0605 66.7094 66.3149 66.7094 66.5801C66.7094 66.8453 66.604 67.0996 66.4165 67.2872C66.2289 67.4747 65.9746 67.5801 65.7094 67.5801Z" fill="#764BE2"/>
<path id="Vector_10" d="M65.7097 72.8594H60.4697C60.2045 72.8594 59.9502 72.754 59.7626 72.5665C59.5751 72.3789 59.4697 72.1246 59.4697 71.8594C59.4697 71.5942 59.5751 71.3398 59.7626 71.1523C59.9502 70.9647 60.2045 70.8594 60.4697 70.8594H65.7097C65.9749 70.8594 66.2293 70.9647 66.4168 71.1523C66.6044 71.3398 66.7097 71.5942 66.7097 71.8594C66.7097 72.1246 66.6044 72.3789 66.4168 72.5665C66.2293 72.754 65.9749 72.8594 65.7097 72.8594Z" fill="#764BE2"/>
<path id="Vector_11" d="M56.1094 72.8594H48.8594C48.5942 72.8594 48.3398 72.754 48.1523 72.5665C47.9647 72.3789 47.8594 72.1246 47.8594 71.8594C47.8594 71.5942 47.9647 71.3398 48.1523 71.1523C48.3398 70.9647 48.5942 70.8594 48.8594 70.8594H56.1094C56.3746 70.8594 56.6289 70.9647 56.8165 71.1523C57.004 71.3398 57.1094 71.5942 57.1094 71.8594C57.1094 72.1246 57.004 72.3789 56.8165 72.5665C56.6289 72.754 56.3746 72.8594 56.1094 72.8594Z" fill="#764BE2"/>
</g>
</g>
</svg>
