<svg width="24" height="20" viewBox="0 0 24 20" fill="none" xmlns="http://www.w3.org/2000/svg">
<g id="Group 4460">
<path id="Vector" d="M0 2C0 0.895008 0.895008 0 2 0H22C23.105 0 24 0.895008 24 2C24 3.10499 23.105 4 22 4H2C0.895008 4 0 3.10499 0 2ZM22 8H2C0.895008 8 0 8.89501 0 10C0 11.105 0.895008 12 2 12H22C23.105 12 24 11.105 24 10C24 8.89501 23.105 8 22 8ZM22 16H2C0.895008 16 0 16.895 0 18C0 19.105 0.895008 20 2 20H22C23.105 20 24 19.105 24 18C24 16.895 23.105 16 22 16Z" fill="#764BE2"/>
</g>
</svg>
