<svg width="32" height="32" viewBox="0 0 32 32" fill="none" xmlns="http://www.w3.org/2000/svg">
<g id="Group 4551">
<path id="Vector" d="M31.36 11.4933C31.16 10.7867 30.4133 10.3867 29.7067 10.5867C29 10.8 28.6 11.5333 28.8 12.24C29.16 13.4533 29.3333 14.7067 29.3333 15.9867C29.3333 23.3333 23.3467 29.32 16 29.32C8.65333 29.32 2.66667 23.3333 2.66667 15.9867C2.66667 8.64 8.65333 2.65333 16 2.65333C18.1067 2.65333 20.1333 3.13333 22 4.08C22.6667 4.41333 23.4533 4.14667 23.7867 3.49333C24.12 2.84 23.8533 2.04 23.2 1.70667C20.9467 0.573333 18.5333 0 16 0C7.17333 0 0 7.17333 0 16C0 24.8267 7.17333 32 16 32C24.8267 32 32 24.8267 32 16C32 14.4667 31.7867 12.96 31.36 11.5067V11.4933Z" fill="#00C983"/>
<path id="Vector_2" d="M16.0809 16.385C14.2542 14.1317 11.5476 12.3184 11.4009 12.225C10.7876 11.8117 9.96088 11.985 9.54755 12.5984C9.13422 13.2117 9.30755 14.0384 9.92088 14.4517C10.9476 15.145 13.8409 17.345 14.8009 19.2784C15.0142 19.6917 15.4142 19.9717 15.8676 20.0117C15.9076 20.0117 15.9476 20.0117 15.9876 20.0117C16.4009 20.0117 16.8009 19.8117 17.0542 19.4784C17.1342 19.3717 24.9342 9.03838 29.9209 6.53171C30.5742 6.19838 30.8409 5.39838 30.5209 4.74504C30.1876 4.09171 29.3876 3.82504 28.7342 4.14504C24.3609 6.33171 18.5209 13.305 16.0809 16.3984V16.385Z" fill="#00C983"/>
</g>
</svg>
