<svg width="34" height="34" viewBox="0 0 34 34" fill="none" xmlns="http://www.w3.org/2000/svg">
<g id="Group 4551">
<path id="Vector" d="M30.8409 15.1421L30.8408 15.1422C29.8628 7.8813 23.446 2.63855 16.1365 3.1276C8.82706 3.61693 3.16489 9.66989 3.16365 16.9956C3.1627 24.3213 8.82107 30.3806 16.1305 30.8721C23.4399 31.3637 29.8606 26.1175 30.8411 18.8575C30.9223 18.2564 31.4752 17.8357 32.076 17.9155C32.3658 17.9539 32.6284 18.105 32.8059 18.3361M30.8409 15.1421L33.0254 14.8489C31.9484 6.85354 25.1217 0.946478 17.1705 0.900106L17.1705 0.900331C16.7799 0.897859 16.3868 0.909184 15.991 0.935566L15.991 0.935569C7.5451 1.50163 0.963788 8.53089 0.9625 16.9956C0.961242 25.4602 7.53894 32.4958 15.9846 33.0633C24.4305 33.6318 31.8935 27.5373 33.0257 19.1493L33.0258 19.1487C33.0629 18.8601 32.9847 18.5673 32.8059 18.3361M30.8409 15.1421C30.8785 15.4316 31.0297 15.6935 31.26 15.8717L31.2602 15.8719C31.4924 16.0505 31.7852 16.1289 32.0751 16.0906C32.3668 16.0534 32.6308 15.9007 32.8095 15.6671L32.8095 15.667C32.9869 15.4347 33.0652 15.1393 33.0254 14.8492L30.8409 15.1421ZM32.8059 18.3361C32.8059 18.3361 32.8059 18.3362 32.8059 18.3362L32.7266 18.3971L32.8057 18.3359C32.8058 18.336 32.8058 18.336 32.8059 18.3361ZM13.0027 11.8963L13.0008 11.8963C12.707 11.8976 12.4264 12.0144 12.22 12.2235C11.7939 12.6526 11.794 13.3454 12.2202 13.7744L12.2204 13.7746L15.4451 16.9993L12.2204 20.2252L12.2201 20.2255C11.794 20.6557 11.7939 21.3487 12.2202 21.7778L12.2207 21.7782C12.6497 22.2045 13.3427 22.2045 13.7718 21.7782L13.772 21.778L16.9966 18.5521L20.2238 21.778L20.2241 21.7782C20.6531 22.2045 21.3461 22.2045 21.7751 21.7782L21.7756 21.7778C22.2019 21.3487 22.2018 20.6557 21.7757 20.2255L21.7753 20.2252L18.5482 16.9993L21.7753 13.7746L21.7756 13.7744C22.2019 13.3453 22.2019 12.6523 21.7756 12.2233C21.5693 12.0144 21.2888 11.8976 20.9963 11.8962L20.9944 11.8963C20.7049 11.9004 20.4272 12.017 20.2235 12.2234C20.2235 12.2235 20.2234 12.2235 20.2233 12.2236L16.9966 15.4478L13.7725 12.2236C13.7724 12.2235 13.7723 12.2234 13.7722 12.2233C13.5685 12.017 13.291 11.9004 13.0027 11.8963Z" fill="#EF3A5D" stroke="#EF3A5D" stroke-width="0.2"/>
</g>
</svg>
