<svg width="153" height="121" viewBox="0 0 153 121" fill="none" xmlns="http://www.w3.org/2000/svg">
<g id="Group 4369">
<path id="Vector" d="M116.545 95.9247C105.333 104.249 93.4181 111.882 80.2403 116.501C67.0625 121.122 52.4488 122.572 39.0857 118.501C27.5134 114.974 17.2797 107.345 10.3699 97.4139C3.46252 87.4825 -0.126024 75.3315 0.00338007 63.239C0.132501 51.1427 3.93517 39.1508 10.568 29.0379C17.2042 18.9233 26.6183 10.6999 37.4051 5.22629C43.7136 2.02701 50.6677 -0.27652 57.737 0.0268199C63.7203 0.285339 69.4597 2.38621 74.9854 4.69371C80.5101 7.00306 85.9898 9.55917 91.8453 10.8122C100.871 12.7435 110.231 11.4723 119.461 11.6199C124.073 11.6934 128.721 12.1324 133.134 13.4802C137.549 14.83 141.739 17.1354 144.853 20.5433C147.063 22.9596 148.684 25.8716 149.852 28.9304C152.248 35.2034 152.764 42.1234 151.735 48.7592C150.708 55.3923 148.172 61.7462 144.706 67.4934C137.774 78.9907 127.324 87.92 116.545 95.9247Z" fill="url(#paint0_linear_96_13738)"/>
<g id="Group 4368">
<g id="Group 4363">
<path id="Vector_2" d="M64.5747 52.3269C65.2747 52.1985 65.8672 51.7444 66.2404 51.0489C66.597 50.3843 66.7122 49.5714 66.5627 48.7618C66.4143 47.9522 66.0178 47.2335 65.4474 46.7395C64.8516 46.2223 64.1372 46.0085 63.4362 46.137C62.7362 46.2655 62.1437 46.7196 61.7704 47.4151C61.4138 48.0796 61.2986 48.8925 61.4482 49.7021C61.5966 50.5117 61.9931 51.2305 62.5634 51.7245C63.0463 52.1431 63.6067 52.3624 64.1749 52.3624C64.3078 52.3635 64.4418 52.3513 64.5747 52.3269Z" fill="white"/>
<path id="Vector_3" d="M67.3315 45.9128C67.8211 46.3725 68.4058 46.6161 69.0039 46.6161C69.108 46.6161 69.2132 46.6084 69.3184 46.594C70.0239 46.4932 70.6319 46.0624 71.0329 45.3823C71.4161 44.7322 71.5623 43.9249 71.446 43.1097C71.3286 42.2946 70.962 41.5614 70.4115 41.0453C69.8356 40.5049 69.1313 40.2634 68.4258 40.3642C67.7203 40.465 67.1122 40.8958 66.7113 41.5758C66.3281 42.2259 66.1819 43.0333 66.2982 43.8484C66.4145 44.6625 66.7811 45.3967 67.3315 45.9128Z" fill="white"/>
<path id="Vector_4" d="M75.514 46.594C75.6192 46.6095 75.7233 46.6161 75.8285 46.6161C76.4266 46.6161 77.0102 46.3725 77.5008 45.9128C78.0513 45.3967 78.4179 44.6636 78.5353 43.8484C78.6527 43.0333 78.5054 42.2259 78.1222 41.5758C77.7212 40.8958 77.1121 40.4661 76.4077 40.3642C75.7022 40.2634 74.9967 40.5049 74.4219 41.0453C73.8715 41.5614 73.5049 42.2946 73.3875 43.1097C73.2701 43.9249 73.4174 44.7322 73.8006 45.3823C74.1993 46.0624 74.8085 46.4921 75.514 46.594Z" fill="white"/>
<path id="Vector_5" d="M83.0749 46.9727C82.7017 46.2772 82.1103 45.8231 81.4092 45.6946C80.7081 45.5662 79.9938 45.7799 79.3979 46.2971C78.8275 46.7911 78.4322 47.5099 78.2826 48.3195C78.1342 49.1291 78.2483 49.9409 78.6049 50.6065C78.9781 51.302 79.5696 51.7561 80.2706 51.8846C80.4035 51.9089 80.5375 51.9211 80.6716 51.9211C81.2386 51.9211 81.8001 51.7018 82.283 51.2832C82.8534 50.7892 83.2487 50.0705 83.3983 49.2609C83.5467 48.449 83.4326 47.6372 83.0749 46.9727Z" fill="white"/>
<path id="Vector_6" d="M80.0462 54.8317C79.8424 54.6312 79.6121 54.4296 79.3684 54.217C78.3838 53.3576 77.1578 52.2877 76.8322 50.4248C76.5564 48.212 74.6681 46.5439 72.433 46.5439C70.1979 46.5439 68.3097 48.2119 68.035 50.4248C67.7094 52.2877 66.4833 53.3576 65.4987 54.217C65.254 54.4296 65.0236 54.6312 64.8209 54.8306C64.8088 54.8428 64.7966 54.8549 64.7855 54.866C63.9449 55.7033 63.4819 56.8186 63.4819 58.0046C63.4819 60.4478 65.4699 62.437 67.9143 62.437C68.8402 62.437 69.5678 62.138 69.9189 61.9586L69.9255 61.9552C71.5193 61.2331 73.3454 61.2331 74.9394 61.9552C74.9438 61.9574 74.9472 61.9586 74.9505 61.9608C74.956 61.963 74.9638 61.9674 74.9749 61.9729C75.5973 62.2808 76.2618 62.4381 76.9507 62.4381C79.3939 62.4381 81.383 60.4501 81.383 58.0057C81.383 56.8196 80.9201 55.7043 80.0806 54.8671C80.0695 54.8549 80.0573 54.8428 80.0462 54.8317Z" fill="white"/>
</g>
<path id="Vector_7" fill-rule="evenodd" clip-rule="evenodd" d="M72.2116 28.5391C59.9368 28.5391 49.9507 38.5247 49.9507 50.8C49.9507 63.0753 59.9363 73.061 72.2116 73.061C84.4869 73.061 94.4726 63.0753 94.4726 50.8C94.4726 38.5247 84.4869 28.5391 72.2116 28.5391ZM72.2116 31.7192C82.7697 31.7192 91.2924 40.242 91.2924 50.8C91.2924 61.3581 82.7697 69.8808 72.2116 69.8808C61.6536 69.8808 53.1308 61.3581 53.1308 50.8C53.1308 40.242 61.6536 31.7192 72.2116 31.7192Z" fill="white"/>
<path id="Vector_8" fill-rule="evenodd" clip-rule="evenodd" d="M72.2118 20.589C55.5438 20.589 42 34.1328 42 50.8008C42 59.6653 49.4097 71.1017 56.6286 80.7378C58.1472 82.7651 59.6538 84.6772 61.1046 86.4739C58.5128 87.2292 56.3026 88.2389 54.5655 89.4831C52.9316 90.6557 51.6755 92.0988 51.0951 93.7326H49.9502C49.0717 93.7326 48.3602 94.4441 48.3602 95.3227C48.3602 96.2012 49.0717 96.9127 49.9502 96.9127H50.8765C51.1428 98.1808 51.8106 99.3495 52.7289 100.347C53.9294 101.655 55.5552 102.732 57.4911 103.627C61.0012 105.245 65.5687 106.246 70.6208 106.421V108.043C70.6208 108.922 71.3323 109.633 72.2108 109.633C73.0894 109.633 73.8009 108.922 73.8009 108.043V106.421C78.8574 106.246 83.4208 105.245 86.9305 103.627C88.8704 102.732 90.4923 101.655 91.6928 100.347C92.6111 99.3495 93.2749 98.1808 93.5452 96.9127H94.4714C95.3499 96.9127 96.0615 96.2012 96.0615 95.3227C96.0615 94.4441 95.3499 93.7326 94.4714 93.7326H93.3306C92.7581 92.0948 91.5059 90.6519 89.8722 89.4791C88.139 88.2309 85.9249 87.2172 83.3251 86.462C84.7721 84.6693 86.2746 82.7651 87.7892 80.7418C95.0121 71.1019 102.422 59.6653 102.422 50.8007C102.422 34.1327 88.8781 20.5889 72.2101 20.5889L72.2118 20.589ZM72.2118 23.7691C87.1589 23.7691 99.2424 35.8536 99.2424 50.7997C99.2424 57.7443 92.3416 69.3636 85.2498 78.8328C79.0804 87.0694 73.7138 92.9129 72.2118 94.535C70.7091 92.9131 65.3427 87.0697 59.1737 78.8328C52.082 69.3639 45.1812 57.7441 45.1812 50.7997C45.1812 35.8526 57.2657 23.7691 72.2118 23.7691ZM81.1201 89.1608C84.0538 89.8764 86.427 90.9139 88.021 92.0588C88.8041 92.6193 89.3685 93.1838 89.766 93.7323H89.7024C88.8239 93.7323 88.1124 94.4438 88.1124 95.3223C88.1124 96.2009 88.8239 96.9124 89.7024 96.9124H90.2351C90.0522 97.3258 89.7621 97.7512 89.3566 98.1964C88.5457 99.0789 87.2617 99.9772 85.6001 100.74C82.6187 102.112 78.4528 103.058 73.8015 103.237C73.7816 102.374 73.0741 101.683 72.2114 101.683C71.3488 101.683 70.6452 102.374 70.6253 103.237C65.9704 103.058 61.8044 102.112 58.8227 100.74C57.1651 99.9772 55.8772 99.0789 55.0662 98.1964C54.6568 97.7512 54.3705 97.3298 54.1877 96.9124H54.7204C55.5989 96.9124 56.3104 96.2009 56.3104 95.3223C56.3104 94.4438 55.5989 93.7323 54.7204 93.7323H54.6727C55.0741 93.1837 55.6386 92.6272 56.4177 92.0667C58.0117 90.9219 60.3889 89.8883 63.3186 89.1768C67.7111 94.4479 71.0582 98.0057 71.0582 98.0057C71.6863 98.6695 72.7397 98.6695 73.3678 98.0057C73.3678 98.0057 76.7236 94.4398 81.1201 89.1608Z" fill="white"/>
</g>
</g>
<defs>
<linearGradient id="paint0_linear_96_13738" x1="106.277" y1="-2.53077" x2="37.5598" y2="119.06" gradientUnits="userSpaceOnUse">
<stop stop-color="#FFA5B6"/>
<stop offset="1" stop-color="#764BE2"/>
</linearGradient>
</defs>
</svg>
