<svg width="100" height="100" viewBox="0 0 100 100" fill="none" xmlns="http://www.w3.org/2000/svg">
<g id="Frame 4657">
<rect width="100" height="100" rx="50" fill="#DAFFF2"/>
<path id="Vector" fill-rule="evenodd" clip-rule="evenodd" d="M52.3638 50.1356C56.0923 50.1356 59.6694 48.6532 62.3064 46.0187C64.9408 43.3817 66.4231 39.8043 66.4231 36.0758C66.4231 32.3471 64.9408 28.7699 62.3064 26.1328C59.6694 23.4983 56.0922 22.0159 52.3638 22.0159C48.6353 22.0159 45.0582 23.4983 42.4213 26.1328C39.7869 28.7698 38.3045 32.3472 38.3045 36.0758C38.3045 39.8044 39.7869 43.3816 42.4213 46.0187C45.0582 48.6532 48.6355 50.1356 52.3638 50.1356ZM68.1882 48.2549C69.1714 47.5036 70.5605 47.5944 71.4378 48.4692L79.2777 56.3095C80.2408 57.275 80.2408 58.8356 79.2777 59.8012L76.0887 62.9903C75.1232 63.9534 73.5627 63.9534 72.5971 62.9903L64.7572 55.1501C63.8824 54.2727 63.7917 52.8836 64.5429 51.9004L61.7623 49.1196C59.3069 50.8945 56.3977 51.9357 53.3725 52.1222V75.9108C53.3675 78.1672 51.5398 79.995 49.2835 80H24.089C21.8327 79.995 20.005 78.1672 20 75.9108V40.4341C20.005 38.1752 21.8327 36.3474 24.089 36.3424H36.2903C36.2046 31.1792 38.6045 26.2884 42.7415 23.1976C46.8784 20.1068 52.2478 19.1916 57.1739 20.737C62.0998 22.2824 65.987 26.0994 67.6185 31.0001C69.247 35.8986 68.4252 41.2839 65.4076 45.4738L68.1882 48.2549ZM69.3706 49.8961V49.8936C69.547 49.7197 69.8344 49.7197 70.0109 49.8936L77.8508 57.7339C78.0273 57.9129 78.0273 58.1978 77.8508 58.3768L74.6643 61.5634C74.4853 61.7374 74.2005 61.7374 74.0215 61.5634L66.1815 53.7231C66.0076 53.5441 66.0076 53.2593 66.1815 53.0828L69.368 49.8961L69.3706 49.8961ZM56.5335 33.3779C56.5335 33.935 56.0823 34.3863 55.5252 34.3863C54.968 34.3863 54.5168 33.935 54.5168 33.3779C54.5168 31.8652 52.1219 31.0912 50.7832 32.2333C49.5075 33.3224 50.5084 35.067 52.3638 35.067C54.5369 35.067 56.5335 36.6149 56.5335 38.773C56.5335 40.5882 55.1066 41.9849 53.3722 42.3706V43.6614C53.3722 44.2185 52.9209 44.6698 52.3638 44.6698C51.8067 44.6698 51.3554 44.2185 51.3554 43.6614V42.3706C49.621 41.9874 48.1942 40.5882 48.1942 38.773C48.1942 38.2158 48.6454 37.7646 49.2025 37.7646C49.7597 37.7646 50.2109 38.2158 50.2109 38.773C50.2109 40.2857 52.6058 41.0596 53.9445 39.9175C55.2201 38.8284 54.2193 37.0839 52.3639 37.0839C50.1933 37.0839 48.1942 35.536 48.1942 33.3779C48.1942 31.5627 49.6211 30.166 51.3555 29.7803V28.4895C51.3555 27.9324 51.8067 27.4811 52.3639 27.4811C52.921 27.4811 53.3723 27.9324 53.3723 28.4895V29.7803C55.1067 30.1635 56.5335 31.5627 56.5335 33.3779ZM52.3639 23.4072C55.7243 23.4072 58.946 24.7433 61.3209 27.1182C63.6957 29.493 65.0318 32.715 65.0318 36.0756C65.0318 39.4363 63.6957 42.658 61.3209 45.0331C58.9462 47.4079 55.7244 48.7441 52.3639 48.7441C49.0034 48.7441 45.7818 47.4079 43.4068 45.0331C41.0321 42.6582 39.6959 39.4363 39.6959 36.0756C39.6959 32.715 41.0321 29.4932 43.4068 27.1182C45.7816 24.7433 49.0034 23.4072 52.3639 23.4072ZM52.3639 25.424C55.1874 25.424 57.8974 26.5459 59.894 28.5451C61.8932 30.5418 63.015 33.252 63.015 36.0756C63.015 38.8992 61.8931 41.6093 59.894 43.606C57.8974 45.6053 55.1874 46.7271 52.3639 46.7271C49.5404 46.7271 46.8304 45.6052 44.8337 43.606C42.8346 41.6093 41.7128 38.8992 41.7128 36.0756C41.7128 33.252 42.8346 30.5418 44.8337 28.5451C46.8304 26.5458 49.5379 25.424 52.3639 25.424ZM36.4491 38.3597C36.5525 39.0883 36.7062 39.8118 36.9104 40.5203H25.1828C24.6257 40.5203 24.1744 40.9716 24.1744 41.5287V49.7627V49.7601C24.1744 50.0274 24.2828 50.2845 24.4719 50.4736C24.661 50.6627 24.9156 50.7686 25.1828 50.7686H45.832C47.5765 51.5476 49.4471 52.004 51.3555 52.1224V75.9111C51.3504 77.0531 50.4252 77.9784 49.2833 77.9834H24.0887C22.9468 77.9783 22.0216 77.0531 22.0165 75.9111V40.4343C22.0216 39.2898 22.9468 38.3645 24.0887 38.3595L36.4491 38.3597ZM64.1218 47.0396L66.7462 49.6641L65.952 50.4582L63.3277 47.8338L64.1218 47.0396ZM42.4768 48.7514H26.1916V42.5369H37.6392C38.7131 44.9748 40.3744 47.1127 42.4768 48.7514ZM44.0146 61.2785H44.0121C43.455 61.2785 43.0037 61.7323 43.0037 62.287V74.8167C43.0037 75.0839 43.1096 75.3385 43.2987 75.5276C43.4877 75.7192 43.7449 75.8251 44.0121 75.8251H48.1894C48.4566 75.8251 48.7112 75.7192 48.9003 75.5276C49.0894 75.3386 49.1978 75.0839 49.1978 74.8167V62.287C49.1978 62.0197 49.0894 61.7651 48.9003 61.576C48.7113 61.3869 48.4566 61.2785 48.1894 61.2785L44.0146 61.2785ZM47.1809 63.2954H45.0204V73.8057H47.1784L47.1809 63.2954ZM34.5988 69.6309C34.0417 69.6309 33.5904 70.0821 33.5904 70.6393V74.8167C33.5904 75.084 33.6963 75.3386 33.8854 75.5277C34.0745 75.7168 34.3316 75.8252 34.5988 75.8252H38.7736C39.0408 75.8252 39.298 75.7168 39.4871 75.5277C39.6761 75.3386 39.782 75.084 39.782 74.8167V70.6393C39.782 70.3721 39.6761 70.1149 39.4871 69.9258C39.298 69.7367 39.0408 69.6308 38.7736 69.6308L34.5988 69.6309ZM37.7651 71.6477H35.6072V73.8058H37.7651V71.6477ZM25.183 69.6309C24.6259 69.6309 24.1746 70.0821 24.1746 70.6393V74.8167C24.1746 75.084 24.2831 75.3386 24.4721 75.5277C24.6612 75.7168 24.9158 75.8252 25.1831 75.8252H29.3603C29.6276 75.8252 29.8847 75.7168 30.0738 75.5277C30.2629 75.3386 30.3687 75.084 30.3687 74.8167V70.6393C30.3687 70.3721 30.2629 70.1149 30.0738 69.9258C29.8847 69.7367 29.6276 69.6308 29.3603 69.6308L25.183 69.6309ZM28.3493 71.6477H26.1914V73.8058L28.3519 73.8083V71.6477H28.3493ZM34.5963 61.2788H34.5988C34.0417 61.2788 33.5904 61.7326 33.5904 62.2872V66.4647C33.5904 66.7319 33.6963 66.9891 33.8854 67.1782C34.0745 67.3672 34.3316 67.4731 34.5989 67.4731H38.7736C39.0408 67.4731 39.298 67.3672 39.4871 67.1782C39.6761 66.9891 39.782 66.7319 39.782 66.4647V62.2872C39.782 62.02 39.6761 61.7654 39.4871 61.5763C39.298 61.3872 39.0409 61.2788 38.7736 61.2788L34.5963 61.2788ZM37.7626 63.2957H35.6072V65.4537H37.7652V63.2957H37.7626ZM25.1805 61.2788H25.183C24.6259 61.2788 24.1747 61.7326 24.1747 62.2872V66.4647C24.1747 66.7319 24.2831 66.9891 24.4721 67.1782C24.6612 67.3672 24.9158 67.4731 25.1831 67.4731H29.3603C29.6276 67.4731 29.8847 67.3672 30.0738 67.1782C30.2629 66.9891 30.3687 66.7319 30.3687 66.4647V62.2872C30.3687 62.02 30.2629 61.7654 30.0738 61.5763C29.8847 61.3871 29.6276 61.2788 29.3603 61.2788L25.1805 61.2788ZM28.3468 63.2957H26.1914V65.4537L28.3519 65.4563V63.2957L28.3468 63.2957ZM44.0073 52.9267L44.0124 52.9292C43.4552 52.9292 43.004 53.3805 43.004 53.9377V58.1126C43.004 58.3798 43.1099 58.637 43.2989 58.8261C43.488 59.0152 43.7451 59.1211 44.0124 59.1211H48.1897C48.4569 59.1211 48.7115 59.0152 48.9006 58.8261C49.0897 58.637 49.1981 58.3799 49.1981 58.1126V53.9377C49.1981 53.6704 49.0897 53.4133 48.9006 53.2242C48.7115 53.0351 48.4569 52.9292 48.1897 52.9292L44.0073 52.9267ZM47.1736 54.9436L45.0208 54.9461V57.1042H47.1787L47.1813 54.9461L47.1736 54.9436ZM25.1782 52.9267L25.1858 52.9292C24.6286 52.9292 24.1774 53.3805 24.1774 53.9377V58.1126C24.1774 58.3798 24.2832 58.637 24.4723 58.8261C24.6614 59.0152 24.9185 59.1211 25.1858 59.1211H29.3605C29.6278 59.1211 29.8849 59.0152 30.074 58.8261C30.2631 58.637 30.3689 58.3799 30.3689 58.1126V53.9377C30.3689 53.6704 30.2631 53.4133 30.074 53.2242C29.8849 53.0351 29.6278 52.9292 29.3605 52.9292L25.1782 52.9267ZM28.3445 54.9436L26.1916 54.9461V57.1042H28.3521V54.9461L28.3445 54.9436ZM34.5915 52.9267L34.599 52.9292C34.0419 52.9292 33.5906 53.3805 33.5906 53.9377V58.1126C33.5906 58.3798 33.6965 58.637 33.8856 58.8261C34.0747 59.0152 34.3318 59.1211 34.5991 59.1211H38.7738C39.041 59.1211 39.2982 59.0152 39.4873 58.8261C39.6763 58.637 39.7822 58.3799 39.7822 58.1126V53.9377C39.7822 53.6704 39.6763 53.4133 39.4873 53.2242C39.2982 53.0351 39.0411 52.9292 38.7738 52.9292L34.5915 52.9267ZM37.7578 54.9436L35.6074 54.9461V57.1042H37.7654L37.7578 54.9436Z" fill="#00C983"/>
</g>
</svg>
