<svg width="80" height="80" viewBox="0 0 80 80" fill="none" xmlns="http://www.w3.org/2000/svg">
<g id="Frame 4657">
<rect width="80" height="80" rx="40" fill="#DAFFF2"/>
<path id="Vector" d="M29.1866 56.8691C29.0278 56.4608 29.2206 56.0072 29.6289 55.8484C30.0372 55.6896 30.4909 55.8824 30.6497 56.2907C31.0693 57.3568 33.4737 57.3568 34.4945 56.0412C34.744 55.7123 34.8574 55.3493 34.7667 55.0318C34.4945 54.0791 33.3376 54.2038 32.1808 54.3172C30.3661 54.4987 28.5401 54.6915 27.905 52.4572C27.6668 51.6179 27.8936 50.7559 28.4494 50.0414C28.8123 49.5764 29.3227 49.1681 29.9351 48.8732L29.7423 48.1814C29.6176 47.739 29.8784 47.3081 30.3434 47.1833C30.7631 47.0812 31.1941 47.3307 31.3075 47.7617L31.4776 48.4422C33.0087 48.2721 34.676 48.9186 35.0956 50.427C35.1183 50.4951 35.1296 50.5745 35.1296 50.6425C35.1296 51.5385 33.8253 51.7767 33.5645 50.824C33.4624 50.5178 33.1902 50.2796 32.8159 50.1435C31.2167 49.5424 29.1072 50.8807 29.4361 52.0262C29.7083 52.9789 30.8651 52.8542 32.022 52.7407C33.8367 52.5593 35.6627 52.3665 36.2865 54.6008C36.5247 55.4401 36.2978 56.302 35.7421 57.0166C35.3792 57.4816 34.8688 57.9012 34.245 58.1848L34.4264 58.8993C34.5285 59.3189 34.2903 59.7386 33.8707 59.852C33.4511 59.9654 33.0087 59.7272 32.884 59.2849L32.6912 58.6044C31.2848 58.7632 29.7196 58.2188 29.1866 56.8691ZM60.6825 36.3633C60.2969 36.1591 60.1608 35.6714 60.3763 35.2858C60.5918 34.9002 61.0682 34.7641 61.4538 34.9683C67.2948 38.178 68.4516 45.8336 63.5747 50.4384C61.5445 52.3551 58.7204 53.4439 55.6808 53.2851L50.6791 60.782C50.5657 60.9408 50.4069 61.0542 50.2255 61.1109L24.6385 67.9727C24.2189 68.0861 23.7766 67.8366 23.6631 67.4056L17.9809 46.1512C17.8675 45.7316 18.117 45.3006 18.548 45.1758L27.8709 42.6806H14.7939C14.3516 42.6806 14 42.329 14 41.8867V18.795C14 18.3299 14.3629 17.9784 14.862 18.001H57.9832C58.4142 18.001 58.7771 18.3526 58.7771 18.795V41.8867C58.7771 42.329 58.4255 42.6806 57.9832 42.6806H53.3898L57.7791 44.8469C59.1854 45.5501 59.6731 47.3081 58.7885 48.635L56.747 51.6973C61.2496 51.4818 65.0491 47.9886 65.0491 43.4746C65.0378 40.4463 63.3025 37.8037 60.6825 36.3633ZM53.9342 53.047C52.9815 52.8428 52.0742 52.5026 51.2235 52.0489C49.1594 54.0677 45.6661 53.115 44.9175 50.3136C44.3731 48.2948 45.5754 46.2193 47.5942 45.6748C49.613 45.1304 51.6886 46.344 52.233 48.3515C52.4484 49.1681 52.3917 49.9847 52.0969 50.7106C52.9588 51.1529 53.9002 51.4478 54.8869 51.6066L57.4615 47.7504C57.8017 47.24 57.6203 46.5482 57.0645 46.2646L44.2484 39.9246L34.1429 42.6353C34.1089 42.6466 34.0862 42.6466 34.0635 42.6579L19.7162 46.5141L25.0015 66.2261L49.5336 59.6479L53.9342 53.047ZM49.8285 51.1529C49.2728 50.7333 48.7624 50.2569 48.3087 49.7465C48.0138 49.4176 48.0592 48.9186 48.3881 48.6237C48.717 48.3402 49.2161 48.3742 49.4996 48.7031C49.8625 49.1227 50.2822 49.5084 50.7245 49.8486C51.0988 48.2494 49.6357 46.775 48.0138 47.2173C46.1084 47.7277 45.8022 50.2796 47.4808 51.2436C48.2066 51.6633 49.1253 51.6406 49.8285 51.1529ZM33.7913 41.0928L44.135 38.3254C44.3391 38.2687 44.5546 38.3027 44.7247 38.3935L50.1801 41.0928H57.1893V19.5889H15.5878V41.1041H33.7913V41.0928ZM21.5422 33.3691C18.8543 33.3691 17.5046 30.1027 19.3987 28.2086C21.3041 26.3032 24.5591 27.6642 24.5591 30.3522C24.5705 32.0081 23.2208 33.3691 21.5422 33.3691ZM20.5328 31.3616C21.4402 32.2576 22.9826 31.6224 22.9826 30.3408C22.9826 29.0592 21.4288 28.4241 20.5328 29.3201C19.9657 29.8872 19.9657 30.7945 20.5328 31.3616ZM51.2349 33.3691C48.5469 33.3691 47.1972 30.1027 49.0913 28.2086C50.9967 26.3032 54.2631 27.6642 54.2631 30.3522C54.2518 32.0081 52.9021 33.3691 51.2349 33.3691ZM50.2141 31.3616C51.1101 32.2576 52.6639 31.6224 52.6639 30.3408C52.6639 29.0592 51.1101 28.4241 50.2141 29.3201C49.647 29.8872 49.647 30.7945 50.2141 31.3616ZM33.1789 32.371C33.1335 31.94 33.4511 31.5431 33.882 31.4977C34.3244 31.4523 34.71 31.7699 34.7554 32.2009C34.8347 33.0175 36.6154 33.5279 37.6362 32.768C37.8743 32.5978 38.0218 32.371 38.0218 32.1442C38.0218 31.441 37.1371 31.2935 36.2525 31.1348C34.71 30.8626 33.1675 30.5904 33.1675 28.5602C33.1675 27.2445 34.313 26.3145 35.5833 26.065V25.5887C35.5833 25.1463 35.9349 24.7947 36.3999 24.7947C36.8536 24.7947 37.2052 25.169 37.1938 25.6L37.1825 26.0537C38.4528 26.3032 39.6096 27.2332 39.6096 28.5602C39.6096 29.0025 39.258 29.3541 38.8157 29.3541C38.3734 29.3541 38.0218 29.0025 38.0218 28.5602C38.0218 27.7209 36.1958 27.1652 35.141 27.9364C34.9028 28.1065 34.7554 28.3334 34.7554 28.5602C34.7554 29.2634 35.64 29.4108 36.5247 29.5696C38.0671 29.8418 39.6096 30.114 39.6096 32.1442C39.6096 33.4712 38.4528 34.3898 37.1825 34.6507L37.1711 35.127C37.1711 35.5694 36.8196 35.921 36.3772 35.921C35.9349 35.921 35.5833 35.5694 35.5833 35.127V34.6507C34.4038 34.4012 33.3036 33.5846 33.1789 32.371ZM36.3886 39.2668C31.4776 39.2668 27.4853 35.2858 27.4853 30.3635C27.4853 25.4526 31.4663 21.4603 36.3886 21.4603C41.3109 21.4603 45.2918 25.4412 45.2918 30.3635C45.2918 35.2745 41.3109 39.2554 36.3886 39.2668ZM31.2167 35.5353C32.5437 36.8623 34.3697 37.6789 36.3886 37.6789C40.4262 37.6789 43.704 34.4012 43.704 30.3635C43.704 26.3259 40.4262 23.0481 36.3886 23.0481C32.3509 23.0481 29.0732 26.3259 29.0732 30.3635C29.0732 32.3823 29.8898 34.2084 31.2167 35.5353Z" fill="#00C983"/>
</g>
</svg>
