<svg width="168" height="141" viewBox="0 0 168 141" fill="none" xmlns="http://www.w3.org/2000/svg">
<g id="Group 4667">
<path id="Vector" d="M118.642 110.708C106.466 117.304 93.6971 123.121 80.1159 125.798C66.5342 128.478 51.9924 127.838 39.4584 121.951C28.6042 116.852 19.6433 107.911 14.2691 97.1774C8.89727 86.444 7.09526 73.9984 8.93246 62.1353C10.7699 50.2684 16.1965 39.0229 24.1339 30.0233C32.0749 21.0224 42.4736 14.272 53.83 10.4172C60.4715 8.16465 67.6196 6.88337 74.512 8.1797C80.3453 9.27864 85.6788 12.1533 90.7735 15.2008C95.8668 18.25 100.881 21.5353 106.448 23.5934C115.03 26.7655 124.392 26.8383 133.427 28.2868C137.941 29.0103 142.438 30.0979 146.577 32.0454C150.718 33.9951 154.502 36.8519 157.075 40.64C158.902 43.3262 160.08 46.4163 160.794 49.5867C162.256 56.0884 161.784 62.9605 159.836 69.3352C157.891 75.7074 154.504 81.5923 150.291 86.7496C141.864 97.0673 130.35 104.365 118.642 110.708Z" fill="url(#paint0_linear_151_11187)"/>
<g id="Group 4666">
<path id="Vector_2" d="M89.1463 71.2727C89.3394 72.03 89.8208 72.6524 90.4634 73.034C90.7757 73.2194 91.123 73.3459 91.4987 73.4038L117.756 77.4288C118.715 77.576 119.67 77.2366 120.323 76.5168C120.974 75.8016 121.221 74.8093 120.982 73.8716L115.849 53.7405C115.61 52.8028 114.923 52.0523 114.004 51.7334C113.09 51.4172 112.085 51.5736 111.314 52.1621L90.1938 68.2709C89.2746 68.9739 88.8639 70.1502 89.149 71.2682L89.1463 71.2727ZM112.871 55.0028L117.765 74.1963L112.369 73.3676L108.529 58.3071L112.869 54.9956L112.871 55.0028ZM105.858 60.3515L109.047 72.8586L103.931 72.0737L104.003 72.0554L101.805 63.436L105.856 60.3443L105.858 60.3515ZM99.13 65.4777L100.686 71.5798L92.7284 70.3632L99.1273 65.4822L99.13 65.4777Z" fill="white"/>
<path id="Vector_3" d="M132.676 62.6671L134.548 60.3077L137.321 61.4827C138.065 61.7961 138.926 61.4499 139.239 60.7055C139.553 59.9612 139.202 59.098 138.462 58.7874L134.663 57.1749C134.056 56.9186 133.352 57.0944 132.947 57.6126L131.075 59.9719L128.302 58.797C127.695 58.5407 126.995 58.7191 126.585 59.2347L124.71 61.5985L121.933 60.4209C121.188 60.1075 120.328 60.4537 120.014 61.198C119.724 61.8827 119.991 62.6596 120.611 63.0277C120.666 63.0599 120.725 63.0949 120.792 63.1162L124.598 64.7269C125.204 64.9831 125.904 64.8047 126.314 64.2892L128.189 61.9253L130.967 63.1029C131.573 63.3592 132.278 63.1835 132.683 62.6652L132.676 62.6671Z" fill="white"/>
<path id="Vector_4" d="M139.007 78.0615C139.623 77.5396 139.697 76.6104 139.175 75.9945L136.917 73.3439C136.495 72.8485 135.798 72.692 135.208 72.9538L133.024 73.9218L131.472 72.1011C131.05 71.6057 130.358 71.4519 129.764 71.711L127.579 72.679L126.028 70.8583C125.501 70.2397 124.577 70.1682 123.965 70.6928C123.349 71.2148 123.275 72.144 123.8 72.7553L126.063 75.4086C126.167 75.5318 126.294 75.6377 126.43 75.7183C126.828 75.9547 127.33 75.9957 127.771 75.7987L129.956 74.8307L131.507 76.6514C131.929 77.1468 132.626 77.3033 133.216 77.0415L135.4 76.0735L136.947 77.8915C137.474 78.5101 138.398 78.5816 139.014 78.0597L139.007 78.0615Z" fill="white"/>
<path id="Vector_5" d="M131.957 43.32C131.89 42.5151 131.183 41.9118 130.379 41.9788L126.91 42.264C126.267 42.3167 125.73 42.7877 125.597 43.4247L125.109 45.7613L122.728 45.9575C122.085 46.0101 121.548 46.4812 121.415 47.1182L120.924 49.4593L118.539 49.6528C117.734 49.7198 117.13 50.4267 117.197 51.2316C117.238 51.7206 117.517 52.1373 117.91 52.371C118.164 52.5215 118.463 52.595 118.776 52.5728L122.252 52.2857C122.895 52.2331 123.432 51.7621 123.565 51.125L124.055 48.7839L126.437 48.5877C127.08 48.5351 127.617 48.0641 127.75 47.427L128.237 45.0904L130.619 44.8942C131.424 44.8273 132.027 44.1204 131.96 43.3155L131.957 43.32Z" fill="white"/>
<path id="Vector_6" d="M123.048 55.1402L122.197 55.3572C121.858 55.4436 121.651 55.7921 121.735 56.1357L121.952 56.9868C121.996 57.1599 122.104 57.2975 122.244 57.3808C122.385 57.4641 122.557 57.4931 122.73 57.4489L123.582 57.2319C123.921 57.1455 124.127 56.797 124.044 56.4534L123.827 55.6023C123.742 55.2705 123.38 55.0556 123.048 55.1402Z" fill="white"/>
<path id="Vector_7" d="M138.523 66.5733L137.672 66.7903C137.333 66.8767 137.126 67.2252 137.209 67.5687L137.426 68.4199C137.469 68.5858 137.574 68.7279 137.719 68.8139C137.864 68.8998 138.039 68.9243 138.205 68.882L139.056 68.665C139.222 68.6227 139.364 68.5173 139.45 68.3725C139.536 68.2277 139.561 68.0524 139.518 67.8865L139.301 67.0354C139.215 66.6964 138.866 66.4895 138.523 66.5733Z" fill="white"/>
<path id="Vector_8" d="M116.318 44.8257L115.467 45.0427C115.128 45.1292 114.921 45.4777 115.004 45.8212L115.221 46.6723C115.266 46.8454 115.374 46.983 115.514 47.0663C115.654 47.1496 115.827 47.1786 116 47.1345L116.851 46.9175C117.19 46.831 117.397 46.4825 117.313 46.139L117.096 45.2879C117.012 44.9561 116.649 44.7411 116.318 44.8257Z" fill="white"/>
<path id="Vector_9" d="M132.406 66.8954L131.125 66.135C130.746 65.9094 130.255 66.0346 130.029 66.4145L129.269 67.6954C129.043 68.0753 129.168 68.5662 129.548 68.7917L130.829 69.5521C131.209 69.7777 131.7 69.6525 131.925 69.2726L132.686 67.9917C132.911 67.6118 132.786 67.1209 132.406 66.8954Z" fill="white"/>
<path id="Vector_10" d="M123.856 37.9227L122.575 37.1623C122.195 36.9368 121.704 37.0619 121.478 37.4419L120.718 38.7227C120.492 39.1027 120.618 39.5935 120.997 39.8191L122.278 40.5795C122.658 40.805 123.149 40.6799 123.375 40.2999L124.135 39.0191C124.361 38.6391 124.235 38.1483 123.856 37.9227Z" fill="white"/>
<path id="Vector_11" d="M135.166 81.6512L133.885 80.8908C133.505 80.6653 133.014 80.7904 132.789 81.1704L132.028 82.4512C131.803 82.8312 131.928 83.322 132.308 83.5476L133.589 84.308C133.969 84.5335 134.46 84.4084 134.685 84.0284L135.446 82.7476C135.671 82.3676 135.546 81.8768 135.166 81.6512Z" fill="white"/>
<path id="Vector_12" d="M125.422 78.9823C125.273 78.8323 125.071 78.7493 124.856 78.7503C124.641 78.7513 124.439 78.8335 124.294 78.9858L123.238 80.0424C122.926 80.3526 122.929 80.8625 123.242 81.1707L126.394 84.3154C126.44 84.3612 126.494 84.4052 126.548 84.4374C126.67 84.51 126.811 84.5508 126.958 84.5519C127.172 84.5509 127.374 84.4688 127.52 84.3164L128.576 83.2599C128.888 82.9497 128.885 82.4397 128.572 82.1315L125.42 78.9869L125.422 78.9823Z" fill="white"/>
<path id="Vector_13" d="M134.884 49.9473L134.156 48.6463C133.943 48.2628 133.451 48.1234 133.069 48.3436L129.188 50.5201C128.802 50.7376 128.665 51.2257 128.882 51.6119L129.61 52.9129C129.679 53.0336 129.782 53.1378 129.9 53.2076C129.959 53.2426 130.023 53.2684 130.09 53.2898C130.293 53.3493 130.512 53.3203 130.697 53.2156L134.578 51.0392C134.763 50.9345 134.9 50.7651 134.955 50.559C135.015 50.3556 134.986 50.1364 134.881 49.9518L134.884 49.9473Z" fill="white"/>
</g>
<g id="Group 4403">
<path id="Vector_14" d="M55.9269 117.71C56.2259 117.71 56.5183 117.622 56.7682 117.458C57.0182 117.294 57.2149 117.061 57.3343 116.787C63.078 103.392 69.1314 102.495 74.4675 101.702C75.9524 101.528 77.4196 101.226 78.8527 100.8C84.178 99.0448 86.6069 91.9372 85.9549 87.8183C85.5962 85.5686 84.2975 84.2264 82.4826 84.2264C79.4885 84.2264 73.7231 83.4766 71.5495 83.1777C69.2183 77.9176 64.9201 74.7279 59.3286 74.1139C52.3731 73.3151 44.7656 76.7819 40.9075 82.5256C36.6147 88.8888 35.9192 98.0178 39.2773 103.767C41.5868 107.701 45.5209 109.652 50.3626 109.25C53.3675 109 55.6117 107.728 57.03 105.446C61.2033 98.7677 56.1443 85.5904 55.9432 85.0307C55.7758 84.6861 55.4855 84.4168 55.1294 84.2757C54.7733 84.1346 54.3773 84.1319 54.0194 84.2683C53.6614 84.4046 53.3675 84.6701 53.1956 85.0124C53.0237 85.3546 52.9861 85.7489 53.0904 86.1174C54.4163 89.5245 57.2419 99.3437 54.4489 103.81C53.5577 105.229 52.1395 105.984 50.1017 106.169C46.4447 106.468 43.581 105.082 41.9074 102.191C39.1415 97.4689 39.8153 89.568 43.4343 84.2047C46.6512 79.4391 53.2154 76.4505 58.9754 77.1025C63.6757 77.6459 67.2458 80.4716 69.0336 85.085C69.1284 85.3438 69.2917 85.572 69.506 85.7453C69.7204 85.9185 69.9778 86.0302 70.2508 86.0685C70.5877 86.1174 78.543 87.2694 82.4826 87.2694C82.6456 87.2694 82.8467 87.7205 82.939 88.291C83.4172 91.2525 81.461 96.7136 77.8963 97.8874C76.6284 98.2536 75.3326 98.5153 74.0219 98.6698C68.1968 99.5447 60.9424 100.621 54.5467 115.58C54.3841 115.949 54.3746 116.368 54.5203 116.744C54.666 117.12 54.955 117.422 55.3238 117.585C55.5138 117.669 55.7193 117.711 55.9269 117.71Z" fill="white"/>
<path id="Vector_15" d="M65.0121 90.128C65.4171 90.128 65.8055 89.9671 66.0918 89.6807C66.3782 89.3944 66.5391 89.006 66.5391 88.601V84.982C66.5391 84.577 66.3782 84.1887 66.0918 83.9023C65.8055 83.616 65.4171 83.4551 65.0121 83.4551C64.6072 83.4551 64.2188 83.616 63.9324 83.9023C63.6461 84.1887 63.4852 84.577 63.4852 84.982V88.6173C63.4895 89.0195 63.6522 89.4037 63.9381 89.6865C64.224 89.9693 64.61 90.128 65.0121 90.128Z" fill="white"/>
</g>
<g id="Group 4402">
<path id="Vector_16" d="M71.8362 49.3866L71.8364 49.3883L71.8364 49.3885L71.8365 49.3893L71.8369 49.3918L71.8381 49.4L71.842 49.4276C71.8451 49.4507 71.8494 49.4831 71.8543 49.5241C71.8642 49.6063 71.8767 49.7231 71.8887 49.8706C71.9125 50.1656 71.9338 50.5831 71.9259 51.0898C71.9103 52.1028 71.7781 53.4749 71.3153 54.9384C70.3878 57.8713 68.1342 61.1628 62.8623 62.6679L62.8574 62.6693L62.8574 62.6692C62.1145 62.8487 61.4175 63.1818 60.8113 63.6471C60.2051 64.1124 59.7031 64.6996 59.3377 65.3707L59.3374 65.3712C58.3425 67.1801 58.257 69.5033 58.4267 71.3967C58.5113 72.341 58.659 73.173 58.7855 73.7726C58.8487 74.0723 58.9066 74.3138 58.9487 74.4821C58.9697 74.5663 58.9868 74.6321 58.9988 74.6782L59.0128 74.733L59.0171 74.7512L59.019 74.7606L59.0191 74.7607C59.0191 74.7611 59.0193 74.7622 59.0196 74.7639C59.0909 75.1016 59.0322 75.4539 58.8553 75.7505C58.6774 76.0486 58.3932 76.2682 58.0599 76.3651C57.7266 76.462 57.369 76.429 57.059 76.2728C56.7491 76.1165 56.5099 75.8487 56.3895 75.5231L56.3863 75.5145L56.3866 75.5144L56.3838 75.5047C56.3272 75.3092 55.8402 73.6286 55.6683 71.4229C55.4932 69.177 55.6431 66.3692 56.9233 64.03C57.4653 63.0364 58.2063 62.1652 59.1001 61.471C59.9935 60.777 61.0204 60.2747 62.1166 59.9953C65.4278 59.0597 67.2087 57.2729 68.1583 55.4612C69.0793 53.7038 69.2231 51.913 69.2056 50.8315L67.476 50.6134C67.167 50.5752 66.8802 50.4327 66.6632 50.2094C66.4462 49.986 66.312 49.6953 66.2826 49.3853L66.2823 49.3812L66.2823 49.3812C66.1454 47.1549 65.2723 45.0372 63.8005 43.3611C62.3291 41.6855 60.3426 40.5464 58.1533 40.1226C57.832 40.0702 57.5395 39.9056 57.3279 39.658C57.1159 39.41 56.9988 39.0947 56.9976 38.7684L56.9975 38.7679L56.9975 32.1619C46.486 36.006 39.1894 43.2028 34.5042 49.4845C29.7938 55.7998 27.728 61.1831 27.6918 61.2845L27.6912 61.2862C27.5637 61.6271 27.306 61.9035 26.9748 62.0544C26.6436 62.2054 26.266 62.2186 25.925 62.0911C25.5841 61.9636 25.3077 61.7059 25.1568 61.3747C25.0058 61.0435 24.9926 60.6659 25.1201 60.3249L25.1202 60.3248C25.485 59.3518 34.2769 36.4888 57.9583 28.938L57.959 28.9377C58.1647 28.8734 58.3826 28.8583 58.5953 28.8935C58.8079 28.9288 59.0093 29.0134 59.1833 29.1407C59.3573 29.2679 59.4989 29.4342 59.597 29.6262C59.695 29.8181 59.7466 30.0304 59.7476 30.2459V30.2466V31.6408C60.7527 31.2402 61.7714 30.8729 62.795 30.5434L62.796 30.543C63.0021 30.4787 63.2204 30.4635 63.4334 30.4987C63.6461 30.5338 63.8476 30.6181 64.0218 30.7449C64.0221 30.7451 64.0224 30.7453 64.0227 30.7456L63.9491 30.8466C64.1107 30.96 64.2428 31.1104 64.3344 31.2853C64.4259 31.4602 64.4743 31.6545 64.4754 31.8519L71.8362 49.3866ZM71.8362 49.3866C71.7924 49.0952 71.6563 48.8255 71.4479 48.6171C71.2396 48.4087 70.9699 48.2726 70.6784 48.2289L70.6785 48.2288L70.6755 48.2285L68.8916 48.0036M71.8362 49.3866L68.8916 48.0036M68.8916 48.0036C68.4642 44.9815 66.9363 42.2228 64.6004 40.257L68.8916 48.0036ZM71.7134 49.4109C71.713 49.4081 71.7127 49.4062 71.7125 49.4051L66.4071 49.3736C66.4337 49.6552 66.5557 49.9194 66.7529 50.1223C66.95 50.3252 67.2106 50.4547 67.4913 50.4894L69.3283 50.721C69.3861 52.879 68.8388 58.2265 62.149 60.1161C61.0689 60.3911 60.0571 60.8859 59.1768 61.5697C58.2966 62.2534 57.5668 63.1114 57.0331 64.0899C54.5309 68.6615 56.3913 75.0814 56.504 75.4702L56.5067 75.4798C56.6161 75.7757 56.8336 76.0191 57.1153 76.1611C57.397 76.3031 57.7221 76.3331 58.025 76.245C58.328 76.1569 58.5863 75.9574 58.7479 75.6864C58.9096 75.4155 58.9626 75.0934 58.8963 74.785C58.8963 74.7812 58.8889 74.7525 58.8756 74.7011C58.6882 73.977 57.3357 68.7514 59.2279 65.311C59.6016 64.6245 60.1151 64.0239 60.7352 63.5479C61.3553 63.072 62.0682 62.7313 62.828 62.5477C73.1847 59.5909 71.7559 49.7055 71.7134 49.4109ZM59.7424 34.617C60.4295 34.3089 61.1293 34.0299 61.8346 33.7723V38.5095C61.1603 38.1849 60.4606 37.916 59.7424 37.7055V34.617Z" fill="white" stroke="white" stroke-width="0.25"/>
<path id="Vector_17" d="M62.35 50.7073C62.4128 50.5318 62.4393 50.3454 62.4277 50.1595V46.141C62.4393 45.955 62.4128 45.7686 62.35 45.5932C62.2867 45.4165 62.1878 45.2546 62.0594 45.1176C61.931 44.9806 61.7759 44.8714 61.6037 44.7968C61.4314 44.7221 61.2457 44.6836 61.058 44.6836C60.8702 44.6836 60.6845 44.7221 60.5122 44.7968C60.34 44.8714 60.1849 44.9806 60.0565 45.1176C59.9281 45.2546 59.8292 45.4164 59.7659 45.5932C59.7031 45.7686 59.6766 45.955 59.6882 46.141V50.1595C59.6766 50.3454 59.7031 50.5318 59.7659 50.7073C59.8292 50.884 59.9281 51.0459 60.0565 51.1828C60.1849 51.3198 60.34 51.429 60.5122 51.5037C60.6845 51.5783 60.8702 51.6169 61.058 51.6169C61.2457 51.6169 61.4314 51.5783 61.6037 51.5037C61.7759 51.429 61.931 51.3198 62.0594 51.1828C62.1878 51.0459 62.2867 50.884 62.35 50.7073Z" fill="white" stroke="white" stroke-width="0.25"/>
</g>
</g>
<defs>
<linearGradient id="paint0_linear_151_11187" x1="122.494" y1="12.5214" x2="37.7394" y2="122.175" gradientUnits="userSpaceOnUse">
<stop stop-color="#D2C7FF"/>
<stop offset="1" stop-color="#EF3A5D"/>
</linearGradient>
</defs>
</svg>
