<svg width="100" height="100" viewBox="0 0 100 100" fill="none" xmlns="http://www.w3.org/2000/svg">
<g id="Frame 4657">
<rect width="100" height="100" rx="50" fill="#FFE7EB"/>
<g id="Group 4853">
<path id="Vector" d="M78.4355 32.6748C78.4355 32.5522 78.4355 32.3974 78.4355 32.2232C78.4742 30.5779 78.5645 26.3261 73.4739 24.3131C73.6352 23.2549 73.8739 21.7323 74.003 21.2032C74.0804 20.8871 74.003 20.558 73.7836 20.3193C73.5642 20.0806 73.2481 19.9644 72.9255 20.0096C72.5061 20.0741 62.6798 21.6161 60.1829 28.3972C59.4538 30.3715 59.0731 32.5458 58.7054 34.6491C58.5763 35.3975 58.4408 36.1395 58.2989 36.8686C57.1311 27.3777 49.0274 20.0031 39.2269 20.0031C28.6263 19.9967 20 28.623 20 39.2171C20 47.0111 24.6648 53.7276 31.3426 56.7407C31.2909 56.8052 31.2329 56.8761 31.1813 56.9407C29.9489 58.444 27.0649 63.4765 28.5101 68.6897C30.3877 75.4514 36.2138 80 43.0077 80H43.9045H46.4466H58.7763C59.0731 80 59.357 79.8581 59.5441 79.6258C59.7248 79.3871 59.7893 79.0774 59.7119 78.787C59.6861 78.6838 59.1699 76.774 57.5376 75.6256C58.2344 75.1094 59.1312 74.4255 60.0861 73.6642L60.0538 74.1287C60.0538 74.2255 60.0538 74.3158 60.0796 74.4126L61.1894 79.2516C61.2926 79.6903 61.6797 80 62.1314 80H67.6865C67.951 80 68.2091 79.8903 68.3898 79.6968C68.5704 79.5032 68.6672 79.2387 68.6479 78.9741C68.5317 77.174 68.0285 76.5353 67.1962 76.0514C66.9445 75.903 66.8155 75.832 66.7252 75.0126C66.6026 73.9416 67.151 69.9607 67.8801 65.4637C69.9899 62.7474 72.5448 59.4118 73.3062 56.56C74.7256 51.2436 73.0094 46.2885 71.8674 43.0109C71.4932 41.9398 71.1125 40.8301 71.1319 40.4236C71.1641 39.8881 71.1964 39.6107 71.2286 39.4687C71.4093 39.4494 71.719 39.4494 72.0029 39.4558H72.2739C72.8803 39.4558 73.4546 39.4945 74.003 39.5333C75.0676 39.6042 75.9902 39.6687 76.758 39.4042C77.7774 39.0494 80.1259 36.475 79.9775 35.4104C79.9194 35.0233 79.6872 34.7394 79.3646 34.3459C78.9968 33.9007 78.4419 33.2361 78.4226 32.6748H78.4355ZM74.1514 37.5977C73.5965 37.559 72.9642 37.5202 72.2932 37.5202H72.0287C70.0028 37.5073 69.3511 37.8945 69.2156 40.3204C69.1705 41.1075 69.5447 42.1721 70.0544 43.6496C71.119 46.7014 72.719 51.321 71.4545 56.0632C71.0286 57.6504 69.8866 59.5085 68.5962 61.3216C68.964 59.2247 69.3318 57.1665 69.6673 55.3857C69.764 54.8631 69.4221 54.3534 68.893 54.2566C68.3704 54.1599 67.8607 54.5018 67.7639 55.0309C67.4284 56.8052 64.5057 72.4576 64.8154 75.2384C65.0025 76.8837 65.6154 77.3741 66.2284 77.7289C66.3574 77.8063 66.4671 77.8708 66.5574 78.0773H62.9056L61.9959 74.1287L62.6991 63.6636C62.7378 63.1281 62.3314 62.67 61.7959 62.6313C61.2603 62.5926 60.8023 62.9991 60.7635 63.5346L60.2603 71.0382C58.5505 72.4576 56.7053 73.8577 55.5245 74.7158C55.5826 74.2061 55.7891 73.3609 55.9504 72.7028C56.6343 69.9349 57.5634 66.1476 55.3826 63.6055C53.7567 61.7087 50.8017 60.9796 46.3498 61.3796C45.8143 61.4248 45.4272 61.8958 45.4724 62.4313C45.5175 62.9668 46.0014 63.3539 46.524 63.3088C50.2533 62.9797 52.7437 63.5023 53.9116 64.8701C55.4471 66.6573 54.6535 69.8898 54.0728 72.2447C53.6212 74.09 53.318 75.3094 53.9116 76.1288C54.1632 76.4837 54.5567 76.6966 55.0148 76.7289C55.1568 76.7418 55.2923 76.7611 55.4213 76.7869C56.2794 76.974 56.8601 77.5353 57.2408 78.0838H46.5628C45.2853 77.7741 44.4207 77.1934 43.9949 76.3417C43.1045 74.5739 44.182 72.1092 44.1884 72.0834C44.4078 71.5995 44.1884 71.0253 43.7045 70.8059C43.2206 70.5866 42.6464 70.8059 42.427 71.2898C42.369 71.4253 40.9689 74.5997 42.2593 77.1998C42.4206 77.516 42.6142 77.8128 42.8335 78.0773C36.988 78.0063 31.9878 74.0577 30.3619 68.1929C29.136 63.7733 31.6071 59.4763 32.6588 58.1923C32.833 57.9794 33.0201 57.7472 33.2201 57.502C33.7298 57.6697 34.2459 57.8181 34.775 57.9407C33.6072 59.6892 32.7233 61.257 32.3942 62.6377C30.8006 69.3801 38.1236 73.4513 38.4397 73.619C38.7494 73.7868 39.1301 73.7739 39.4269 73.5803C39.7237 73.3867 39.8914 73.0512 39.8656 72.6964L39.3107 64.825C39.1559 62.6249 39.7301 60.4441 40.8011 58.3859C49.1435 57.702 55.9891 51.663 57.8989 43.727C59.499 41.2172 60.0603 38.0751 60.6022 34.9911C60.9571 32.9716 61.3249 30.8812 61.9894 29.0746C63.5895 24.726 69.2156 22.8678 71.8351 22.2226C71.6416 23.3969 71.448 24.7518 71.4351 24.8357C71.3706 25.3067 71.648 25.7518 72.0997 25.8938C76.6031 27.3261 76.5322 30.494 76.4934 32.1909C76.4934 32.4167 76.487 32.6103 76.4934 32.7651C76.5386 33.9781 77.3774 34.9911 77.8806 35.5911C77.9 35.6105 77.9129 35.6298 77.9322 35.6492C77.5258 36.2815 76.5451 37.4235 76.1386 37.5783C75.745 37.7138 74.9708 37.6622 74.1514 37.6041V37.5977ZM56.5117 39.2171C56.5117 48.7467 48.7564 56.5019 39.2269 56.5019C29.6973 56.5019 21.9356 48.7531 21.9356 39.2171C21.9356 29.6811 29.6909 21.9323 39.2204 21.9323C48.75 21.9323 56.5052 29.6875 56.5052 39.2171H56.5117ZM37.3945 64.9411L37.8074 70.8188C36.0202 69.393 33.4459 66.6444 34.2911 63.0636C34.5879 61.799 35.6073 60.1344 36.8719 58.2956C37.4461 58.3666 38.0268 58.4117 38.6139 58.4311C37.6978 60.5086 37.2268 62.7087 37.3881 64.9476L37.3945 64.9411Z" fill="#EF3A5D"/>
<path id="Vector_2" d="M34.6781 29.583V34.6801H29.5811C29.0456 34.6801 28.6133 35.1124 28.6133 35.6479V42.7967C28.6133 43.3322 29.0456 43.7645 29.5811 43.7645H34.6781V48.8615C34.6781 49.397 35.1104 49.8293 35.6459 49.8293H42.7883C43.3238 49.8293 43.7561 49.397 43.7561 48.8615V43.7645H48.8596C49.3951 43.7645 49.8274 43.3322 49.8274 42.7967V35.6479C49.8274 35.1124 49.3951 34.6801 48.8596 34.6801H43.7561V29.583C43.7561 29.0475 43.3238 28.6152 42.7883 28.6152H35.6459C35.1104 28.6152 34.6781 29.0475 34.6781 29.583ZM41.8205 35.6479C41.8205 36.1834 42.2527 36.6157 42.7883 36.6157H47.8918V41.8289H42.7883C42.2527 41.8289 41.8205 42.2611 41.8205 42.7967V47.8937H36.6137V42.7967C36.6137 42.2611 36.1814 41.8289 35.6459 41.8289H30.5489V36.6157H35.6459C36.1814 36.6157 36.6137 36.1834 36.6137 35.6479V30.5508H41.8205V35.6479Z" fill="#EF3A5D"/>
</g>
</g>
</svg>
