<svg width="40" height="40" viewBox="0 0 40 40" fill="none" xmlns="http://www.w3.org/2000/svg">
<g id="Group 4432">
<g id="Group 4460">
<g id="Group 4431">
<circle id="Ellipse 10" cx="20" cy="20" r="20" fill="#EF3A5D"/>
<g id="Group 5087">
<path id="Vector" d="M19.6805 21.4542C22.8393 21.4542 25.4076 18.8833 25.4076 15.7271C25.4076 12.5708 22.8391 10 19.6805 10C16.522 10 13.9512 12.5686 13.9512 15.7271C13.9512 18.8856 16.522 21.4542 19.6805 21.4542ZM19.6805 11.7173C21.8908 11.7173 23.6878 13.5144 23.6878 15.7245C23.6878 17.9348 21.8907 19.7317 19.6805 19.7317C17.4704 19.7317 15.671 17.9346 15.671 15.7245C15.671 13.5142 17.4681 11.7173 19.6805 11.7173Z" fill="white"/>
<path id="Vector_2" d="M9.85992 30.0007C10.3358 30.0007 10.7198 29.6166 10.7198 29.1408C10.7198 26.5643 12.8181 24.4659 15.3947 24.4659H23.9681C26.5445 24.4659 28.6429 26.5642 28.6429 29.1408C28.6429 29.6166 29.0269 30.0007 29.5028 30.0007C29.9787 30.0007 30.3627 29.6166 30.3627 29.1408C30.3627 25.6148 27.4929 22.7461 23.9681 22.7461H15.3947C11.8687 22.7461 9 25.6159 9 29.1408C9 29.6166 9.38404 30.0007 9.85992 30.0007Z" fill="white"/>
</g>
</g>
</g>
</g>
</svg>
