<svg width="28" height="28" viewBox="0 0 28 28" fill="none" xmlns="http://www.w3.org/2000/svg">
<g id="Frame 4625">
<g id="Group">
<g id="Group 4699">
<path id="Vector" d="M20.9796 8.00034H18.4414C16.4291 8.00296 14.506 8.83389 13.1255 10.2982L13.1176 10.3034C13.1123 10.3087 13.1115 10.3148 13.1062 10.32L13.1071 10.3191C12.6921 10.756 12.3338 11.2427 12.0394 11.7678C11.5256 12.6913 10.7742 13.4611 9.86378 13.9967C8.95335 14.5323 7.91535 14.8154 6.85891 14.8154H6.59242C5.16037 14.8154 4 15.9757 4 17.4078C4 18.8399 5.16032 20.0002 6.59242 20.0002H9.1307C11.1097 19.9994 13.0048 19.1973 14.3835 17.7766C14.3888 17.7705 14.3966 17.7687 14.4028 17.7626C14.4089 17.7556 14.4106 17.746 14.4167 17.7381C14.8519 17.2864 15.2267 16.7805 15.5325 16.2327C16.0463 15.3091 16.7977 14.5394 17.7081 14.0038C18.6186 13.4682 19.6566 13.1851 20.713 13.1851H20.9795C22.4115 13.1851 23.5719 12.0239 23.5719 10.5927C23.5719 9.16061 22.4117 8.00034 20.9796 8.00034ZM16.7629 12.9597L14.6161 10.8129C15.6698 9.91647 17.0041 9.41668 18.388 9.40183V12.183C17.8165 12.3735 17.2705 12.6347 16.7629 12.9597ZM9.18404 15.8176C9.63226 15.6708 10.0656 15.4804 10.4772 15.2497L12.8231 17.3065H12.8222C11.7877 18.1313 10.5067 18.5865 9.18388 18.5987L9.18404 15.8176ZM5.39808 17.4078C5.39895 16.749 5.9328 16.2143 6.59247 16.2134H6.85896C7.16913 16.2126 7.47843 16.1916 7.78599 16.1514V18.6022H6.59247C5.9328 18.6014 5.39895 18.0666 5.39808 17.4078ZM14.3112 15.5538C14.1618 15.8185 13.9922 16.0701 13.8044 16.3087L11.6436 14.4144C12.2946 13.8587 12.8415 13.192 13.2609 12.4467C13.3806 12.2335 13.5134 12.0291 13.6585 11.8325L15.6558 13.8299C15.1237 14.3331 14.6703 14.9151 14.3112 15.5538ZM20.9794 11.787H20.7129C20.4028 11.7879 20.0935 11.8089 19.7859 11.8491V9.39824H20.9794C21.6391 9.39824 22.1738 9.93296 22.1738 10.5926C22.1738 11.2523 21.6391 11.787 20.9794 11.787Z" fill="#6C6C6C"/>
</g>
</g>
</g>
</svg>
