<svg width="18" height="18" viewBox="0 0 18 18" fill="none" xmlns="http://www.w3.org/2000/svg">
<g id="noun-help-4735210 1" clip-path="url(#clip0_506_16549)">
<path id="Vector" d="M9 0C6.61305 0 4.3239 0.948225 2.63595 2.63595C0.94815 4.32375 0 6.61305 0 9C0 11.3869 0.948225 13.6761 2.63595 15.364C4.32375 17.0518 6.61305 18 9 18C11.3869 18 13.6761 17.0518 15.364 15.364C17.0518 13.6763 18 11.3869 18 9C17.9974 6.6138 17.0484 4.32615 15.361 2.63895C13.6737 0.95175 11.3861 0.0027 9 0ZM9 16.5C7.01085 16.5 5.10315 15.7098 3.69675 14.3032C2.29026 12.8967 1.5 10.989 1.5 9C1.5 7.011 2.2902 5.10315 3.69675 3.69675C5.1033 2.29026 7.011 1.5 9 1.5C10.989 1.5 12.8968 2.2902 14.3032 3.69675C15.7097 5.1033 16.5 7.011 16.5 9C16.4978 10.9884 15.7069 12.8949 14.3008 14.3008C12.8948 15.7069 10.9884 16.4977 9 16.5Z" fill="#764BE2"/>
<path id="Vector_2" d="M9.53779 3.79661C8.9593 3.69126 8.36258 3.75817 7.8218 3.98909C7.28102 4.22 6.82008 4.60473 6.49617 5.09552C6.17226 5.58624 5.99976 6.1614 6 6.74942C6 7.01736 6.14297 7.26498 6.375 7.39893C6.60704 7.53294 6.89297 7.53294 7.125 7.39893C7.35704 7.26499 7.5 7.01736 7.5 6.74942C7.49959 6.30264 7.6984 5.87895 8.04228 5.59371C8.38611 5.30841 8.83922 5.19129 9.27825 5.27414C9.5745 5.33168 9.8469 5.47623 10.0606 5.68928C10.2744 5.90238 10.4198 6.17432 10.4783 6.47039C10.5373 6.78123 10.4965 7.10273 10.3618 7.38896C10.2271 7.67519 10.0053 7.91156 9.72825 8.06414C9.28176 8.29488 8.90753 8.64434 8.64672 9.07394C8.38592 9.50361 8.24864 9.99678 8.24999 10.4994C8.25145 10.6949 8.33202 10.8816 8.47329 11.0168C8.61462 11.152 8.80458 11.2243 8.99999 11.2172C9.20219 11.2096 9.3935 11.1236 9.53348 10.9775C9.67346 10.8313 9.7511 10.6365 9.74999 10.4341C9.76013 10.2116 9.83032 9.9959 9.95313 9.80999C10.0759 9.62406 10.2467 9.47483 10.4475 9.37815C10.9909 9.07973 11.4285 8.62025 11.7 8.06295C11.9716 7.50567 12.0639 6.87789 11.9642 6.2661C11.8645 5.65421 11.5776 5.08826 11.1431 4.6461C10.7086 4.2039 10.1478 3.90717 9.53781 3.79673L9.53779 3.79661Z" fill="#764BE2"/>
<path id="Vector_3" d="M9.01534 12.75H9.00784C8.73901 12.7513 8.49122 12.8958 8.35756 13.1291C8.2239 13.3623 8.22461 13.6491 8.35943 13.8817C8.49426 14.1143 8.74276 14.2575 9.01159 14.2575C9.28042 14.2575 9.52891 14.1143 9.66374 13.8817C9.79857 13.6491 9.79927 13.3623 9.66562 13.1291C9.53196 12.8958 9.28417 12.7514 9.01534 12.75Z" fill="#764BE2"/>
</g>
<defs>
<clipPath id="clip0_506_16549">
<rect width="18" height="18" fill="white"/>
</clipPath>
</defs>
</svg>
