<svg width="28" height="28" viewBox="0 0 28 28" fill="none" xmlns="http://www.w3.org/2000/svg">
<g id="Frame 4620">
<g id="Group">
<path id="Vector" d="M13.8616 21.3541C10.5447 21.3541 7.84375 18.4179 7.84375 14.8019C7.84375 12.5003 8.9406 10.3882 10.7435 9.2013C10.8522 7.5794 12.2116 6.29224 13.8607 6.29224C15.5098 6.29224 16.8691 7.5794 16.9779 9.2013C18.7723 10.3882 19.8776 12.491 19.8776 14.8019C19.8776 18.4179 17.1767 21.3541 13.8598 21.3541H13.8616ZM13.8616 7.65161C12.8922 7.65161 12.0944 8.44005 12.0944 9.4188C12.0944 9.43665 12.1037 9.51821 12.1122 9.5369C12.13 9.79942 11.9941 10.0441 11.7681 10.1716C10.1912 11.0594 9.20313 12.8359 9.20313 14.8028C9.20313 17.6668 11.2966 19.9956 13.8616 19.9956C16.4265 19.9956 18.52 17.6668 18.52 14.8028C18.52 12.8359 17.5412 11.0603 15.955 10.1716C15.7281 10.045 15.5922 9.79094 15.6109 9.5369C15.6109 9.51906 15.6203 9.4375 15.6203 9.4188C15.6203 8.44005 14.8318 7.65161 13.8531 7.65161H13.8616Z" fill="#6C6C6C"/>
<path id="Vector_2" d="M11.6044 11.0495C11.3419 11.0495 11.0878 10.8957 10.9791 10.6323C10.8159 10.2423 10.7344 9.83451 10.7344 9.41821C10.7344 9.04694 11.0428 8.73853 11.4141 8.73853C11.7853 8.73853 12.0938 9.04694 12.0938 9.41821C12.0938 9.65355 12.1388 9.88975 12.2297 10.1073C12.375 10.4513 12.2118 10.8507 11.8669 10.9951C11.776 11.0316 11.6944 11.0495 11.6044 11.0495Z" fill="#6C6C6C"/>
<path id="Vector_3" d="M16.1154 11.0495C16.0245 11.0495 15.9345 11.0316 15.8529 10.9951C15.5088 10.8498 15.3457 10.4513 15.4901 10.1073C15.581 9.88975 15.6261 9.65442 15.6261 9.41821C15.6261 9.04694 15.9345 8.73853 16.3058 8.73853C16.677 8.73853 16.9854 9.04694 16.9854 9.41821C16.9854 9.83538 16.9039 10.2517 16.7408 10.6323C16.632 10.8948 16.378 11.0495 16.1154 11.0495Z" fill="#6C6C6C"/>
<path id="Vector_4" d="M13.8592 15.9709C11.7479 15.9709 9.71729 15.3184 8.29506 14.1766C8.00535 13.9412 7.95097 13.5147 8.18631 13.225C8.42164 12.9353 8.84816 12.8809 9.13787 13.1162C10.3341 14.0678 12.0563 14.6116 13.8592 14.6116C15.6629 14.6116 17.3842 14.0678 18.5804 13.1162C18.8701 12.8809 19.3051 12.9353 19.532 13.225C19.7673 13.5147 19.7223 13.9497 19.4232 14.1766C17.9917 15.3184 15.9611 15.9709 13.8498 15.9709H13.8592Z" fill="#6C6C6C"/>
<path id="Vector_5" d="M18.444 12.0199C18.2902 12.0199 18.1271 11.9655 17.9996 11.8568C17.7184 11.6121 17.6827 11.1771 17.9359 10.8959L18.9053 9.78117C19.3947 9.21959 19.7659 8.56709 20.0021 7.86021C20.1925 7.28927 20.2834 6.7005 20.2834 6.09302C20.2834 5.72175 20.5918 5.41333 20.9631 5.41333C21.3343 5.41333 21.6428 5.72175 21.6428 6.09302C21.6428 6.83643 21.5247 7.57898 21.2893 8.28586C20.9996 9.16521 20.5374 9.97148 19.9299 10.669L18.9605 11.7837C18.8246 11.9375 18.6343 12.019 18.444 12.019L18.444 12.0199Z" fill="#6C6C6C"/>
<path id="Vector_6" d="M18.8173 23.2209C18.446 23.2209 18.1376 22.9125 18.1376 22.5413C18.1376 20.6381 17.1045 19.8769 17.0594 19.8497C16.7604 19.6322 16.6788 19.215 16.8963 18.9075C17.1045 18.5991 17.5216 18.5175 17.83 18.7265C17.9023 18.7715 19.4978 19.8862 19.4978 22.5421C19.4978 22.9134 19.1894 23.2218 18.8182 23.2218L18.8173 23.2209Z" fill="#6C6C6C"/>
<path id="Vector_7" d="M15.4648 8.07706C15.3925 8.07706 15.311 8.06771 15.2379 8.04052C14.8845 7.91393 14.7035 7.52396 14.8207 7.17052C14.8207 7.16117 15.1835 6.12804 15.0561 5.14929C15.011 4.77802 15.2736 4.43306 15.6449 4.38804C16.0161 4.33366 16.3611 4.60554 16.4061 4.97681C16.5786 6.29117 16.1249 7.57746 16.107 7.63184C16.0076 7.91307 15.7442 8.08467 15.4639 8.08467L15.4648 8.07706Z" fill="#6C6C6C"/>
<path id="Vector_8" d="M19.3324 15.3181C19.0605 15.3181 18.798 15.1456 18.6977 14.8737C18.5712 14.5203 18.7428 14.1303 19.0962 14.0037C19.114 14.0037 21.244 13.1881 22.0596 11.5475C22.2321 11.2119 22.6399 11.0759 22.9747 11.2391C23.3103 11.4022 23.4462 11.81 23.2831 12.1541C22.2321 14.2747 19.685 15.2356 19.5762 15.2807C19.4947 15.3078 19.4224 15.3257 19.3409 15.3257L19.3324 15.3181Z" fill="#6C6C6C"/>
<path id="Vector_9" d="M22.4666 19.958C22.2584 19.958 22.0588 19.8671 21.9228 19.6861C20.7903 18.1729 18.7691 17.9461 18.7512 17.9461C18.38 17.9095 18.1081 17.5748 18.1438 17.2027C18.1803 16.8314 18.515 16.5595 18.8872 16.5952C18.9959 16.6045 21.515 16.8764 23.0197 18.8789C23.2465 19.178 23.1828 19.6037 22.8838 19.8305C22.7657 19.9214 22.6212 19.9664 22.4759 19.9664L22.4666 19.958Z" fill="#6C6C6C"/>
<path id="Vector_10" d="M9.2769 12.019C9.08659 12.019 8.89628 11.9375 8.76034 11.7837L7.79094 10.669C7.18346 9.97149 6.72127 9.16434 6.43156 8.28586C6.19623 7.57898 6.07812 6.84492 6.07812 6.09302C6.07812 5.72175 6.38654 5.41333 6.75781 5.41333C7.12909 5.41333 7.4375 5.72175 7.4375 6.09302C7.4375 6.69114 7.53691 7.28927 7.71873 7.86021C7.95407 8.56709 8.32621 9.21959 8.81558 9.78117L9.78498 10.8959C10.0297 11.1771 10.0025 11.6121 9.72126 11.8568C9.59467 11.9655 9.43155 12.0199 9.27691 12.0199L9.2769 12.019Z" fill="#6C6C6C"/>
<path id="Vector_11" d="M8.90234 23.2202C8.53107 23.2202 8.22266 22.9118 8.22266 22.5405C8.22266 19.8855 9.82672 18.7708 9.89045 18.7249C10.1989 18.5168 10.6245 18.5983 10.8327 18.9059C11.0408 19.2143 10.9593 19.6306 10.6517 19.8481C10.5973 19.8846 9.57354 20.6544 9.57354 22.5397C9.57354 22.9109 9.26513 23.2194 8.89386 23.2194L8.90234 23.2202Z" fill="#6C6C6C"/>
<path id="Vector_12" d="M12.2547 8.07707C11.9735 8.07707 11.7109 7.9046 11.6116 7.62424C11.5937 7.56986 11.14 6.28269 11.3125 4.96921C11.3575 4.59794 11.7109 4.33454 12.0737 4.38044C12.445 4.42547 12.7084 4.77042 12.6625 5.14169C12.5359 6.12979 12.8894 7.15357 12.8894 7.16292C13.016 7.51636 12.8256 7.90633 12.4722 8.03292C12.4 8.06011 12.3184 8.06945 12.2453 8.06945L12.2547 8.07707Z" fill="#6C6C6C"/>
<path id="Vector_13" d="M8.3861 15.3179C8.30453 15.3179 8.23232 15.3085 8.15076 15.2728C8.04201 15.2363 5.50421 14.2763 4.4439 12.1463C4.28078 11.8107 4.41671 11.4029 4.75232 11.2313C5.08792 11.0681 5.49573 11.2041 5.66734 11.5397C6.48297 13.1709 8.6036 13.9865 8.63078 13.9959C8.98422 14.1318 9.16518 14.5218 9.02924 14.8659C8.92984 15.1378 8.66645 15.3103 8.39458 15.3103L8.3861 15.3179Z" fill="#6C6C6C"/>
<path id="Vector_14" d="M5.25037 19.9578C5.10509 19.9578 4.96915 19.9128 4.84256 19.8219C4.5435 19.595 4.47977 19.1694 4.70662 18.8703C6.20194 16.8678 8.73038 16.5959 8.83913 16.5865C9.2104 16.55 9.54601 16.8219 9.58255 17.194C9.61908 17.5653 9.34721 17.9009 8.97507 17.9374C8.93004 17.9374 6.92665 18.1728 5.80348 19.6774C5.66754 19.8584 5.46787 19.9493 5.25973 19.9493L5.25037 19.9578Z" fill="#6C6C6C"/>
</g>
</g>
</svg>
