<svg width="24" height="24" viewBox="0 0 24 24" fill="none" xmlns="http://www.w3.org/2000/svg">
<g id="Frame 4538">
<g id="Vector">
<mask id="path-1-outside-1_506_10383" maskUnits="userSpaceOnUse" x="2" y="2" width="20" height="20" fill="black">
<rect fill="white" x="2" y="2" width="20" height="20"/>
<path d="M10.0646 14.1388C9.7474 14.1388 9.49006 13.8814 9.49006 13.5643C9.49006 13.2471 9.7474 12.9898 10.0646 12.9898H11.8555C12.0096 12.9898 12.151 12.9262 12.2534 12.8237C12.3559 12.7212 12.4195 12.5806 12.4195 12.4257C12.4195 12.2709 12.3559 12.1302 12.2534 12.0278C12.1509 11.9253 12.0103 11.8617 11.8555 11.8617H10.8269C10.3556 11.8617 9.92694 11.6694 9.61649 11.359C9.30604 11.0485 9.11379 10.6206 9.11379 10.1486C9.11379 9.67658 9.30604 9.24868 9.61649 8.93823L9.65539 8.90232C9.94862 8.62628 10.3384 8.45198 10.7663 8.43627V8.22083C10.7663 7.90366 11.0236 7.64631 11.3408 7.64631C11.658 7.64631 11.9153 7.90366 11.9153 8.22083V8.43552H12.2415C12.5586 8.43552 12.816 8.69287 12.816 9.01004C12.816 9.32721 12.5586 9.58456 12.2415 9.58456H10.8269C10.6817 9.58456 10.5493 9.63917 10.4506 9.72819L10.4297 9.75063C10.3272 9.85312 10.2636 9.99375 10.2636 10.1486C10.2636 10.3027 10.3272 10.4441 10.4297 10.5466C10.5321 10.6491 10.6728 10.7126 10.8276 10.7126H11.8562C12.3275 10.7126 12.7561 10.9049 13.0666 11.2153C13.377 11.5258 13.5693 11.9544 13.5693 12.4257C13.5693 12.897 13.377 13.3256 13.0666 13.6361C12.7696 13.9331 12.3641 14.1216 11.9168 14.1373V14.3527C11.9168 14.6699 11.6595 14.9273 11.3423 14.9273C11.0251 14.9273 10.7678 14.6699 10.7678 14.3527V14.1388H10.0646ZM10.9472 18.4581L15.9151 13.4902C16.1395 13.2658 16.5031 13.2658 16.7275 13.4902C16.9519 13.7147 16.9519 14.0782 16.7275 14.3026L11.7596 19.2705L11.9481 19.459C12.2077 19.7208 12.5518 19.851 12.8974 19.851C13.2318 19.851 13.5655 19.7291 13.8221 19.4852L19.4573 13.8484C19.7191 13.5888 19.8493 13.2447 19.8493 12.8991C19.8493 12.5647 19.7274 12.2311 19.4835 11.9745L12.4853 4.97784C12.1958 4.68685 11.8726 4.47066 11.5233 4.33375C11.1709 4.19536 10.7872 4.13252 10.3772 4.14748L5.61122 4.31879C5.26038 4.33151 4.94319 4.47888 4.7098 4.71228C4.47716 4.94492 4.32903 5.26285 4.31632 5.61369L4.14501 10.3797C4.13005 10.7896 4.19288 11.1734 4.33128 11.5257C4.46817 11.8728 4.68361 12.1953 4.97537 12.4878L10.9465 18.4589L10.9472 18.4581ZM3.00127 10.3392L3.17258 5.5732C3.19577 4.91789 3.46882 4.32916 3.89821 3.89976C4.3276 3.47037 4.91633 3.19807 5.57165 3.17413L10.3377 3.00282C10.9084 2.98262 11.4455 3.0709 11.9415 3.26614C12.439 3.46213 12.8931 3.76287 13.2963 4.16607L20.3042 11.174C20.7673 11.6558 20.9992 12.2789 20.9992 12.8991C20.9992 13.5349 20.7561 14.173 20.2698 14.66L14.6242 20.305C14.1425 20.7681 13.5201 21 12.8992 21C12.2633 21 11.6252 20.7569 11.1382 20.2706L4.16549 13.3002C3.76377 12.8985 3.4623 12.4437 3.26557 11.9432C3.07108 11.4473 2.98205 10.9101 3.003 10.3394L3.00127 10.3392Z"/>
</mask>
<path d="M10.0646 14.1388C9.7474 14.1388 9.49006 13.8814 9.49006 13.5643C9.49006 13.2471 9.7474 12.9898 10.0646 12.9898H11.8555C12.0096 12.9898 12.151 12.9262 12.2534 12.8237C12.3559 12.7212 12.4195 12.5806 12.4195 12.4257C12.4195 12.2709 12.3559 12.1302 12.2534 12.0278C12.1509 11.9253 12.0103 11.8617 11.8555 11.8617H10.8269C10.3556 11.8617 9.92694 11.6694 9.61649 11.359C9.30604 11.0485 9.11379 10.6206 9.11379 10.1486C9.11379 9.67658 9.30604 9.24868 9.61649 8.93823L9.65539 8.90232C9.94862 8.62628 10.3384 8.45198 10.7663 8.43627V8.22083C10.7663 7.90366 11.0236 7.64631 11.3408 7.64631C11.658 7.64631 11.9153 7.90366 11.9153 8.22083V8.43552H12.2415C12.5586 8.43552 12.816 8.69287 12.816 9.01004C12.816 9.32721 12.5586 9.58456 12.2415 9.58456H10.8269C10.6817 9.58456 10.5493 9.63917 10.4506 9.72819L10.4297 9.75063C10.3272 9.85312 10.2636 9.99375 10.2636 10.1486C10.2636 10.3027 10.3272 10.4441 10.4297 10.5466C10.5321 10.6491 10.6728 10.7126 10.8276 10.7126H11.8562C12.3275 10.7126 12.7561 10.9049 13.0666 11.2153C13.377 11.5258 13.5693 11.9544 13.5693 12.4257C13.5693 12.897 13.377 13.3256 13.0666 13.6361C12.7696 13.9331 12.3641 14.1216 11.9168 14.1373V14.3527C11.9168 14.6699 11.6595 14.9273 11.3423 14.9273C11.0251 14.9273 10.7678 14.6699 10.7678 14.3527V14.1388H10.0646ZM10.9472 18.4581L15.9151 13.4902C16.1395 13.2658 16.5031 13.2658 16.7275 13.4902C16.9519 13.7147 16.9519 14.0782 16.7275 14.3026L11.7596 19.2705L11.9481 19.459C12.2077 19.7208 12.5518 19.851 12.8974 19.851C13.2318 19.851 13.5655 19.7291 13.8221 19.4852L19.4573 13.8484C19.7191 13.5888 19.8493 13.2447 19.8493 12.8991C19.8493 12.5647 19.7274 12.2311 19.4835 11.9745L12.4853 4.97784C12.1958 4.68685 11.8726 4.47066 11.5233 4.33375C11.1709 4.19536 10.7872 4.13252 10.3772 4.14748L5.61122 4.31879C5.26038 4.33151 4.94319 4.47888 4.7098 4.71228C4.47716 4.94492 4.32903 5.26285 4.31632 5.61369L4.14501 10.3797C4.13005 10.7896 4.19288 11.1734 4.33128 11.5257C4.46817 11.8728 4.68361 12.1953 4.97537 12.4878L10.9465 18.4589L10.9472 18.4581ZM3.00127 10.3392L3.17258 5.5732C3.19577 4.91789 3.46882 4.32916 3.89821 3.89976C4.3276 3.47037 4.91633 3.19807 5.57165 3.17413L10.3377 3.00282C10.9084 2.98262 11.4455 3.0709 11.9415 3.26614C12.439 3.46213 12.8931 3.76287 13.2963 4.16607L20.3042 11.174C20.7673 11.6558 20.9992 12.2789 20.9992 12.8991C20.9992 13.5349 20.7561 14.173 20.2698 14.66L14.6242 20.305C14.1425 20.7681 13.5201 21 12.8992 21C12.2633 21 11.6252 20.7569 11.1382 20.2706L4.16549 13.3002C3.76377 12.8985 3.4623 12.4437 3.26557 11.9432C3.07108 11.4473 2.98205 10.9101 3.003 10.3394L3.00127 10.3392Z" fill="#764BE2"/>
<path d="M12.2534 12.8237L12.1827 12.753L12.1827 12.753L12.2534 12.8237ZM12.2534 12.0278L12.1827 12.0985L12.1827 12.0985L12.2534 12.0278ZM9.61649 8.93823L9.54861 8.86469L9.54578 8.86752L9.61649 8.93823ZM9.65539 8.90232L9.72322 8.9758L9.72393 8.97513L9.65539 8.90232ZM10.7663 8.43627L10.7699 8.5362L10.8663 8.53267V8.43627H10.7663ZM11.9153 8.43552H11.8153V8.53553H11.9153V8.43552ZM10.4506 9.72819L10.3834 9.65364L10.3775 9.65996L10.4506 9.72819ZM10.4297 9.75063L10.5004 9.82138L10.5028 9.81887L10.4297 9.75063ZM10.4297 10.5466L10.5004 10.4759L10.5004 10.4759L10.4297 10.5466ZM11.9168 14.1373L11.9133 14.0374L11.8168 14.0407V14.1373H11.9168ZM10.7678 14.1388H10.8678V14.0388H10.7678V14.1388ZM10.9472 18.4581L10.8763 18.3872L10.8717 18.3925L10.9472 18.4581ZM11.7596 19.2705L11.6889 19.1998L11.6182 19.2705L11.6889 19.3412L11.7596 19.2705ZM11.9481 19.459L12.0192 19.3886L12.0189 19.3883L11.9481 19.459ZM13.8221 19.4852L13.891 19.5577L13.8928 19.5559L13.8221 19.4852ZM19.4573 13.8484L19.3869 13.7774L19.3866 13.7777L19.4573 13.8484ZM19.4835 11.9745L19.556 11.9056L19.5542 11.9038L19.4835 11.9745ZM12.4853 4.97784L12.4144 5.04837L12.4146 5.04856L12.4853 4.97784ZM11.5233 4.33375L11.4867 4.42683L11.4868 4.42686L11.5233 4.33375ZM10.3772 4.14748L10.3808 4.24742L10.3809 4.24741L10.3772 4.14748ZM5.61122 4.31879L5.60763 4.21885L5.6076 4.21885L5.61122 4.31879ZM4.7098 4.71228L4.78051 4.78299L4.78051 4.78298L4.7098 4.71228ZM4.31632 5.61369L4.21638 5.61007L4.21638 5.6101L4.31632 5.61369ZM4.14501 10.3797L4.24494 10.3833L4.24494 10.3833L4.14501 10.3797ZM4.33128 11.5257L4.2382 11.5623L4.23825 11.5624L4.33128 11.5257ZM4.97537 12.4878L4.90457 12.5584L4.90466 12.5585L4.97537 12.4878ZM10.9465 18.4589L10.8758 18.5296L10.9517 18.6055L11.022 18.5245L10.9465 18.4589ZM3.00127 10.3392L2.90133 10.3356L2.89791 10.4308L2.99281 10.4388L3.00127 10.3392ZM3.17258 5.5732L3.27251 5.57679L3.27251 5.57674L3.17258 5.5732ZM5.57165 3.17413L5.56805 3.07419L5.56799 3.0742L5.57165 3.17413ZM10.3377 3.00282L10.3341 2.90288L10.3341 2.90289L10.3377 3.00282ZM11.9415 3.26614L11.9782 3.1731L11.9781 3.17309L11.9415 3.26614ZM13.2963 4.16607L13.367 4.09536L13.2963 4.16607ZM20.3042 11.174L20.3763 11.1047L20.3749 11.1033L20.3042 11.174ZM20.2698 14.66L20.3405 14.7307L20.3406 14.7307L20.2698 14.66ZM14.6242 20.305L14.6935 20.3772L14.6949 20.3758L14.6242 20.305ZM11.1382 20.2706L11.0675 20.3414L11.0676 20.3414L11.1382 20.2706ZM4.16549 13.3002L4.09478 13.3709L4.0948 13.3709L4.16549 13.3002ZM3.26557 11.9432L3.17247 11.9797L3.1725 11.9798L3.26557 11.9432ZM3.003 10.3394L3.10293 10.343L3.10643 10.2478L3.01146 10.2397L3.003 10.3394ZM10.0646 14.0388C9.80263 14.0388 9.59006 13.8262 9.59006 13.5643H9.39006C9.39006 13.9367 9.69218 14.2388 10.0646 14.2388V14.0388ZM9.59006 13.5643C9.59006 13.3023 9.80263 13.0898 10.0646 13.0898V12.8898C9.69218 12.8898 9.39006 13.1919 9.39006 13.5643H9.59006ZM10.0646 13.0898H11.8555V12.8898H10.0646V13.0898ZM11.8555 13.0898C12.0375 13.0898 12.2039 13.0146 12.3241 12.8944L12.1827 12.753C12.098 12.8377 11.9816 12.8898 11.8555 12.8898V13.0898ZM12.3241 12.8944C12.4443 12.7742 12.5195 12.6086 12.5195 12.4257H12.3195C12.3195 12.5526 12.2675 12.6682 12.1827 12.753L12.3241 12.8944ZM12.5195 12.4257C12.5195 12.2429 12.4443 12.0772 12.3241 11.957L12.1827 12.0985C12.2675 12.1833 12.3195 12.2989 12.3195 12.4257H12.5195ZM12.3241 11.957C12.204 11.8369 12.0383 11.7617 11.8555 11.7617V11.9617C11.9823 11.9617 12.0979 12.0137 12.1827 12.0985L12.3241 11.957ZM11.8555 11.7617H10.8269V11.9617H11.8555V11.7617ZM10.8269 11.7617C10.3833 11.7617 9.97976 11.5808 9.6872 11.2883L9.54578 11.4297C9.87413 11.758 10.3279 11.9617 10.8269 11.9617V11.7617ZM9.6872 11.2883C9.39463 10.9957 9.21379 10.5929 9.21379 10.1486H9.01379C9.01379 10.6484 9.21745 11.1014 9.54578 11.4297L9.6872 11.2883ZM9.21379 10.1486C9.21379 9.70431 9.39463 9.30151 9.6872 9.00894L9.54578 8.86752C9.21745 9.19585 9.01379 9.64884 9.01379 10.1486H9.21379ZM9.68432 9.01171L9.72322 8.9758L9.58756 8.82884L9.54866 8.86475L9.68432 9.01171ZM9.72393 8.97513C10.0003 8.71496 10.3673 8.55098 10.7699 8.5362L10.7626 8.33634C10.3095 8.35297 9.89694 8.5376 9.58685 8.82951L9.72393 8.97513ZM10.8663 8.43627V8.22083H10.6663V8.43627H10.8663ZM10.8663 8.22083C10.8663 7.95888 11.0789 7.74631 11.3408 7.74631V7.54631C10.9684 7.54631 10.6663 7.84843 10.6663 8.22083H10.8663ZM11.3408 7.74631C11.6027 7.74631 11.8153 7.95888 11.8153 8.22083H12.0153C12.0153 7.84843 11.7132 7.54631 11.3408 7.54631V7.74631ZM11.8153 8.22083V8.43552H12.0153V8.22083H11.8153ZM11.9153 8.53553H12.2415V8.33553H11.9153V8.53553ZM12.2415 8.53553C12.5034 8.53553 12.716 8.7481 12.716 9.01004H12.916C12.916 8.63764 12.6139 8.33553 12.2415 8.33553V8.53553ZM12.716 9.01004C12.716 9.27199 12.5034 9.48456 12.2415 9.48456V9.68456C12.6139 9.68456 12.916 9.38244 12.916 9.01004H12.716ZM12.2415 9.48456H10.8269V9.68456H12.2415V9.48456ZM10.8269 9.48456C10.6563 9.48456 10.5002 9.5488 10.3836 9.65392L10.5176 9.80246C10.5984 9.72954 10.7072 9.68456 10.8269 9.68456V9.48456ZM10.3775 9.65996L10.3565 9.6824L10.5028 9.81887L10.5237 9.79642L10.3775 9.65996ZM10.3589 9.67992C10.2388 9.80009 10.1636 9.96575 10.1636 10.1486H10.3636C10.3636 10.0217 10.4156 9.90615 10.5004 9.82134L10.3589 9.67992ZM10.1636 10.1486C10.1636 10.3306 10.2387 10.4971 10.3589 10.6173L10.5004 10.4759C10.4156 10.3911 10.3636 10.2748 10.3636 10.1486H10.1636ZM10.3589 10.6173C10.4791 10.7374 10.6448 10.8126 10.8276 10.8126V10.6126C10.7008 10.6126 10.5852 10.5607 10.5004 10.4759L10.3589 10.6173ZM10.8276 10.8126H11.8562V10.6126H10.8276V10.8126ZM11.8562 10.8126C12.2998 10.8126 12.7033 10.9935 12.9959 11.2861L13.1373 11.1446C12.809 10.8163 12.3552 10.6126 11.8562 10.6126V10.8126ZM12.9959 11.2861C13.2884 11.5786 13.4693 11.9822 13.4693 12.4257H13.6693C13.6693 11.9267 13.4656 11.473 13.1373 11.1446L12.9959 11.2861ZM13.4693 12.4257C13.4693 12.8693 13.2884 13.2728 12.9959 13.5654L13.1373 13.7068C13.4656 13.3785 13.6693 12.9247 13.6693 12.4257H13.4693ZM12.9959 13.5654C12.7161 13.8452 12.3343 14.0226 11.9133 14.0374L11.9203 14.2372C12.394 14.2206 12.8232 14.021 13.1373 13.7068L12.9959 13.5654ZM11.8168 14.1373V14.3527H12.0168V14.1373H11.8168ZM11.8168 14.3527C11.8168 14.6147 11.6042 14.8273 11.3423 14.8273V15.0273C11.7147 15.0273 12.0168 14.7251 12.0168 14.3527H11.8168ZM11.3423 14.8273C11.0803 14.8273 10.8678 14.6147 10.8678 14.3527H10.6678C10.6678 14.7251 10.9699 15.0273 11.3423 15.0273V14.8273ZM10.8678 14.3527V14.1388H10.6678V14.3527H10.8678ZM10.7678 14.0388H10.0646V14.2388H10.7678V14.0388ZM11.0179 18.5288L15.9858 13.561L15.8444 13.4195L10.8765 18.3874L11.0179 18.5288ZM15.9858 13.561C16.1712 13.3756 16.4714 13.3756 16.6568 13.561L16.7982 13.4195C16.5347 13.1561 16.1078 13.1561 15.8444 13.4195L15.9858 13.561ZM16.6568 13.561C16.8421 13.7463 16.8421 14.0466 16.6568 14.2319L16.7982 14.3734C17.0617 14.1099 17.0617 13.683 16.7982 13.4195L16.6568 13.561ZM16.6568 14.2319L11.6889 19.1998L11.8303 19.3412L16.7982 14.3734L16.6568 14.2319ZM11.6889 19.3412L11.8774 19.5297L12.0189 19.3883L11.8303 19.1998L11.6889 19.3412ZM11.8771 19.5294C12.1566 19.8113 12.5268 19.951 12.8974 19.951V19.751C12.5769 19.751 12.2589 19.6304 12.0192 19.3886L11.8771 19.5294ZM12.8974 19.951C13.256 19.951 13.6147 19.8202 13.8909 19.5577L13.7532 19.4127C13.5162 19.6379 13.2077 19.751 12.8974 19.751V19.951ZM13.8928 19.5559L19.528 13.9191L19.3866 13.7777L13.7513 19.4145L13.8928 19.5559ZM19.5277 13.9194C19.8096 13.6399 19.9493 13.2698 19.9493 12.8991H19.7493C19.7493 13.2197 19.6287 13.5377 19.3869 13.7774L19.5277 13.9194ZM19.9493 12.8991C19.9493 12.5406 19.8185 12.1818 19.556 11.9056L19.411 12.0434C19.6362 12.2803 19.7493 12.5889 19.7493 12.8991H19.9493ZM19.5542 11.9038L12.556 4.90712L12.4146 5.04856L19.4128 12.0452L19.5542 11.9038ZM12.5562 4.90731C12.2578 4.60739 11.9231 4.38306 11.5598 4.24065L11.4868 4.42686C11.8221 4.55826 12.1338 4.7663 12.4144 5.04837L12.5562 4.90731ZM11.5598 4.24067C11.1938 4.09689 10.7962 4.03212 10.3736 4.04755L10.3809 4.24741C10.7781 4.23291 11.1481 4.29382 11.4867 4.42683L11.5598 4.24067ZM10.3736 4.04755L5.60763 4.21885L5.61481 4.41872L10.3808 4.24742L10.3736 4.04755ZM5.6076 4.21885C5.23053 4.23252 4.88964 4.391 4.63909 4.64157L4.78051 4.78298C4.99674 4.56675 5.29023 4.43049 5.61484 4.41872L5.6076 4.21885ZM4.63909 4.64156C4.38932 4.89134 4.23005 5.23296 4.21638 5.61007L4.41625 5.61732C4.42801 5.29275 4.565 4.9985 4.78051 4.78299L4.63909 4.64156ZM4.21638 5.6101L4.04507 10.3761L4.24494 10.3833L4.41625 5.61729L4.21638 5.6101ZM4.04507 10.3761C4.02965 10.7987 4.09442 11.1962 4.2382 11.5623L4.42436 11.4892C4.29135 11.1506 4.23044 10.7806 4.24494 10.3833L4.04507 10.3761ZM4.23825 11.5624C4.38064 11.9235 4.60413 12.2572 4.90457 12.5584L5.04617 12.4171C4.76309 12.1333 4.55571 11.8222 4.4243 11.4891L4.23825 11.5624ZM4.90466 12.5585L10.8758 18.5296L11.0172 18.3882L5.04608 12.417L4.90466 12.5585ZM11.022 18.5245L11.0227 18.5237L10.8717 18.3925L10.871 18.3933L11.022 18.5245ZM3.1012 10.3428L3.27251 5.57679L3.07264 5.56961L2.90133 10.3356L3.1012 10.3428ZM3.27251 5.57674C3.29478 4.94747 3.55687 4.38253 3.96892 3.97047L3.8275 3.82905C3.38076 4.27579 3.09675 4.88831 3.07264 5.56966L3.27251 5.57674ZM3.96892 3.97047C4.38091 3.55848 4.94587 3.29706 5.5753 3.27406L5.56799 3.0742C4.8868 3.09908 4.2743 3.38226 3.8275 3.82905L3.96892 3.97047ZM5.57524 3.27407L10.3412 3.10276L10.3341 2.90289L5.56805 3.07419L5.57524 3.27407ZM10.3412 3.10276C10.8992 3.08301 11.4226 3.16932 11.9049 3.35919L11.9781 3.17309C11.4685 2.97247 10.9176 2.88224 10.3341 2.90288L10.3412 3.10276ZM11.9049 3.35918C12.3889 3.54986 12.8315 3.84273 13.2256 4.23678L13.367 4.09536C12.9546 3.68301 12.4891 3.3744 11.9782 3.1731L11.9049 3.35918ZM13.2256 4.23678L20.2335 11.2447L20.3749 11.1033L13.367 4.09536L13.2256 4.23678ZM20.2321 11.2433C20.6766 11.7057 20.8992 12.3038 20.8992 12.8991H21.0992C21.0992 12.2541 20.858 11.6058 20.3763 11.1047L20.2321 11.2433ZM20.8992 12.8991C20.8992 13.5095 20.6659 14.1219 20.199 14.5894L20.3406 14.7307C20.8463 14.2242 21.0992 13.5604 21.0992 12.8991H20.8992ZM20.1991 14.5893L14.5535 20.2343L14.6949 20.3758L20.3405 14.7307L20.1991 14.5893ZM14.5549 20.233C14.0925 20.6774 13.4952 20.9 12.8992 20.9V21.1C13.5449 21.1 14.1924 20.8588 14.6935 20.3771L14.5549 20.233ZM12.8992 20.9C12.2888 20.9 11.6764 20.6667 11.2089 20.1999L11.0676 20.3414C11.574 20.8471 12.2379 21.1 12.8992 21.1V20.9ZM11.2089 20.1999L4.23619 13.2295L4.0948 13.3709L11.0675 20.3414L11.2089 20.1999ZM4.23621 13.2295C3.84366 12.8369 3.55007 12.3936 3.35864 11.9066L3.1725 11.9798C3.37454 12.4937 3.68389 12.96 4.09478 13.3709L4.23621 13.2295ZM3.35867 11.9067C3.16947 11.4242 3.08245 10.9009 3.10293 10.343L2.90306 10.3357C2.88164 10.9194 2.97269 11.4703 3.17247 11.9797L3.35867 11.9067ZM3.01146 10.2397L3.00973 10.2396L2.99281 10.4388L2.99454 10.439L3.01146 10.2397Z" fill="black" mask="url(#path-1-outside-1_506_10383)"/>
</g>
</g>
</svg>
