<svg width="28" height="28" viewBox="0 0 28 28" fill="none" xmlns="http://www.w3.org/2000/svg">
<g id="Frame 4620">
<g id="Group">
<path id="Vector" d="M23.8619 7.94921L20.0521 4.13939C19.8666 3.95386 19.565 3.95386 19.3785 4.13939C19.192 4.32492 19.1929 4.62654 19.3785 4.81304L19.936 5.37062L17.7523 7.55433L16.0697 5.87166C15.8841 5.68613 15.5825 5.68613 15.396 5.87166C15.2105 6.05719 15.2105 6.35881 15.396 6.54532L16.0697 7.21897L6.88141 16.4052C6.32383 16.9628 6.32383 17.8676 6.88141 18.4242L5.99047 19.3151C5.52814 19.7824 5.52814 20.5345 5.99047 21.0008L6.15815 21.1684L4.13915 23.1874C3.95362 23.373 3.95362 23.6746 4.13915 23.8611C4.32468 24.0466 4.6263 24.0466 4.8128 23.8611L6.8318 21.8421L6.99947 22.0098C7.22766 22.234 7.52332 22.357 7.84279 22.357C8.16225 22.357 8.46188 22.233 8.6861 22.0098L9.57704 21.1188C9.84393 21.3907 10.2061 21.5375 10.587 21.5375C10.968 21.5375 11.3252 21.3897 11.5971 21.1188L20.7853 11.9306L21.459 12.6042C21.6445 12.7898 21.9461 12.7898 22.1326 12.6042C22.3181 12.4187 22.3181 12.1171 22.1326 11.9306L20.4499 10.2479L22.6337 8.06419L23.1912 8.62177C23.3768 8.8073 23.6784 8.8073 23.8649 8.62177C24.0504 8.43624 24.0504 8.13462 23.8649 7.94812L23.8619 7.94921ZM8.00955 21.3341C7.91926 21.4294 7.76648 21.4294 7.67619 21.3341L6.66618 20.3241C6.57094 20.2338 6.57094 20.081 6.66618 19.9907L7.55712 19.0998L8.90049 20.4432L8.00955 21.3341ZM10.9195 20.4481C10.7429 20.6247 10.4294 20.6247 10.2478 20.4481L7.55224 17.7525C7.37068 17.567 7.37068 17.2624 7.55224 17.0759L8.27352 16.3546L8.95017 17.0313C9.1357 17.2168 9.43732 17.2168 9.62382 17.0313C9.80935 16.8457 9.80935 16.5441 9.62382 16.3576L8.94717 15.681L9.62181 15.0063L10.8034 16.188C10.989 16.3735 11.2906 16.3735 11.4771 16.188C11.6626 16.0024 11.6626 15.7008 11.4771 15.5143L10.2955 14.3327L10.9671 13.661L11.6428 14.3367C11.8283 14.5222 12.1299 14.5222 12.3164 14.3367C12.503 14.1511 12.502 13.8495 12.3164 13.663L11.6408 12.9874L12.3154 12.3127L13.4951 13.4924C13.6806 13.6779 13.9822 13.6779 14.1687 13.4924C14.3543 13.3068 14.3543 13.0052 14.1687 12.8187L12.9891 11.6391L13.6637 10.9644L14.3394 11.6401C14.5249 11.8256 14.8265 11.8256 15.013 11.6401C15.1995 11.4546 15.1986 11.1529 15.013 10.9664L14.3374 10.2908L15.012 9.61613L16.1917 10.7958C16.3772 10.9813 16.6788 10.9813 16.8653 10.7958C17.0508 10.6102 17.0508 10.3086 16.8653 10.1221L15.6857 8.94248L16.7423 7.88584L20.1135 11.257L10.9214 20.4453L10.9195 20.4481ZM19.7732 9.57516L18.4259 8.22783L20.6116 6.04613L21.955 7.3895L19.7732 9.57516Z" fill="#6C6C6C"/>
</g>
</g>
</svg>
