<svg width="16" height="17" viewBox="0 0 16 17" fill="none" xmlns="http://www.w3.org/2000/svg">
<path id="Vector" d="M8 0.5C6.41775 0.5 4.87103 0.969192 3.55544 1.84824C2.23985 2.72729 1.21447 3.97672 0.608967 5.43853C0.00346627 6.90034 -0.15496 8.50887 0.153721 10.0607C0.462403 11.6126 1.22433 13.038 2.34315 14.1569C3.46197 15.2757 4.88743 16.0376 6.43928 16.3463C7.99113 16.655 9.59966 16.4965 11.0615 15.891C12.5233 15.2855 13.7727 14.2602 14.6518 12.9446C15.5308 11.629 16 10.0822 16 8.5C16 7.44942 15.7931 6.40914 15.391 5.43853C14.989 4.46793 14.3997 3.58601 13.6569 2.84315C12.914 2.10028 12.0321 1.511 11.0615 1.10896C10.0909 0.706926 9.05058 0.5 8 0.5ZM12.5408 7.0896L7.7408 11.4896C7.58883 11.6289 7.38892 11.7042 7.18278 11.6998C6.97664 11.6953 6.78019 11.6114 6.6344 11.4656L4.2344 9.0656C4.15799 8.9918 4.09705 8.90353 4.05512 8.80592C4.01319 8.70832 3.99113 8.60334 3.9902 8.49712C3.98928 8.3909 4.00952 8.28555 4.04975 8.18724C4.08997 8.08892 4.14937 7.9996 4.22449 7.92448C4.2996 7.84937 4.38892 7.78997 4.48724 7.74974C4.58556 7.70952 4.6909 7.68928 4.79712 7.6902C4.90335 7.69112 5.00832 7.71319 5.10593 7.75512C5.20353 7.79704 5.2918 7.85799 5.3656 7.9344L7.224 9.7928L11.4592 5.9104C11.6156 5.76697 11.8225 5.69153 12.0345 5.70069C12.2465 5.70984 12.4462 5.80283 12.5896 5.9592C12.733 6.11557 12.8085 6.32252 12.7993 6.53451C12.7902 6.7465 12.6972 6.94617 12.5408 7.0896Z" fill="#00C983"/>
</svg>
