<svg width="28" height="28" viewBox="0 0 28 28" fill="none" xmlns="http://www.w3.org/2000/svg">
<g id="Frame 4620">
<g id="Group">
<g id="Group 4698">
<path id="Vector" d="M24.3049 3.49787L24.2967 3.49221C23.9068 3.22529 23.3983 3.20779 22.9918 3.44817L22.9918 3.44811L22.9887 3.45006C22.541 3.73713 22.2723 4.23484 22.2769 4.76665L22.2768 4.76666L22.277 4.7708C22.3033 5.29535 22.6594 5.67951 23.0436 5.94427C23.4062 6.19412 23.8112 6.35013 24.0449 6.42787C24.4572 7.45368 24.4732 8.597 24.0878 9.63501L24.0876 9.63575C23.0912 12.3861 21.1622 14.1103 19.7121 14.6027C19.3155 14.7373 18.8741 14.7389 18.5109 14.7001C18.1594 14.6625 17.8889 14.5879 17.817 14.567C17.7471 14.5364 17.4913 14.42 17.1975 14.2233C16.8942 14.0202 16.5573 13.7361 16.3394 13.3786C15.5421 12.0702 15.1674 9.51086 16.1669 6.76158L16.2157 6.62741H16.2148C16.5994 5.64395 17.3217 4.82777 18.2547 4.32779C18.6725 4.49777 19.1171 4.59322 19.5679 4.60921C19.9786 4.634 20.3787 4.48167 20.6701 4.1925L20.6704 4.19276L20.6758 4.18633C21.021 3.78079 21.1325 3.22727 20.9743 2.71958L20.9744 2.71955L20.973 2.71565C20.8143 2.27202 20.415 1.96007 19.9461 1.91389C19.4297 1.83724 18.9779 2.09362 18.6334 2.40435C18.3007 2.70454 18.053 3.0685 17.9226 3.28164C16.6261 3.9154 15.6296 5.03124 15.1446 6.39204C13.9516 9.67574 14.5353 12.5087 15.4111 13.9441L15.4404 13.992H15.4445C15.8329 14.5582 16.351 15.0231 16.9548 15.3493L15.4217 19.5725L15.4212 19.5738C15.2723 20.0024 14.9585 20.3523 14.5491 20.5465C14.1395 20.7407 13.6697 20.7638 13.2444 20.6089L13.2442 20.6088C12.8177 20.4549 12.4717 20.1361 12.2826 19.7246L12.2825 19.7245C12.0924 19.3121 12.0763 18.8424 12.2363 18.4189L12.2367 18.4176L12.5382 17.5856L12.5383 17.5855C13.0599 16.1423 12.315 14.55 10.874 14.0249L10.8738 14.0248L10.5501 13.9077L24.3049 3.49787ZM24.3049 3.49787C24.3335 3.51582 24.361 3.53466 24.3874 3.55432M24.3049 3.49787L24.3874 3.55432M24.3874 3.55432L24.5633 3.67472H24.5266M24.3874 3.55432L24.5266 3.67472M24.5266 3.67472C24.8056 3.95389 24.9337 4.34021 24.9863 4.7091C25.0495 5.15274 25.0065 5.5907 24.9699 5.83834C25.5584 7.15565 25.6072 8.65151 25.1072 10.006L25.0831 10.0714H25.0823C23.8862 13.3144 21.6421 15.0929 20.0597 15.6304L20.0584 15.6309C19.6859 15.7513 19.296 15.8105 18.9039 15.8062M24.5266 3.67472L16.3478 19.909L16.4418 19.9431L16.4418 19.9431L17.9755 15.7175C18.2813 15.775 18.5917 15.8051 18.9039 15.8062M18.9039 15.8062C18.9038 15.8062 18.9037 15.8062 18.9035 15.8062L18.9047 15.7062L18.9043 15.8062C18.9042 15.8062 18.9041 15.8062 18.9039 15.8062ZM10.503 15.0437C11.3824 15.3646 11.8361 16.3355 11.5182 17.2147L10.5499 13.9076C9.857 13.6557 9.09233 13.69 8.42489 14.0016L8.42482 14.0017C7.75626 14.3144 7.24014 14.8791 6.98926 15.5721L5.25794 20.3437C3.80341 20.1093 2.39808 21.0062 2.00427 22.4352L2.00426 22.4352C1.60368 23.8907 2.38937 25.4112 3.8095 25.9265L3.80956 25.9265C5.22967 26.4407 6.80641 25.7786 7.43324 24.4038L7.43325 24.4037C8.04709 23.0558 7.54355 21.4659 6.277 20.7132L8.00831 15.9417C8.32826 15.0623 9.30014 14.6077 10.1793 14.9266L10.1794 14.9266L10.503 15.0437ZM19.5489 3.52621C19.4205 3.52242 19.2723 3.4997 19.1213 3.46432C19.2265 3.33788 19.3386 3.22352 19.4471 3.13768C19.5943 3.02122 19.7121 2.97548 19.7895 2.98653C19.8753 2.99955 19.9116 3.02244 19.9265 3.03571C19.9368 3.04482 19.9417 3.05298 19.9463 3.06406L19.9468 3.06633C19.9807 3.20184 19.9538 3.34369 19.8732 3.45616C19.8531 3.47609 19.8187 3.49529 19.7638 3.50872C19.7064 3.52279 19.6338 3.52871 19.5489 3.52621ZM6.49759 23.8102L6.49751 23.8104C6.20375 24.62 5.37901 25.1096 4.5281 24.9794C3.67612 24.8491 3.03615 24.1355 2.99777 23.2754C2.95939 22.4153 3.53383 21.6471 4.36952 21.4422L4.3696 21.4422C5.2064 21.2363 6.07047 21.6501 6.43596 22.4305L6.43605 22.4307C6.63986 22.8636 6.66209 23.3601 6.49759 23.8102ZM23.7214 4.4119L23.7213 4.41208L23.7271 4.4156C23.7585 4.43475 23.7908 4.47071 23.8207 4.52922C23.8503 4.58734 23.8747 4.66215 23.8931 4.75047C23.9212 4.88582 23.9337 5.04533 23.9334 5.20957C23.7947 5.13978 23.6663 5.0622 23.5654 4.98284C23.4986 4.93035 23.4467 4.87929 23.4117 4.83169C23.3783 4.78629 23.3642 4.74951 23.3615 4.72129C23.3719 4.58492 23.4419 4.45883 23.5527 4.37728C23.5644 4.3698 23.5777 4.36578 23.59 4.36527C23.6379 4.36896 23.6837 4.38525 23.7214 4.4119Z" fill="#6C6C6C" stroke="#6C6C6C" stroke-width="0.2"/>
</g>
</g>
</g>
</svg>
