<svg width="18" height="18" viewBox="0 0 18 18" fill="none" xmlns="http://www.w3.org/2000/svg">
<g id="Group 4434">
<g id="Group 4518">
<path id="Vector" d="M13.8545 13.9622C13.7292 14.0743 13.5722 14.1294 13.416 14.1294C13.2351 14.1294 13.0548 14.0551 12.9247 13.9101L12.9244 13.9098L11.9184 12.7835L11.9183 12.7834C11.8106 12.6626 11.7512 12.5061 11.7512 12.3445V10.4521C11.7512 10.0882 12.0461 9.79336 12.41 9.79336C12.7739 9.79336 13.0687 10.0882 13.0687 10.4521V12.0941L13.9069 13.0323L13.7952 13.132L13.9069 13.0323C14.1492 13.3035 14.1256 13.7199 13.8545 13.9622ZM13.8545 13.9622C13.8545 13.9622 13.8544 13.9622 13.8544 13.9623L13.7545 13.8504L13.8545 13.9622Z" fill="black" stroke="black" stroke-width="0.3"/>
<path id="Vector_2" d="M16.4231 9.34593V5.08684C16.4231 3.61366 15.2257 2.41475 13.7524 2.41475H13.1524V1.50874C13.1524 1.14484 12.8576 0.85 12.4937 0.85C12.1298 0.85 11.8349 1.14484 11.8349 1.50874V2.41475H5.43813V1.50874C5.43813 1.14484 5.14329 0.85 4.77939 0.85C4.41548 0.85 4.12064 1.14484 4.12064 1.50874V2.41475H3.52071C2.04802 2.41475 0.85 3.61366 0.85 5.08684V13.4719C0.85 14.9451 2.04738 16.144 3.52071 16.144H9.62487C10.4433 16.7736 11.4665 17.15 12.5774 17.15C15.2526 17.15 17.4284 14.9736 17.4284 12.2983C17.4284 11.1878 17.0523 10.1643 16.4231 9.34593ZM3.52137 3.73223H4.1213V4.97267C4.1213 5.33657 4.41614 5.63141 4.78004 5.63141C5.14395 5.63141 5.43879 5.33657 5.43879 4.97267V3.73223H11.8356V4.97267C11.8356 5.33657 12.1304 5.63141 12.4943 5.63141C12.8582 5.63141 13.1531 5.33657 13.1531 4.97267V3.73223H13.753C14.499 3.73223 15.1063 4.33988 15.1063 5.08684V8.15928C14.37 7.70758 13.5044 7.44606 12.5789 7.44606C9.90371 7.44606 7.72714 9.62245 7.72714 12.2978C7.72714 13.2235 7.9887 14.0892 8.44046 14.8259H3.52071C2.78889 14.8259 2.19062 14.2412 2.16811 13.5138V13.4719V5.08684C2.16811 4.33988 2.77535 3.73223 3.52137 3.73223ZM12.5781 15.8319C10.6294 15.8319 9.04393 14.2465 9.04393 12.2977C9.04393 10.3489 10.6293 8.76348 12.5781 8.76348C14.5269 8.76348 16.1117 10.3489 16.1117 12.2977C16.1117 14.2465 14.5262 15.8319 12.5781 15.8319Z" fill="black" stroke="black" stroke-width="0.3"/>
</g>
</g>
</svg>
