<svg width="24" height="24" viewBox="0 0 24 24" fill="none" xmlns="http://www.w3.org/2000/svg">
<g id="Icon">
<path id="Vector" d="M6.05998 7.69737C5.99234 7.76952 5.94045 7.85449 5.90441 7.94625L5.90405 7.94611L5.90086 7.95634L5.89912 7.96189C5.86857 8.04522 5.85 8.13611 5.85 8.23386C5.85 8.33048 5.86853 8.42234 5.89912 8.50582L5.89942 8.50678L5.90086 8.51136L5.90049 8.51148L5.90441 8.52146C5.94045 8.61322 5.99234 8.69819 6.05998 8.77034L6.05999 8.77035L10.3911 13.389C10.3911 13.389 10.3911 13.389 10.3911 13.3891C10.5313 13.5387 10.7183 13.6161 10.9063 13.6161C11.0943 13.6161 11.2813 13.5387 11.4215 13.389C11.6996 13.0924 11.6996 12.6147 11.4215 12.3181L11.3121 12.4207L11.4215 12.3181L8.30737 8.99639H13.5815C15.7064 8.99639 17.4514 10.8434 17.4514 13.1342V19.3874C17.4514 19.7989 17.7671 20.15 18.1757 20.15C18.5843 20.15 18.9 19.7989 18.9 19.3874V13.1332C18.9 10.0203 16.5238 7.47028 13.5816 7.47028H8.30733L11.4216 4.14751C11.6996 3.85091 11.6996 3.37319 11.4216 3.07658L11.4216 3.07658C11.1383 2.77447 10.6743 2.77448 10.3911 3.07658L10.391 3.07659L6.05998 7.69737ZM6.05998 7.69737L6.16941 7.79996M6.05998 7.69737L6.05997 7.69738L6.16941 7.79996M6.16941 7.79996C6.11581 7.85713 6.0737 7.92554 6.04403 8.00108M6.16941 7.79996L10.5005 3.17917C10.7245 2.94028 11.0882 2.94028 11.3121 3.17917C11.5361 3.41808 11.5361 3.80602 11.3121 4.04492L6.04403 8.00108M6.04403 8.00108L6.04116 8.01027C6.01531 8.07969 6 8.15422 6 8.23386C6 8.31247 6.01531 8.38801 6.04116 8.45744L6.04403 8.00108Z" fill="black" stroke="black" stroke-width="0.3"/>
</g>
</svg>
