<svg width="40" height="40" viewBox="0 0 40 40" fill="none" xmlns="http://www.w3.org/2000/svg">
<g id="Group 4504">
<circle id="Ellipse 10" cx="20" cy="20" r="20" fill="url(#paint0_linear_656_9427)"/>
<g id="Vector">
<mask id="path-2-outside-1_656_9427" maskUnits="userSpaceOnUse" x="5.6665" y="9.83398" width="29" height="21" fill="black">
<rect fill="white" x="5.6665" y="9.83398" width="29" height="21"/>
<path d="M17.6599 19.6079C17.6599 20.1791 17.1976 20.6423 16.6272 20.6423C16.0571 20.6423 15.5945 20.1791 15.5945 19.6079C15.5945 19.0365 16.0571 18.5734 16.6272 18.5734C17.1976 18.5734 17.6599 19.0365 17.6599 19.6079ZM25.2384 19.6079C25.2384 20.1791 24.7761 20.6423 24.2057 20.6423C23.6356 20.6423 23.1733 20.1791 23.1733 19.6079C23.1733 19.0365 23.6356 18.5734 24.2057 18.5734C24.7761 18.5734 25.2384 19.0365 25.2384 19.6079ZM33.7888 24.1364L31.1131 23.6041C31.2545 23.0924 31.3294 22.5633 31.3294 22.0216C31.3294 21.732 31.3005 21.4442 31.258 21.1575L33.7888 20.6541C34.0427 20.6033 34.2078 20.3563 34.1575 20.1019C34.1065 19.8472 33.8578 19.6818 33.6063 19.7326L31.0542 20.2403C30.9894 20.0322 30.9147 19.8256 30.8271 19.6213C30.7386 18.9053 30.5384 18.1941 30.2317 17.5062C30.1383 17.2965 30.0938 17.0525 30.0993 16.7813L30.1936 12.0801C30.2012 11.6846 30.0251 11.3211 29.7105 11.0825C29.3952 10.8437 28.9991 10.7729 28.621 10.888L23.9327 12.3153C21.6591 11.6397 19.1744 11.6395 16.9003 12.3155L12.2117 10.888C11.8345 10.7728 11.4369 10.8438 11.1223 11.0826C10.8076 11.3212 10.6317 11.6848 10.6396 12.0802L10.7339 16.7807C10.7393 17.0519 10.6946 17.2959 10.6009 17.5059C10.2942 18.1951 10.0944 18.9062 10.0064 19.6213C9.91868 19.8257 9.84382 20.0323 9.77891 20.2403L7.22658 19.7326C6.97222 19.6818 6.7261 19.8475 6.67559 20.1019C6.62509 20.3563 6.79018 20.6033 7.04409 20.6541L9.57483 21.1575C9.53233 21.4441 9.50332 21.732 9.50332 22.0216C9.50332 22.5633 9.57828 23.0924 9.71969 23.6041L7.04409 24.1364C6.79018 24.1871 6.62509 24.4342 6.67559 24.6885C6.71984 24.912 6.91576 25.0667 7.13488 25.0667C7.16509 25.0667 7.19576 25.064 7.22658 25.0579L10.0438 24.4974C11.4723 27.6884 15.581 30.0007 20.4166 30.0007C25.252 30.0007 29.3605 27.6883 30.7889 24.4974L33.6063 25.0579C33.6371 25.064 33.6677 25.0667 33.6982 25.0667C33.9173 25.0667 34.1129 24.912 34.1575 24.6885C34.2078 24.4342 34.0427 24.1871 33.7888 24.1364ZM30.1933 23.4211L28.3036 23.0452C28.0525 22.9954 27.8032 23.1602 27.7525 23.4145C27.7021 23.6689 27.8672 23.9159 28.1211 23.9667L29.8479 24.3102C28.4986 27.0716 24.7818 29.0614 20.4166 29.0614C16.0511 29.0614 12.3342 27.0716 10.9849 24.3102L12.7119 23.9667C12.9658 23.9159 13.1309 23.6689 13.0804 23.4145C13.0301 23.1602 12.7838 22.9948 12.5294 23.0452L10.6394 23.4212C10.5096 22.9687 10.4408 22.5007 10.4408 22.0216C10.4408 21.7936 10.4624 21.5666 10.4939 21.3403L12.5294 21.7452C12.5602 21.7513 12.5909 21.7541 12.6211 21.7541C12.8402 21.7541 13.0362 21.5994 13.0804 21.3759C13.1309 21.1215 12.9658 20.8745 12.7119 20.8238L10.7045 20.4244C10.7591 20.2603 10.821 20.0972 10.8925 19.9356C10.9117 19.8919 10.9244 19.8454 10.9297 19.798C11.002 19.1548 11.1795 18.5124 11.457 17.8887C11.6072 17.5515 11.6792 17.1727 11.6711 16.7621L11.5768 12.0613C11.5744 11.9365 11.6455 11.8638 11.6881 11.8314C11.7201 11.8072 11.7781 11.7737 11.8554 11.7737C11.8812 11.7737 11.9093 11.7776 11.9392 11.7866L16.7638 13.2555C16.8534 13.2828 16.9494 13.2822 17.0388 13.2549C19.2177 12.5789 21.6155 12.579 23.7944 13.2547C23.8841 13.2824 23.9797 13.2828 24.0694 13.2553L28.8938 11.7866C29.0126 11.7505 29.1023 11.7988 29.1447 11.8315C29.1874 11.8638 29.2585 11.9367 29.2561 12.0613L29.1618 16.7624C29.1535 17.173 29.2256 17.5521 29.3757 17.889C29.6531 18.5118 29.831 19.1541 29.904 19.7983C29.9092 19.8457 29.9217 19.8919 29.9409 19.9353C30.0123 20.097 30.0741 20.2602 30.1287 20.4244L28.1211 20.8238C27.8672 20.8745 27.7021 21.1215 27.7525 21.3759C27.7971 21.5994 27.9927 21.7541 28.2118 21.7541C28.2423 21.7541 28.2728 21.7513 28.3036 21.7452L30.3389 21.3404C30.3703 21.5667 30.3919 21.7937 30.3919 22.0216C30.3919 22.5007 30.3232 22.9687 30.1933 23.4211ZM22.9366 25.0095C22.9402 25.2688 22.7333 25.4822 22.4745 25.4859C22.4547 25.4862 22.4349 25.4862 22.4153 25.4862C21.6054 25.4862 20.9737 25.2453 20.5371 24.7692C20.4938 24.722 20.4537 24.6736 20.4164 24.6244C20.3791 24.6736 20.3391 24.722 20.2958 24.7692C19.8592 25.2453 19.2273 25.4862 18.4176 25.4862C18.3979 25.4862 18.3782 25.4862 18.3584 25.4859C18.0996 25.4822 17.8927 25.2688 17.8963 25.0095C17.9002 24.75 18.1132 24.5476 18.3718 24.5467C18.9254 24.5592 19.3421 24.4173 19.601 24.1385C19.7402 23.9888 19.8222 23.8112 19.873 23.6426L18.783 22.1769C18.6614 22.0122 18.6424 21.793 18.7333 21.6097C18.8253 21.426 19.0124 21.3105 19.2175 21.3105H21.6154C21.8205 21.3105 22.0076 21.426 22.0996 21.6097C22.1906 21.793 22.1715 22.0122 22.0499 22.1769L20.9598 23.6428C21.0105 23.8113 21.0928 23.9888 21.2319 24.1385C21.4907 24.4173 21.9011 24.5577 22.4611 24.5467C22.4636 24.5467 22.4657 24.5467 22.4678 24.5467C22.7239 24.5467 22.9329 24.7524 22.9366 25.0095Z"/>
</mask>
<path d="M17.6599 19.6079C17.6599 20.1791 17.1976 20.6423 16.6272 20.6423C16.0571 20.6423 15.5945 20.1791 15.5945 19.6079C15.5945 19.0365 16.0571 18.5734 16.6272 18.5734C17.1976 18.5734 17.6599 19.0365 17.6599 19.6079ZM25.2384 19.6079C25.2384 20.1791 24.7761 20.6423 24.2057 20.6423C23.6356 20.6423 23.1733 20.1791 23.1733 19.6079C23.1733 19.0365 23.6356 18.5734 24.2057 18.5734C24.7761 18.5734 25.2384 19.0365 25.2384 19.6079ZM33.7888 24.1364L31.1131 23.6041C31.2545 23.0924 31.3294 22.5633 31.3294 22.0216C31.3294 21.732 31.3005 21.4442 31.258 21.1575L33.7888 20.6541C34.0427 20.6033 34.2078 20.3563 34.1575 20.1019C34.1065 19.8472 33.8578 19.6818 33.6063 19.7326L31.0542 20.2403C30.9894 20.0322 30.9147 19.8256 30.8271 19.6213C30.7386 18.9053 30.5384 18.1941 30.2317 17.5062C30.1383 17.2965 30.0938 17.0525 30.0993 16.7813L30.1936 12.0801C30.2012 11.6846 30.0251 11.3211 29.7105 11.0825C29.3952 10.8437 28.9991 10.7729 28.621 10.888L23.9327 12.3153C21.6591 11.6397 19.1744 11.6395 16.9003 12.3155L12.2117 10.888C11.8345 10.7728 11.4369 10.8438 11.1223 11.0826C10.8076 11.3212 10.6317 11.6848 10.6396 12.0802L10.7339 16.7807C10.7393 17.0519 10.6946 17.2959 10.6009 17.5059C10.2942 18.1951 10.0944 18.9062 10.0064 19.6213C9.91868 19.8257 9.84382 20.0323 9.77891 20.2403L7.22658 19.7326C6.97222 19.6818 6.7261 19.8475 6.67559 20.1019C6.62509 20.3563 6.79018 20.6033 7.04409 20.6541L9.57483 21.1575C9.53233 21.4441 9.50332 21.732 9.50332 22.0216C9.50332 22.5633 9.57828 23.0924 9.71969 23.6041L7.04409 24.1364C6.79018 24.1871 6.62509 24.4342 6.67559 24.6885C6.71984 24.912 6.91576 25.0667 7.13488 25.0667C7.16509 25.0667 7.19576 25.064 7.22658 25.0579L10.0438 24.4974C11.4723 27.6884 15.581 30.0007 20.4166 30.0007C25.252 30.0007 29.3605 27.6883 30.7889 24.4974L33.6063 25.0579C33.6371 25.064 33.6677 25.0667 33.6982 25.0667C33.9173 25.0667 34.1129 24.912 34.1575 24.6885C34.2078 24.4342 34.0427 24.1871 33.7888 24.1364ZM30.1933 23.4211L28.3036 23.0452C28.0525 22.9954 27.8032 23.1602 27.7525 23.4145C27.7021 23.6689 27.8672 23.9159 28.1211 23.9667L29.8479 24.3102C28.4986 27.0716 24.7818 29.0614 20.4166 29.0614C16.0511 29.0614 12.3342 27.0716 10.9849 24.3102L12.7119 23.9667C12.9658 23.9159 13.1309 23.6689 13.0804 23.4145C13.0301 23.1602 12.7838 22.9948 12.5294 23.0452L10.6394 23.4212C10.5096 22.9687 10.4408 22.5007 10.4408 22.0216C10.4408 21.7936 10.4624 21.5666 10.4939 21.3403L12.5294 21.7452C12.5602 21.7513 12.5909 21.7541 12.6211 21.7541C12.8402 21.7541 13.0362 21.5994 13.0804 21.3759C13.1309 21.1215 12.9658 20.8745 12.7119 20.8238L10.7045 20.4244C10.7591 20.2603 10.821 20.0972 10.8925 19.9356C10.9117 19.8919 10.9244 19.8454 10.9297 19.798C11.002 19.1548 11.1795 18.5124 11.457 17.8887C11.6072 17.5515 11.6792 17.1727 11.6711 16.7621L11.5768 12.0613C11.5744 11.9365 11.6455 11.8638 11.6881 11.8314C11.7201 11.8072 11.7781 11.7737 11.8554 11.7737C11.8812 11.7737 11.9093 11.7776 11.9392 11.7866L16.7638 13.2555C16.8534 13.2828 16.9494 13.2822 17.0388 13.2549C19.2177 12.5789 21.6155 12.579 23.7944 13.2547C23.8841 13.2824 23.9797 13.2828 24.0694 13.2553L28.8938 11.7866C29.0126 11.7505 29.1023 11.7988 29.1447 11.8315C29.1874 11.8638 29.2585 11.9367 29.2561 12.0613L29.1618 16.7624C29.1535 17.173 29.2256 17.5521 29.3757 17.889C29.6531 18.5118 29.831 19.1541 29.904 19.7983C29.9092 19.8457 29.9217 19.8919 29.9409 19.9353C30.0123 20.097 30.0741 20.2602 30.1287 20.4244L28.1211 20.8238C27.8672 20.8745 27.7021 21.1215 27.7525 21.3759C27.7971 21.5994 27.9927 21.7541 28.2118 21.7541C28.2423 21.7541 28.2728 21.7513 28.3036 21.7452L30.3389 21.3404C30.3703 21.5667 30.3919 21.7937 30.3919 22.0216C30.3919 22.5007 30.3232 22.9687 30.1933 23.4211ZM22.9366 25.0095C22.9402 25.2688 22.7333 25.4822 22.4745 25.4859C22.4547 25.4862 22.4349 25.4862 22.4153 25.4862C21.6054 25.4862 20.9737 25.2453 20.5371 24.7692C20.4938 24.722 20.4537 24.6736 20.4164 24.6244C20.3791 24.6736 20.3391 24.722 20.2958 24.7692C19.8592 25.2453 19.2273 25.4862 18.4176 25.4862C18.3979 25.4862 18.3782 25.4862 18.3584 25.4859C18.0996 25.4822 17.8927 25.2688 17.8963 25.0095C17.9002 24.75 18.1132 24.5476 18.3718 24.5467C18.9254 24.5592 19.3421 24.4173 19.601 24.1385C19.7402 23.9888 19.8222 23.8112 19.873 23.6426L18.783 22.1769C18.6614 22.0122 18.6424 21.793 18.7333 21.6097C18.8253 21.426 19.0124 21.3105 19.2175 21.3105H21.6154C21.8205 21.3105 22.0076 21.426 22.0996 21.6097C22.1906 21.793 22.1715 22.0122 22.0499 22.1769L20.9598 23.6428C21.0105 23.8113 21.0928 23.9888 21.2319 24.1385C21.4907 24.4173 21.9011 24.5577 22.4611 24.5467C22.4636 24.5467 22.4657 24.5467 22.4678 24.5467C22.7239 24.5467 22.9329 24.7524 22.9366 25.0095Z" fill="white"/>
<path d="M17.6599 19.6079C17.6599 20.1791 17.1976 20.6423 16.6272 20.6423C16.0571 20.6423 15.5945 20.1791 15.5945 19.6079C15.5945 19.0365 16.0571 18.5734 16.6272 18.5734C17.1976 18.5734 17.6599 19.0365 17.6599 19.6079ZM25.2384 19.6079C25.2384 20.1791 24.7761 20.6423 24.2057 20.6423C23.6356 20.6423 23.1733 20.1791 23.1733 19.6079C23.1733 19.0365 23.6356 18.5734 24.2057 18.5734C24.7761 18.5734 25.2384 19.0365 25.2384 19.6079ZM33.7888 24.1364L31.1131 23.6041C31.2545 23.0924 31.3294 22.5633 31.3294 22.0216C31.3294 21.732 31.3005 21.4442 31.258 21.1575L33.7888 20.6541C34.0427 20.6033 34.2078 20.3563 34.1575 20.1019C34.1065 19.8472 33.8578 19.6818 33.6063 19.7326L31.0542 20.2403C30.9894 20.0322 30.9147 19.8256 30.8271 19.6213C30.7386 18.9053 30.5384 18.1941 30.2317 17.5062C30.1383 17.2965 30.0938 17.0525 30.0993 16.7813L30.1936 12.0801C30.2012 11.6846 30.0251 11.3211 29.7105 11.0825C29.3952 10.8437 28.9991 10.7729 28.621 10.888L23.9327 12.3153C21.6591 11.6397 19.1744 11.6395 16.9003 12.3155L12.2117 10.888C11.8345 10.7728 11.4369 10.8438 11.1223 11.0826C10.8076 11.3212 10.6317 11.6848 10.6396 12.0802L10.7339 16.7807C10.7393 17.0519 10.6946 17.2959 10.6009 17.5059C10.2942 18.1951 10.0944 18.9062 10.0064 19.6213C9.91868 19.8257 9.84382 20.0323 9.77891 20.2403L7.22658 19.7326C6.97222 19.6818 6.7261 19.8475 6.67559 20.1019C6.62509 20.3563 6.79018 20.6033 7.04409 20.6541L9.57483 21.1575C9.53233 21.4441 9.50332 21.732 9.50332 22.0216C9.50332 22.5633 9.57828 23.0924 9.71969 23.6041L7.04409 24.1364C6.79018 24.1871 6.62509 24.4342 6.67559 24.6885C6.71984 24.912 6.91576 25.0667 7.13488 25.0667C7.16509 25.0667 7.19576 25.064 7.22658 25.0579L10.0438 24.4974C11.4723 27.6884 15.581 30.0007 20.4166 30.0007C25.252 30.0007 29.3605 27.6883 30.7889 24.4974L33.6063 25.0579C33.6371 25.064 33.6677 25.0667 33.6982 25.0667C33.9173 25.0667 34.1129 24.912 34.1575 24.6885C34.2078 24.4342 34.0427 24.1871 33.7888 24.1364ZM30.1933 23.4211L28.3036 23.0452C28.0525 22.9954 27.8032 23.1602 27.7525 23.4145C27.7021 23.6689 27.8672 23.9159 28.1211 23.9667L29.8479 24.3102C28.4986 27.0716 24.7818 29.0614 20.4166 29.0614C16.0511 29.0614 12.3342 27.0716 10.9849 24.3102L12.7119 23.9667C12.9658 23.9159 13.1309 23.6689 13.0804 23.4145C13.0301 23.1602 12.7838 22.9948 12.5294 23.0452L10.6394 23.4212C10.5096 22.9687 10.4408 22.5007 10.4408 22.0216C10.4408 21.7936 10.4624 21.5666 10.4939 21.3403L12.5294 21.7452C12.5602 21.7513 12.5909 21.7541 12.6211 21.7541C12.8402 21.7541 13.0362 21.5994 13.0804 21.3759C13.1309 21.1215 12.9658 20.8745 12.7119 20.8238L10.7045 20.4244C10.7591 20.2603 10.821 20.0972 10.8925 19.9356C10.9117 19.8919 10.9244 19.8454 10.9297 19.798C11.002 19.1548 11.1795 18.5124 11.457 17.8887C11.6072 17.5515 11.6792 17.1727 11.6711 16.7621L11.5768 12.0613C11.5744 11.9365 11.6455 11.8638 11.6881 11.8314C11.7201 11.8072 11.7781 11.7737 11.8554 11.7737C11.8812 11.7737 11.9093 11.7776 11.9392 11.7866L16.7638 13.2555C16.8534 13.2828 16.9494 13.2822 17.0388 13.2549C19.2177 12.5789 21.6155 12.579 23.7944 13.2547C23.8841 13.2824 23.9797 13.2828 24.0694 13.2553L28.8938 11.7866C29.0126 11.7505 29.1023 11.7988 29.1447 11.8315C29.1874 11.8638 29.2585 11.9367 29.2561 12.0613L29.1618 16.7624C29.1535 17.173 29.2256 17.5521 29.3757 17.889C29.6531 18.5118 29.831 19.1541 29.904 19.7983C29.9092 19.8457 29.9217 19.8919 29.9409 19.9353C30.0123 20.097 30.0741 20.2602 30.1287 20.4244L28.1211 20.8238C27.8672 20.8745 27.7021 21.1215 27.7525 21.3759C27.7971 21.5994 27.9927 21.7541 28.2118 21.7541C28.2423 21.7541 28.2728 21.7513 28.3036 21.7452L30.3389 21.3404C30.3703 21.5667 30.3919 21.7937 30.3919 22.0216C30.3919 22.5007 30.3232 22.9687 30.1933 23.4211ZM22.9366 25.0095C22.9402 25.2688 22.7333 25.4822 22.4745 25.4859C22.4547 25.4862 22.4349 25.4862 22.4153 25.4862C21.6054 25.4862 20.9737 25.2453 20.5371 24.7692C20.4938 24.722 20.4537 24.6736 20.4164 24.6244C20.3791 24.6736 20.3391 24.722 20.2958 24.7692C19.8592 25.2453 19.2273 25.4862 18.4176 25.4862C18.3979 25.4862 18.3782 25.4862 18.3584 25.4859C18.0996 25.4822 17.8927 25.2688 17.8963 25.0095C17.9002 24.75 18.1132 24.5476 18.3718 24.5467C18.9254 24.5592 19.3421 24.4173 19.601 24.1385C19.7402 23.9888 19.8222 23.8112 19.873 23.6426L18.783 22.1769C18.6614 22.0122 18.6424 21.793 18.7333 21.6097C18.8253 21.426 19.0124 21.3105 19.2175 21.3105H21.6154C21.8205 21.3105 22.0076 21.426 22.0996 21.6097C22.1906 21.793 22.1715 22.0122 22.0499 22.1769L20.9598 23.6428C21.0105 23.8113 21.0928 23.9888 21.2319 24.1385C21.4907 24.4173 21.9011 24.5577 22.4611 24.5467C22.4636 24.5467 22.4657 24.5467 22.4678 24.5467C22.7239 24.5467 22.9329 24.7524 22.9366 25.0095Z" stroke="white" stroke-width="0.5" mask="url(#path-2-outside-1_656_9427)"/>
</g>
</g>
<defs>
<linearGradient id="paint0_linear_656_9427" x1="20" y1="0" x2="20" y2="40" gradientUnits="userSpaceOnUse">
<stop stop-color="#D2C7FF"/>
<stop offset="1" stop-color="#7F73E3"/>
</linearGradient>
</defs>
</svg>
