<svg width="24" height="24" viewBox="0 0 24 24" fill="none" xmlns="http://www.w3.org/2000/svg">
<g id="Icon">
<path id="Vector" d="M18.9594 17.3563L13.7838 12.1808L13.4916 12.3211C13.4916 12.3211 13.4915 12.3211 13.4915 12.3211C13.0249 12.5476 12.5131 12.6611 11.9991 12.6611C11.4859 12.6611 10.9717 12.5467 10.5025 12.3194L18.9594 17.3563ZM18.9594 17.3563H5.03882L10.2144 12.1808L10.5023 12.3193L18.9594 17.3563ZM2.94044 7.22012L2.9404 7.22033C2.90818 7.36301 2.89954 7.50326 2.90157 7.63795C2.90071 7.64294 2.9 7.64913 2.9 7.65618V16.574C2.9 17.1197 3.11596 17.6148 3.4656 17.9806V17.9829L3.49187 18.0093C3.49228 18.0098 3.4927 18.0102 3.49313 18.0106L3.49462 18.0121C3.49466 18.0121 3.4947 18.0122 3.49475 18.0122C3.86385 18.384 4.37606 18.6152 4.94029 18.6152H19.0588C19.6089 18.6152 20.1087 18.3963 20.4763 18.0417H20.4785L20.5078 18.0124C20.5138 18.0063 20.5182 18.0005 20.5212 17.9961C20.8789 17.6286 21.1 17.1275 21.1 16.5758V7.65615C21.1 7.64833 21.0992 7.64176 21.0984 7.63698C21.0984 7.63687 21.0984 7.63676 21.0984 7.63665C21.1006 7.50207 21.0921 7.36225 21.0587 7.21986C20.8788 6.43158 20.2129 5.9 19.4039 5.9H4.59529C3.78624 5.9 3.12022 6.4317 2.94044 7.22012ZM2.90587 7.62102C2.90612 7.62025 2.90621 7.62001 2.90601 7.62059L2.90587 7.62102ZM20.5042 18.0142C20.5048 18.0136 20.5043 18.0141 20.503 18.0154C20.5034 18.015 20.5038 18.0146 20.5042 18.0142ZM20.514 18.0036L20.5146 18.0029L20.514 18.0036ZM12.944 11.1861L12.9436 11.1863C12.3519 11.4737 11.6438 11.4738 11.0493 11.1845L11.0489 11.1843L4.50131 8.03745C4.47961 8.02645 4.45931 8.02271 4.44896 8.02097C4.44234 8.015 4.42888 8.00318 4.41182 7.9937L4.4119 7.99354L4.40646 7.99093C4.25508 7.9184 4.19491 7.81652 4.171 7.72558C4.14596 7.63035 4.15932 7.54027 4.16867 7.49811C4.17855 7.45616 4.2053 7.36953 4.2689 7.29476C4.32962 7.22338 4.42789 7.15758 4.59618 7.15758H19.4039C19.5717 7.15758 19.6703 7.22337 19.7313 7.29487C19.7954 7.37002 19.8222 7.45705 19.8313 7.49778L19.8315 7.49863C19.8411 7.53932 19.8549 7.62942 19.8298 7.725C19.806 7.81593 19.7458 7.91807 19.5943 7.99102L19.5755 8.00009L19.571 8.00533C19.5624 8.01129 19.5558 8.01691 19.5517 8.02046L19.5504 8.02069C19.5401 8.02253 19.5191 8.02634 19.4968 8.03728C19.4965 8.03743 19.4962 8.03758 19.4959 8.03774L12.944 11.1861ZM4.15893 16.4561V9.27009L9.01239 11.6027L4.15893 16.4561ZM19.8412 16.4552L14.9878 11.6018L19.8412 9.26921L19.8412 16.4552Z" fill="#764BE2" stroke="#764BE2" stroke-width="0.2"/>
</g>
</svg>
