<svg width="102" height="80" viewBox="0 0 102 80" fill="none" xmlns="http://www.w3.org/2000/svg">
<g id="Group 4505">
<g id="Group 4503" opacity="0.3">
<g id="Group 4479">
<path id="Vector" d="M77.9459 63.4808C70.5262 68.9898 62.6411 74.041 53.9204 77.0977C45.1996 80.156 35.5285 81.1152 26.6851 78.421C19.0268 76.0874 12.2544 71.0388 7.68166 64.4663C3.11051 57.894 0.735692 49.8527 0.821329 41.8502C0.906778 33.8451 3.4233 25.9091 7.81274 19.2167C12.2044 12.523 18.4345 7.08096 25.5729 3.45864C29.7478 1.34143 34.3498 -0.182995 39.0281 0.0177488C42.9878 0.188831 46.786 1.57914 50.4428 3.10619C54.0989 4.63447 57.7252 6.32605 61.6002 7.15526C67.5732 8.43336 73.7674 7.59209 79.8758 7.68981C82.9281 7.73842 86.0036 8.02895 88.9243 8.9209C91.8458 9.81415 94.6186 11.3398 96.6795 13.5951C98.1421 15.1941 99.2146 17.1213 99.988 19.1455C101.573 23.2968 101.915 27.8763 101.234 32.2678C100.555 36.6574 98.8763 40.8622 96.5823 44.6656C91.9949 52.2743 85.0796 58.1835 77.9459 63.4808Z" fill="url(#paint0_linear_90_3158)"/>
<g id="Mask group">
<mask id="mask0_90_3158" style="mask-type:alpha" maskUnits="userSpaceOnUse" x="0" y="0" width="102" height="80">
<path id="Vector_2" d="M77.5606 63.4808C70.1409 68.9898 62.2558 74.041 53.5351 77.0977C44.8143 80.156 35.1433 81.1152 26.2999 78.421C18.6416 76.0874 11.8691 71.0388 7.2964 64.4663C2.72526 57.894 0.350438 49.8527 0.436075 41.8502C0.521524 33.8451 3.03804 25.9091 7.42748 19.2167C11.8192 12.523 18.0492 7.08096 25.1877 3.45864C29.3625 1.34143 33.9646 -0.182995 38.6429 0.0177488C42.6025 0.188831 46.4007 1.57914 50.0575 3.10619C53.7136 4.63447 57.34 6.32605 61.215 7.15526C67.188 8.43336 73.3822 7.59209 79.4905 7.68981C82.5429 7.73842 85.6183 8.02895 88.539 8.9209C91.4606 9.81415 94.2334 11.3398 96.2943 13.5951C97.7568 15.1941 98.8294 17.1213 99.6027 19.1455C101.188 23.2968 101.529 27.8763 100.849 32.2678C100.169 36.6574 98.4911 40.8622 96.1971 44.6656C91.6097 52.2743 84.6943 58.1835 77.5606 63.4808Z" fill="url(#paint1_linear_90_3158)"/>
</mask>
<g mask="url(#mask0_90_3158)">
<path id="Vector_3" d="M38.6975 51.7595C38.4578 51.1152 38.3319 50.435 38.326 49.7489C38.302 48.7691 38.1042 47.8012 37.7387 46.8903C38.1162 45.1164 38.3799 43.3216 38.5357 41.5178C40.1837 41.1582 41.7988 40.6518 43.3599 40.0046C44.9031 40.1095 51.1503 40.2683 54.1619 36.316C55.5043 34.5541 55.9986 32.9451 55.6331 31.5308C55.3545 30.5031 54.6383 29.6461 53.6765 29.1906C53.5836 29.1517 53.4877 29.1217 53.3888 29.1067C49.2059 28.3996 45.0592 27.1351 44.5199 26.404C44.3221 26.1014 44.1484 25.7867 43.9955 25.4631C42.7401 22.9911 40.4208 18.4246 30.65 18.8411C30.4582 18.8022 30.2605 18.8081 30.0717 18.8591L29.9039 18.904L29.8829 18.91C27.9742 19.4464 21.6192 21.4809 19.9109 25.1335C19.3237 26.3681 19.3237 27.8003 19.9079 29.0378C20.3274 30.0086 20.9327 30.8866 21.6938 31.6207C21.526 31.7225 21.3851 31.8634 21.2833 32.0312C16.1055 40.7206 3.97347 43.2466 3.84997 43.2703C3.826 43.2763 3.79903 43.2823 3.77506 43.2883C2.9121 43.516 2.0012 43.7168 1.0633 43.8816H1.0663C0.437058 43.9925 -0.00338845 44.5648 0.0535285 45.2001C0.107464 45.8353 0.640823 46.3237 1.27908 46.3237C1.351 46.3237 1.42291 46.3177 1.49482 46.3057C2.48665 46.1319 3.45447 45.9192 4.37434 45.6765C5.31823 45.4817 17.756 42.7639 23.4016 33.292H23.3986C23.4855 33.1452 23.5394 32.9834 23.5604 32.8156C24.2256 33.0733 24.9298 33.1992 25.6429 33.1872C27.9771 33.1812 30.1135 31.8598 31.1592 29.7713C32.0911 27.602 31.8244 23.4579 31.5967 21.2767C39.0457 21.1928 40.6965 24.4049 41.7995 26.5774H41.8025C42.0123 27.0238 42.258 27.4553 42.5366 27.8628C43.9869 29.8195 50.4797 31.099 52.7694 31.4975C53.0121 31.6533 53.1859 31.893 53.2578 32.1717C53.4047 32.7979 53.0331 33.7418 52.2061 34.8234C49.6712 38.1494 43.3456 37.5352 43.2827 37.5261C43.067 37.5052 42.8482 37.5411 42.6475 37.628C40.8886 38.3741 39.0548 38.9284 37.1761 39.279C36.6188 39.3749 36.1993 39.8363 36.1574 40.3996C36.0465 41.8738 35.8967 43.1952 35.6989 44.4297C34.9378 43.8544 34.1138 43.366 33.2419 42.9705C33.2299 41.5922 33.3977 40.2169 33.7393 38.8805C33.9131 38.476 33.8561 38.0086 33.5925 37.6579C33.3258 37.3044 32.8943 37.1216 32.4568 37.1755C32.0972 37.2205 23.6263 38.3321 19.7134 44.5286C16.5103 49.5985 16.2735 51.4472 15.8001 55.1296C15.7102 55.8217 15.6143 56.5888 15.4825 57.4668C14.5895 63.5045 12.6389 66.7614 8.75563 68.7029C8.18932 68.9845 7.56605 69.2782 6.90384 69.5928C6.31954 69.8685 5.70529 70.1591 5.07007 70.4677L5.07307 70.4618C4.47079 70.7644 4.22207 71.4955 4.51873 72.1037C4.81538 72.712 5.54347 72.9667 6.15475 72.6761C6.778 72.3704 7.38329 72.0858 7.9586 71.8161C8.63878 71.4955 9.27705 71.1928 9.85834 70.9022C15.6863 67.9867 17.2055 62.6562 17.9218 57.8259C18.0537 56.9329 18.1555 56.1509 18.2454 55.4437C18.6979 51.914 18.8867 50.4518 21.7961 45.843C24.1004 42.1964 28.526 40.6084 30.9918 39.9821V39.9791C30.842 41.2346 30.7671 42.4991 30.7671 43.7636C30.7671 44.261 31.0667 44.7075 31.5222 44.8992C35.6243 46.6192 35.7321 48.0784 35.87 49.9272C35.8939 50.895 36.0857 51.8508 36.4453 52.7498C36.8228 53.6067 37.3052 54.4128 37.8776 55.1529C38.4559 55.9319 38.5308 56.0308 38.2341 57.0017C37.5449 59.252 34.9501 59.24 32.8946 58.8354C31.1088 58.4819 29.8712 58.7126 29.1191 59.5426V59.5396C28.5588 60.1928 28.37 61.0827 28.6187 61.9037C28.6427 61.9876 28.6787 62.0685 28.7206 62.1464C28.7416 62.1854 30.917 66.2125 31.3784 73.1071C31.6121 75.741 31.6211 78.3927 31.3993 81.0295C31.3634 81.3531 31.4593 81.6797 31.663 81.9344C31.8668 82.1891 32.1634 82.3509 32.487 82.3868C32.532 82.3928 32.5799 82.3958 32.6249 82.3958C33.2511 82.3928 33.7785 81.9224 33.8474 81.2991C34.0841 78.5185 34.0811 75.7229 33.8354 72.9419C33.6497 68.8788 32.6878 64.8876 30.9949 61.1872C31.4683 61.1003 31.9537 61.1213 32.4152 61.2502C36.6041 62.0801 39.6604 60.7588 40.5891 57.7204C41.1555 56.348 40.8678 54.7689 39.855 53.6843C39.3906 53.091 39.001 52.4468 38.6984 51.7576L38.6975 51.7595ZM28.8966 28.8009C28.2284 29.9845 26.9789 30.7156 25.6216 30.7246H25.5946C24.1324 30.7246 22.9458 29.7928 22.1547 28.0309H22.1517C21.8581 27.4466 21.8551 26.7604 22.1398 26.1761C23.0447 24.2404 26.5265 22.6164 29.1663 21.7145C29.406 24.1655 29.4899 27.4196 28.8966 28.8009Z" fill="white"/>
</g>
</g>
<path id="Vector_4" d="M87.4473 29.0058H81.1339V22.6924C81.1339 22.3658 81.0051 22.0542 80.7743 21.8235C80.5436 21.5928 80.232 21.4609 79.9054 21.4609H72.7411C72.0609 21.4609 71.5095 22.0123 71.5095 22.6925V29.0059H65.1961C64.516 29.0059 63.9676 29.5572 63.9646 30.2374V37.4017V37.3987C63.9676 38.0789 64.5159 38.6303 65.1961 38.6303H71.5095V44.9437C71.5095 45.6239 72.0609 46.1752 72.7411 46.1752H79.9054C80.5826 46.1752 81.1339 45.6239 81.1339 44.9437V38.6303H87.4473C88.1275 38.6303 88.6789 38.0789 88.6789 37.3987V30.2374C88.6789 29.5572 88.1275 29.0058 87.4473 29.0058Z" fill="white"/>
</g>
</g>
</g>
<defs>
<linearGradient id="paint0_linear_90_3158" x1="71.1509" y1="-1.67481" x2="25.6753" y2="78.7916" gradientUnits="userSpaceOnUse">
<stop stop-color="#F6C6FA"/>
<stop offset="1" stop-color="#7F73E3"/>
</linearGradient>
<linearGradient id="paint1_linear_90_3158" x1="70.7657" y1="-1.67481" x2="25.2901" y2="78.7916" gradientUnits="userSpaceOnUse">
<stop stop-color="#D2C7FF"/>
<stop offset="1" stop-color="#764BE2"/>
</linearGradient>
</defs>
</svg>
