<svg width="102" height="80" viewBox="0 0 102 80" fill="none" xmlns="http://www.w3.org/2000/svg">
<g id="Group 4510" opacity="0.3">
<g id="Group 4369">
<path id="Vector" d="M78.0858 63.4808C70.6661 68.9898 62.781 74.041 54.0602 77.0977C45.3395 80.156 35.6684 81.1152 26.825 78.421C19.1667 76.0874 12.3943 71.0388 7.82155 64.4663C3.2504 57.894 0.875584 49.8527 0.961221 41.8502C1.04667 33.8451 3.56319 25.9091 7.95263 19.2167C12.3443 12.523 18.5744 7.08096 25.7128 3.45864C29.8877 1.34143 34.4897 -0.182995 39.168 0.0177488C43.1277 0.188831 46.9259 1.57914 50.5827 3.10619C54.2388 4.63447 57.8651 6.32605 61.7401 7.15526C67.7131 8.43336 73.9073 7.59209 80.0157 7.68981C83.068 7.73842 86.1435 8.02895 89.0642 8.9209C91.9857 9.81415 94.7585 11.3398 96.8194 13.5951C98.282 15.1941 99.3545 17.1213 100.128 19.1455C101.713 23.2968 102.055 27.8763 101.374 32.2678C100.694 36.6574 99.0162 40.8622 96.7222 44.6656C92.1348 52.2743 85.2195 58.1835 78.0858 63.4808Z" fill="url(#paint0_linear_90_3170)"/>
</g>
<g id="Group">
<path id="Vector_2" d="M31.7998 35.3072L31.1912 43.2231C30.9426 46.476 29.7705 49.5877 27.8118 52.1951L27.1861 53.0286H27.1883C26.9804 53.3051 26.9097 53.6586 26.9933 53.9929C27.0769 54.3251 27.3061 54.6036 27.619 54.7493C31.0712 56.2236 34.7033 57.2372 38.4193 57.7644C38.7386 61.2958 41.7001 64 45.2441 64C48.7905 64 51.7519 61.2957 52.0711 57.7644C55.7868 57.2372 59.4193 56.2236 62.8714 54.7493C63.1822 54.6036 63.4136 54.3251 63.4972 53.9929C63.5807 53.6586 63.5079 53.3051 63.3022 53.0286L62.6764 52.1951C60.72 49.5872 59.5479 46.4756 59.2993 43.2231L58.7293 35.8218C58.5536 32.9825 57.51 30.2675 55.7443 28.0386C53.9764 25.8079 51.57 24.175 48.8465 23.3543C49.4701 22.5614 49.8129 21.5821 49.8172 20.5707C49.8172 18.0464 47.7708 16 45.2444 16C42.72 16 40.6736 18.0465 40.6736 20.5707C40.6779 21.58 41.0186 22.5593 41.6422 23.3522C38.9722 24.0915 36.5915 25.6343 34.83 27.775C33.0686 29.9136 32.0098 32.5453 31.7998 35.3072ZM45.2442 61.7139C43.0714 61.7118 41.2006 60.1818 40.7656 58.0518C43.7442 58.3646 46.7462 58.3646 49.7249 58.0518C49.2899 60.1818 47.4171 61.7118 45.2442 61.7139ZM45.2442 18.2866C46.1699 18.2866 47.0035 18.8438 47.3571 19.6966C47.7107 20.5516 47.5157 21.5352 46.8621 22.1888C46.2085 22.8424 45.2249 23.0374 44.3699 22.6838C43.5171 22.3302 42.9599 21.4966 42.9599 20.5709C42.9599 19.3109 43.9842 18.2866 45.2442 18.2866ZM38.087 27.7303V27.7282C40.4227 25.7803 43.4505 24.8718 46.4719 25.2081C49.1334 25.5596 51.5869 26.8303 53.4103 28.8017C55.2317 30.7732 56.3074 33.3189 56.451 35.9974L57.021 43.3987H57.0189C57.2889 46.9366 58.5232 50.3311 60.5889 53.2133C55.6753 55.0283 50.4831 55.9711 45.2437 56.0011C40.0065 55.9711 34.812 55.0283 29.8984 53.2133C30.5091 52.3561 31.047 51.4519 31.5098 50.5068C35.9606 51.874 40.5893 52.5704 45.2434 52.5725C47.067 52.5704 48.8862 52.4654 50.697 52.2533C51.3248 52.1804 51.7727 51.6125 51.6998 50.9868C51.627 50.359 51.0591 49.9111 50.4312 49.984C44.3777 50.6825 38.2469 50.1383 32.4117 48.3854C32.9817 46.7761 33.3374 45.1003 33.4703 43.3989L34.0789 35.483H34.0767C34.2996 32.4594 35.7482 29.6588 38.086 27.7278L38.087 27.7303Z" fill="white"/>
<path id="Vector_3" d="M65.8157 16C63.3921 16 61.0649 16.9643 59.3508 18.6786C57.6366 20.3929 56.6743 22.7179 56.6743 25.1435C56.6743 27.5671 57.6365 29.8943 59.3508 31.6085C61.065 33.3226 63.3922 34.2849 65.8157 34.2849C68.2414 34.2849 70.5665 33.3228 72.2806 31.6085C73.9948 29.8942 74.9592 27.567 74.9592 25.1435C74.9571 22.7178 73.9928 20.395 72.2785 18.6808C70.5642 16.9666 68.2413 16.0021 65.8157 16ZM65.8157 32.0008C63.0428 32.0008 60.5421 30.3294 59.4813 27.7665C58.4205 25.2036 59.0056 22.255 60.9684 20.2943C62.9292 18.3336 65.8777 17.7465 68.4406 18.8072C71.0035 19.8701 72.6727 22.3687 72.6727 25.1438C72.6684 28.9281 69.6021 31.9964 65.8157 32.0008Z" fill="white"/>
<path id="Vector_4" d="M66.9602 24.6706V21.7156C66.9602 21.0834 66.4481 20.5713 65.816 20.5713C65.186 20.5713 64.6738 21.0834 64.6738 21.7156V25.1441C64.6738 25.4463 64.7938 25.7377 65.0081 25.952L66.1503 27.0942H66.1524C66.3645 27.3127 66.656 27.4349 66.9624 27.437C67.2667 27.437 67.5603 27.317 67.7746 27.1006C67.991 26.8863 68.111 26.5927 68.1089 26.2884C68.1089 25.9841 67.9846 25.6927 67.7682 25.4784L66.9602 24.6706Z" fill="white"/>
</g>
</g>
<defs>
<linearGradient id="paint0_linear_90_3170" x1="71.2908" y1="-1.67481" x2="25.8152" y2="78.7916" gradientUnits="userSpaceOnUse">
<stop stop-color="#FFA5B6"/>
<stop offset="1" stop-color="#764BE2"/>
</linearGradient>
</defs>
</svg>
