<svg width="18" height="15" viewBox="0 0 18 15" fill="none" xmlns="http://www.w3.org/2000/svg">
<g id="Group 4433">
<path id="Vector" d="M9.40236 6.66788L9.40215 6.66116L9.28442 6.65778C7.88164 6.61756 6.48385 7.36773 4.9722 8.94676C3.88482 9.92759 3.30523 11.2384 3.54136 12.306L3.54142 12.3063C3.60582 12.5948 3.74398 12.9331 4.0302 13.2477C4.31659 13.5625 4.74564 13.8473 5.38227 14.0371L5.38219 14.0373L5.39037 14.0392C5.65792 14.0998 5.93395 14.1247 6.20315 14.1247C6.6939 14.1247 7.19258 14.0504 7.67103 13.9779C7.69605 13.9741 7.72095 13.9703 7.74573 13.9666C8.23378 13.8927 8.67713 13.8256 9.10608 13.8434L9.10607 13.8436H9.11128H9.15975H9.20337V13.8436L9.20727 13.8435C9.6591 13.8294 10.1273 13.8999 10.6386 13.9778L10.6388 13.9779L10.6583 13.9808C11.2944 14.0765 11.9734 14.1786 12.6646 14.0947L12.6661 14.0945C13.6123 13.968 14.3427 13.4281 14.6566 12.6047C15.0046 11.6938 14.7817 10.6239 14.0924 9.80879L14.0923 9.80868C12.3542 7.75796 10.8998 6.75938 9.40236 6.66788ZM4.74039 12.0393L4.7404 12.0393L4.74014 12.0382C4.67596 11.7537 4.74118 11.385 4.93143 10.9887C5.12053 10.5948 5.42751 10.186 5.82627 9.82731L5.82651 9.82757L5.83302 9.82077C7.10106 8.49487 8.19932 7.877 9.18405 7.877H9.25494C10.3783 7.91005 11.5824 8.72259 13.1648 10.5907L13.1648 10.5907C13.573 11.0722 13.7007 11.6891 13.5215 12.1617C13.3715 12.5513 13.0191 12.8093 12.5117 12.8821C11.9945 12.9471 11.4361 12.8636 10.8267 12.771C10.3003 12.6889 9.74218 12.6046 9.17209 12.6241H9.15223C8.59653 12.6046 8.02857 12.6889 7.49286 12.771L7.45969 12.7759C6.78235 12.8768 6.17429 12.9674 5.70208 12.8609C5.11993 12.683 4.81859 12.4016 4.74039 12.0393Z" fill="black" stroke="black" stroke-width="0.25"/>
<path id="Vector_2" d="M4.73947 3.95145L4.61524 3.96525C4.69517 4.68462 4.96536 5.344 5.38116 5.83082L5.38159 5.83131C5.79824 6.31404 6.33499 6.58713 6.8915 6.58713L6.89579 6.58713C6.94524 6.58714 7.01102 6.58715 7.07419 6.57621C7.68771 6.50653 8.22735 6.10328 8.56215 5.48437L8.56239 5.48393C8.86646 4.91631 8.99089 4.21186 8.91085 3.49647C8.83093 2.78218 8.56085 2.11791 8.14495 1.63099L8.14481 1.63082C7.68705 1.09676 7.06201 0.816661 6.45588 0.885158C5.84072 0.953553 5.29947 1.35721 4.96395 1.97745L4.96395 1.97744L4.96371 1.97789C4.65963 2.54551 4.5352 3.24996 4.61525 3.96534L4.73947 3.95145ZM4.73947 3.95145C4.66192 3.25833 4.78309 2.57977 5.0739 2.03692L7.0563 6.45244C7.00298 6.46213 6.94482 6.46213 6.8915 6.46213C6.37772 6.46213 5.87364 6.21009 5.47621 5.74963C5.07878 5.28433 4.81702 4.6494 4.73947 3.95145ZM6.9545 5.49763L6.9403 5.37343C6.80718 5.38865 6.68399 5.34671 6.57362 5.27773C6.46279 5.20845 6.3717 5.11601 6.30731 5.04247C6.05576 4.75029 5.87944 4.31542 5.82831 3.83642L5.8283 3.83628C5.77713 3.36186 5.85734 2.89359 6.03727 2.55622L6.05202 2.52856L6.05201 2.52481C6.09701 2.44594 6.16229 2.3499 6.24707 2.26798C6.34002 2.17819 6.45054 2.11083 6.57923 2.09406H6.6346C6.88017 2.09406 7.09463 2.28587 7.21858 2.42886C7.47025 2.72104 7.64664 3.15601 7.69779 3.63514L7.6978 3.63528C7.74895 4.10955 7.66881 4.57768 7.489 4.91503C7.44404 4.99815 7.37369 5.10724 7.27902 5.1987C7.18445 5.29007 7.07168 5.3582 6.9401 5.37346L6.9545 5.49763ZM6.9545 5.49763C6.6152 5.5364 6.34864 5.27952 6.21293 5.12442M6.9545 5.49763C7.28892 5.45885 7.50219 5.1535 7.59912 4.97416C7.793 4.61064 7.8754 4.11627 7.82208 3.62187L6.21293 5.12442M6.21293 5.12442C5.94151 4.80938 5.75731 4.34892 5.70402 3.84968M6.21293 5.12442L5.92697 2.4974C5.7331 2.86092 5.6507 3.35529 5.70402 3.84968M5.70402 3.84968L5.70402 3.84968L5.70402 3.84968Z" fill="black" stroke="black" stroke-width="0.25"/>
<path id="Vector_3" d="M11.2448 6.57651L11.2448 6.57653L11.2473 6.57676C11.3004 6.58158 11.3638 6.58697 11.4234 6.58697C11.9799 6.58697 12.5166 6.31391 12.9333 5.83122C13.3544 5.34414 13.6247 4.67951 13.6997 3.96474C13.7796 3.24492 13.6553 2.54038 13.351 1.9773L13.351 1.97726C13.0154 1.35702 12.4741 0.953314 11.8589 0.884965L11.8589 0.88496L11.8579 0.884853C11.2435 0.821836 10.6285 1.09598 10.1703 1.63044C9.74925 2.11751 9.47907 2.78205 9.40402 3.49672C9.3241 4.21172 9.4484 4.92109 9.75275 5.48416L9.75277 5.4842C10.0883 6.10444 10.6296 6.50816 11.2448 6.57651ZM10.6214 3.62539L10.622 3.62542C10.6731 3.15079 10.8496 2.71103 11.1012 2.41899C11.2251 2.27602 11.4396 2.0842 11.6852 2.0842H11.7405C11.8692 2.10097 11.9797 2.16833 12.0727 2.25813C12.1675 2.34971 12.2379 2.45895 12.2828 2.54211L12.2831 2.54263C12.4668 2.87868 12.5427 3.34609 12.4915 3.82155C12.4403 4.29625 12.2637 4.73607 12.0121 5.02811L12.0121 5.0281L12.0113 5.02909C11.8836 5.1804 11.6502 5.38522 11.3787 5.35862C11.2475 5.34314 11.1351 5.27512 11.0408 5.18397C10.946 5.09239 10.8756 4.98315 10.8306 4.89999L10.8303 4.89948C10.6472 4.56456 10.5712 4.09918 10.6214 3.62539Z" fill="black" stroke="black" stroke-width="0.25"/>
<path id="Vector_4" d="M3.82096 8.59803C4.31117 8.37955 4.64795 7.90427 4.75574 7.31397L4.78266 7.16652H4.77326C4.83151 6.67784 4.74284 6.14349 4.51903 5.64565C4.27271 5.09771 3.88875 4.64061 3.42812 4.35912L3.42803 4.35906C2.91553 4.04644 2.33864 3.97775 1.84779 4.20156C1.36407 4.41706 1.05343 4.8587 0.932683 5.39051C0.812053 5.92181 0.878758 6.54803 1.15014 7.15361L1.15023 7.15381C1.58037 8.10909 2.39253 8.73004 3.20296 8.73004C3.41406 8.73004 3.62048 8.6877 3.82096 8.59803ZM3.82096 8.59803C3.82095 8.59803 3.82094 8.59804 3.82092 8.59804L3.77004 8.48387L3.82109 8.59797C3.82105 8.59799 3.821 8.59801 3.82096 8.59803ZM3.36293 4.46578C2.87825 4.17012 2.3451 4.11196 1.89916 4.31552L4.64733 7.16652C4.70617 6.69889 4.62291 6.18158 4.40502 5.6969C4.16752 5.1686 3.79917 4.73236 3.36293 4.46578ZM3.55569 7.09587L3.55481 7.09579C3.5441 7.15791 3.52177 7.24271 3.48165 7.3199C3.44142 7.39731 3.38862 7.4572 3.32137 7.48772C3.21634 7.53462 3.03773 7.51405 2.82766 7.37212C2.62316 7.23396 2.412 6.99389 2.26043 6.65872C2.11131 6.32363 2.07258 6.00657 2.10547 5.76203C2.13929 5.51063 2.24284 5.36355 2.34772 5.31659L2.34772 5.31659L2.34836 5.3163C2.3819 5.30105 2.42162 5.29357 2.46628 5.29357C2.58654 5.29357 2.71259 5.35183 2.79695 5.40512L2.79693 5.40515L2.7994 5.40663C3.03882 5.55028 3.26128 5.81835 3.40866 6.14994L3.40866 6.14994L3.40892 6.15053C3.55558 6.47592 3.60717 6.82167 3.55569 7.09587Z" fill="black" stroke="black" stroke-width="0.25"/>
<path id="Vector_5" d="M16.4713 4.2012C15.9817 3.983 15.4052 4.04565 14.8916 4.35892L14.8915 4.35898C14.4309 4.64046 14.0469 5.09753 13.8006 5.64551C13.554 6.19401 13.4715 6.78676 13.5687 7.31396C13.6765 7.90416 14.0132 8.37932 14.5033 8.59783C14.7038 8.68754 14.9103 8.7299 15.1214 8.7299C15.9316 8.7299 16.744 8.11409 17.1743 7.15345C17.7116 5.95439 17.4445 4.63438 16.4713 4.2012ZM16.4713 4.2012L16.4204 4.31538L16.4713 4.20118C16.4713 4.20119 16.4713 4.2012 16.4713 4.2012ZM14.7648 7.09078L14.7648 7.09078L14.7644 7.08864C14.7121 6.81403 14.7636 6.46711 14.9107 6.14068C15.0572 5.81564 15.2839 5.54628 15.5206 5.3966C15.6114 5.34419 15.7353 5.28373 15.8533 5.28373C15.8952 5.28373 15.9317 5.29026 15.9733 5.30739C16.0777 5.35504 16.1805 5.50191 16.2141 5.75217C16.2471 5.99678 16.2083 6.31398 16.059 6.64921L16.0482 6.67357L16.0482 6.678C15.8999 7.00033 15.694 7.23218 15.4939 7.36703C15.2832 7.50899 15.1034 7.52965 14.9983 7.48272C14.931 7.45221 14.8782 7.39231 14.838 7.31489C14.7979 7.2377 14.7755 7.1529 14.7648 7.09078Z" fill="black" stroke="black" stroke-width="0.25"/>
</g>
</svg>
