<svg width="24" height="24" viewBox="0 0 24 24" fill="none" xmlns="http://www.w3.org/2000/svg">
<g id="Icon">
<path id="Vector" d="M19.2105 10.1521V5.53355C19.2105 5.06281 19.0184 4.63566 18.7091 4.32638C18.3998 4.01712 17.9727 3.825 17.5019 3.825H6.8313C6.3604 3.825 5.93338 4.01786 5.62428 4.32624L5.62414 4.32638C5.31487 4.63564 5.12276 5.06279 5.12276 5.53355V6.17046H4.39881C4.08197 6.17046 3.825 6.42743 3.825 6.74427C3.825 7.06111 4.08197 7.31808 4.39881 7.31808H5.12276V8.86602H4.39881C4.08197 8.86602 3.825 9.12299 3.825 9.43983C3.825 9.75666 4.08197 10.0136 4.39881 10.0136H5.12276V11.5616H4.39881C4.08197 11.5616 3.825 11.8185 3.825 12.1354C3.825 12.4522 4.08197 12.7092 4.39881 12.7092H5.12276V14.2571H4.39881C4.08197 14.2571 3.825 14.5141 3.825 14.8309C3.825 15.1478 4.08197 15.4047 4.39881 15.4047H5.12276V16.9527H4.39881C4.08197 16.9527 3.825 17.2096 3.825 17.5265C3.825 17.8433 4.08197 18.1003 4.39881 18.1003H5.12276V18.7372C5.12276 19.2079 5.31486 19.6351 5.62414 19.9444C5.9334 20.2536 6.36055 20.4458 6.8313 20.4458H17.5019C17.9725 20.4458 18.4003 20.2538 18.7091 19.9444C19.0183 19.6351 19.2105 19.208 19.2105 18.7372V14.1189L19.601 14.1194H19.6012C19.918 14.1194 20.175 13.8624 20.175 13.5455V10.7259C20.175 10.4091 19.918 10.1521 19.6012 10.1521H19.2105ZM18.0623 10.1513H15.1559C14.8391 10.1513 14.5821 10.4083 14.5821 10.7251V13.5448C14.5821 13.8616 14.8391 14.1186 15.1559 14.1186H18.0623V18.7371C18.0623 18.89 17.9997 19.0304 17.8975 19.1321L17.8972 19.1324C17.7951 19.2345 17.6551 19.2974 17.502 19.2974H6.83139C6.67877 19.2974 6.53882 19.235 6.43615 19.1324L6.31241 19.2561L6.43615 19.1324C6.33399 19.0302 6.27111 18.8902 6.27111 18.7371V18.1002H6.99572C7.31256 18.1002 7.56953 17.8433 7.56953 17.5264C7.56953 17.2096 7.31256 16.9526 6.99572 16.9526H6.27111V15.404H6.99572C7.31256 15.404 7.56953 15.147 7.56953 14.8302C7.56953 14.5133 7.31256 14.2564 6.99572 14.2564H6.27111V12.7084H6.99572C7.31256 12.7084 7.56953 12.4515 7.56953 12.1346C7.56953 11.8178 7.31256 11.5608 6.99572 11.5608H6.27111V10.0129H6.99572C7.31256 10.0129 7.56953 9.7559 7.56953 9.43906C7.56953 9.12222 7.31256 8.86525 6.99572 8.86525H6.27111V7.31732H6.99572C7.31256 7.31732 7.56953 7.06035 7.56953 6.74351C7.56953 6.42667 7.31256 6.1697 6.99572 6.1697H6.27111V5.53278C6.27111 5.38059 6.33383 5.24045 6.43629 5.13741C6.53843 5.03533 6.67838 4.9725 6.83139 4.9725H17.502C17.6546 4.9725 17.7946 5.03488 17.8972 5.13754C17.9994 5.2397 18.0623 5.37971 18.0623 5.53278V10.1513ZM15.7304 11.2989H19.0282V12.9709H15.7304V11.2989Z" fill="black" stroke="black" stroke-width="0.35"/>
</g>
</svg>
