<svg width="40" height="41" viewBox="0 0 40 41" fill="none" xmlns="http://www.w3.org/2000/svg">
<g id="Group 4445">
<circle id="Ellipse 10" cx="20" cy="20.5" r="20" fill="#ECE8FF"/>
<path id="Vector" d="M32.1378 13.0526L27.4488 8.36364C27.2205 8.1353 26.8493 8.1353 26.6197 8.36364C26.3902 8.59199 26.3914 8.96321 26.6197 9.19275L27.306 9.879L24.6183 12.5666L22.5474 10.4957C22.319 10.2673 21.9478 10.2673 21.7183 10.4957C21.4899 10.724 21.4899 11.0952 21.7183 11.3248L22.5474 12.1539L11.2387 23.46C10.5525 24.1463 10.5525 25.2599 11.2387 25.9449L10.1422 27.0415C9.57317 27.6166 9.57317 28.5422 10.1422 29.1161L10.3486 29.3225L7.86364 31.8074C7.6353 32.0357 7.6353 32.407 7.86364 32.6365C8.09199 32.8649 8.46321 32.8649 8.69275 32.6365L11.1777 30.1516L11.384 30.358C11.6649 30.6339 12.0288 30.7853 12.422 30.7853C12.8152 30.7853 13.1839 30.6327 13.4599 30.358L14.5564 29.2614C14.8849 29.596 15.3306 29.7767 15.7995 29.7767C16.2684 29.7767 16.708 29.5948 17.0426 29.2614L28.3512 17.9528L29.1803 18.7819C29.4087 19.0102 29.7799 19.0102 30.0095 18.7819C30.2378 18.5536 30.2378 18.1823 30.0095 17.9528L27.9385 15.8818L30.6261 13.1942L31.3124 13.8804C31.5407 14.1088 31.9119 14.1088 32.1415 13.8804C32.3698 13.6521 32.3698 13.2809 32.1415 13.0513L32.1378 13.0526ZM12.6272 29.5264C12.5161 29.6436 12.328 29.6436 12.2169 29.5264L10.9738 28.2833C10.8566 28.1722 10.8566 27.9841 10.9738 27.873L12.0704 26.7765L13.7238 28.4298L12.6272 29.5264ZM16.2087 28.4359C15.9913 28.6533 15.6055 28.6533 15.382 28.4359L12.0644 25.1183C11.8409 24.89 11.8409 24.5151 12.0644 24.2855L12.9521 23.3978L13.7849 24.2306C14.0132 24.4589 14.3845 24.4589 14.614 24.2306C14.8424 24.0022 14.8424 23.631 14.614 23.4015L13.7812 22.5687L14.6115 21.7383L16.0658 23.1926C16.2942 23.421 16.6654 23.421 16.895 23.1926C17.1233 22.9643 17.1233 22.5931 16.895 22.3635L15.4406 20.9092L16.2673 20.0826L17.0989 20.9141C17.3272 21.1425 17.6985 21.1425 17.928 20.9141C18.1576 20.6858 18.1564 20.3146 17.928 20.085L17.0964 19.2534L17.9268 18.4231L19.3786 19.875C19.607 20.1033 19.9782 20.1033 20.2077 19.875C20.4361 19.6466 20.4361 19.2754 20.2077 19.0459L18.7559 17.594L19.5862 16.7637L20.4178 17.5953C20.6461 17.8236 21.0173 17.8236 21.2469 17.5953C21.4764 17.3669 21.4752 16.9957 21.2469 16.7662L20.4153 15.9346L21.2456 15.1042L22.6975 16.5561C22.9259 16.7845 23.2971 16.7845 23.5266 16.5561C23.755 16.3278 23.755 15.9565 23.5266 15.727L22.0747 14.2751L23.3752 12.9747L27.5244 17.1238L16.2111 28.4324L16.2087 28.4359ZM27.1056 15.0538L25.4474 13.3956L28.1374 10.7104L29.7908 12.3638L27.1056 15.0538Z" fill="#764BE2"/>
</g>
</svg>
